ply
format ascii 1.0
comment Created by Blender 2.73 (sub 0) - www.blender.org, source file: 'tiling.blend'
element vertex 426
property float x
property float y
property float z
property float nx
property float ny
property float nz
property float s
property float t
property uchar red
property uchar green
property uchar blue
element face 164
property list uchar uint vertex_indices
end_header
0.030000 -0.170000 -0.200000 -0.577350 -0.577350 -0.577350 0.000000 0.000000 115 122 122
0.030000 -0.200000 -0.170000 -0.577350 -0.577350 -0.577350 1.000000 0.000000 115 122 122
0.000000 -0.170000 -0.170000 -0.577350 -0.577350 -0.577350 1.000000 1.000000 115 122 122
0.970000 -0.170000 -0.200000 0.000000 -0.707107 -0.707107 0.000000 0.000000 115 122 122
0.970000 -0.200000 -0.170000 0.000000 -0.707107 -0.707107 1.000000 0.000000 115 122 122
0.030000 -0.200000 -0.170000 0.000000 -0.707107 -0.707107 1.000000 1.000000 115 122 122
2.000000 0.170000 -0.170000 -0.577351 0.577350 -0.577350 0.000000 0.000000 115 122 122
2.030000 0.200000 -0.170000 -0.577351 0.577350 -0.577350 1.000000 0.000000 115 122 122
2.030000 0.170000 -0.200000 -0.577351 0.577350 -0.577350 1.000000 1.000000 115 122 122
0.970000 0.200000 0.170000 0.000000 1.000000 0.000000 0.000000 0.000000 115 122 122
0.970000 0.200000 -0.170000 0.000000 1.000000 0.000000 1.000000 0.000000 115 122 122
0.030000 0.200000 -0.170000 0.000000 1.000000 0.000000 1.000000 1.000000 115 122 122
1.970000 0.200000 -0.170000 0.577351 0.577350 -0.577350 0.000000 0.000000 115 122 122
2.000000 0.170000 -0.170000 0.577351 0.577350 -0.577350 1.000000 0.000000 115 122 122
1.970000 0.170000 -0.200000 0.577351 0.577350 -0.577350 1.000000 1.000000 115 122 122
2.000000 0.170000 -0.170000 0.707107 0.707106 0.000000 0.000000 0.000000 115 122 122
1.970000 0.200000 -0.170000 0.707107 0.707106 0.000000 1.000000 0.000000 115 122 122
1.970000 0.200000 0.170000 0.707107 0.707106 0.000000 1.000000 1.000000 115 122 122
0.970000 0.170000 0.200000 0.000000 0.000000 1.000000 0.000000 0.000000 115 122 122
0.030000 0.170000 0.200000 0.000000 0.000000 1.000000 1.000000 0.000000 115 122 122
0.030000 -0.170000 0.200000 0.000000 0.000000 1.000000 1.000000 1.000000 115 122 122
3.000000 -0.170000 0.170000 -0.577351 -0.577350 0.577350 0.000000 0.000000 115 122 122
3.030000 -0.200000 0.170000 -0.577351 -0.577350 0.577350 1.000000 0.000000 115 122 122
3.030000 -0.170000 0.200000 -0.577351 -0.577350 0.577350 1.000000 1.000000 115 122 122
3.030000 -0.170000 -0.200000 -0.707107 -0.000000 -0.707106 0.000000 0.000000 115 122 122
3.000000 -0.170000 -0.170000 -0.707107 -0.000000 -0.707106 1.000000 0.000000 115 122 122
3.000000 0.170000 -0.170000 -0.707107 -0.000000 -0.707106 1.000000 1.000000 115 122 122
0.000000 0.170000 0.170000 -0.577350 0.577350 0.577350 0.000000 0.000000 115 122 122
0.030000 0.170000 0.200000 -0.577350 0.577350 0.577350 1.000000 0.000000 115 122 122
0.030000 0.200000 0.170000 -0.577350 0.577350 0.577350 1.000000 1.000000 115 122 122
0.000000 0.170000 -0.170000 -0.577350 0.577350 -0.577350 0.000000 0.000000 115 122 122
0.030000 0.200000 -0.170000 -0.577350 0.577350 -0.577350 1.000000 0.000000 115 122 122
0.030000 0.170000 -0.200000 -0.577350 0.577350 -0.577350 1.000000 1.000000 115 122 122
0.000000 -0.170000 0.170000 -0.577350 -0.577350 0.577350 0.000000 0.000000 115 122 122
0.030000 -0.200000 0.170000 -0.577350 -0.577350 0.577350 1.000000 0.000000 115 122 122
0.030000 -0.170000 0.200000 -0.577350 -0.577350 0.577350 1.000000 1.000000 115 122 122
3.000000 -0.170000 0.170000 0.577351 -0.577350 0.577350 0.000000 0.000000 115 122 122
2.970000 -0.170000 0.200000 0.577351 -0.577350 0.577350 1.000000 0.000000 115 122 122
2.970000 -0.200000 0.170000 0.577351 -0.577350 0.577350 1.000000 1.000000 115 122 122
2.970000 0.170000 0.200000 -0.000000 0.707107 0.707107 0.000000 0.000000 115 122 122
2.970000 0.200000 0.170000 -0.000000 0.707107 0.707107 1.000000 0.000000 115 122 122
2.030000 0.200000 0.170000 -0.000000 0.707107 0.707107 1.000000 1.000000 115 122 122
1.000000 -0.170000 -0.170000 0.577351 -0.577350 -0.577350 0.000000 0.000000 115 122 122
0.970000 -0.200000 -0.170000 0.577351 -0.577350 -0.577350 1.000000 0.000000 115 122 122
0.970000 -0.170000 -0.200000 0.577351 -0.577350 -0.577350 1.000000 1.000000 115 122 122
2.000000 -0.170000 -0.170000 0.577351 -0.577350 -0.577350 0.000000 0.000000 115 122 122
1.970000 -0.200000 -0.170000 0.577351 -0.577350 -0.577350 1.000000 0.000000 115 122 122
1.970000 -0.170000 -0.200000 0.577351 -0.577350 -0.577350 1.000000 1.000000 115 122 122
2.970000 0.200000 0.170000 0.577351 0.577350 0.577350 0.000000 0.000000 115 122 122
2.970000 0.170000 0.200000 0.577351 0.577350 0.577350 1.000000 0.000000 115 122 122
3.000000 0.170000 0.170000 0.577351 0.577350 0.577350 1.000000 1.000000 115 122 122
2.970000 -0.170000 0.200000 0.707107 0.000000 0.707106 0.000000 0.000000 115 122 122
3.000000 -0.170000 0.170000 0.707107 0.000000 0.707106 1.000000 0.000000 115 122 122
3.000000 0.170000 0.170000 0.707107 0.000000 0.707106 1.000000 1.000000 115 122 122
2.970000 -0.200000 -0.170000 0.707107 -0.707106 0.000000 0.000000 0.000000 115 122 122
3.000000 -0.170000 -0.170000 0.707107 -0.707106 0.000000 1.000000 0.000000 115 122 122
3.000000 -0.170000 0.170000 0.707107 -0.707106 0.000000 1.000000 1.000000 115 122 122
3.030000 -0.170000 0.200000 0.000000 -0.707107 0.707107 0.000000 0.000000 115 122 122
3.030000 -0.200000 0.170000 0.000000 -0.707107 0.707107 1.000000 0.000000 115 122 122
3.970000 -0.200000 0.170000 0.000000 -0.707107 0.707107 1.000000 1.000000 115 122 122
3.970000 -0.170000 -0.200000 0.000000 -0.707107 -0.707107 0.000000 0.000000 115 122 122
3.970000 -0.200000 -0.170000 0.000000 -0.707107 -0.707107 1.000000 0.000000 115 122 122
3.030000 -0.200000 -0.170000 0.000000 -0.707107 -0.707107 1.000000 1.000000 115 122 122
3.970000 -0.170000 0.200000 0.707107 0.000000 0.707106 0.000000 0.000000 115 122 122
4.000000 -0.170000 0.170000 0.707107 0.000000 0.707106 1.000000 0.000000 115 122 122
4.000000 0.170000 0.170000 0.707107 0.000000 0.707106 1.000000 1.000000 115 122 122
3.970000 0.200000 0.170000 0.577351 0.577350 0.577350 0.000000 0.000000 115 122 122
3.970000 0.170000 0.200000 0.577351 0.577350 0.577350 1.000000 0.000000 115 122 122
4.000000 0.170000 0.170000 0.577351 0.577350 0.577350 1.000000 1.000000 115 122 122
2.970000 -0.170000 -0.200000 0.000000 -0.707107 -0.707107 0.000000 0.000000 115 122 122
2.970000 -0.200000 -0.170000 0.000000 -0.707107 -0.707107 1.000000 0.000000 115 122 122
2.030000 -0.200000 -0.170000 0.000000 -0.707107 -0.707107 1.000000 1.000000 115 122 122
2.030000 -0.170000 0.200000 0.000000 -0.707107 0.707107 0.000000 0.000000 115 122 122
2.030000 -0.200000 0.170000 0.000000 -0.707107 0.707107 1.000000 0.000000 115 122 122
2.970000 -0.200000 0.170000 0.000000 -0.707107 0.707107 1.000000 1.000000 115 122 122
2.030000 0.170000 -0.200000 0.000000 0.707107 -0.707107 0.000000 0.000000 115 122 122
2.030000 0.200000 -0.170000 0.000000 0.707107 -0.707107 1.000000 0.000000 115 122 122
2.970000 0.200000 -0.170000 0.000000 0.707107 -0.707107 1.000000 1.000000 115 122 122
2.030000 -0.170000 -0.200000 -0.707107 -0.000000 -0.707106 0.000000 0.000000 115 122 122
2.000000 -0.170000 -0.170000 -0.707107 -0.000000 -0.707106 1.000000 0.000000 115 122 122
2.000000 0.170000 -0.170000 -0.707107 -0.000000 -0.707106 1.000000 1.000000 115 122 122
2.030000 0.200000 -0.170000 -0.707107 0.707106 0.000000 0.000000 0.000000 115 122 122
2.000000 0.170000 -0.170000 -0.707107 0.707106 0.000000 1.000000 0.000000 115 122 122
2.000000 0.170000 0.170000 -0.707107 0.707106 0.000000 1.000000 1.000000 115 122 122
2.000000 0.170000 0.170000 -0.577351 0.577350 0.577350 0.000000 0.000000 115 122 122
2.030000 0.170000 0.200000 -0.577351 0.577350 0.577350 1.000000 0.000000 115 122 122
2.030000 0.200000 0.170000 -0.577351 0.577350 0.577350 1.000000 1.000000 115 122 122
4.000000 -0.170000 0.170000 0.577351 -0.577350 0.577350 0.000000 0.000000 115 122 122
3.970000 -0.170000 0.200000 0.577351 -0.577350 0.577350 1.000000 0.000000 115 122 122
3.970000 -0.200000 0.170000 0.577351 -0.577350 0.577350 1.000000 1.000000 115 122 122
2.030000 -0.170000 -0.200000 -0.577351 -0.577350 -0.577350 0.000000 0.000000 115 122 122
2.030000 -0.200000 -0.170000 -0.577351 -0.577350 -0.577350 1.000000 0.000000 115 122 122
2.000000 -0.170000 -0.170000 -0.577351 -0.577350 -0.577350 1.000000 1.000000 115 122 122
2.030000 -0.200000 0.170000 0.000000 -1.000000 0.000000 0.000000 0.000000 115 122 122
2.030000 -0.200000 -0.170000 0.000000 -1.000000 0.000000 1.000000 0.000000 115 122 122
2.970000 -0.200000 -0.170000 0.000000 -1.000000 0.000000 1.000000 1.000000 115 122 122
0.030000 0.170000 -0.200000 0.000000 0.000000 -1.000000 0.000000 0.000000 115 122 122
0.970000 0.170000 -0.200000 0.000000 0.000000 -1.000000 1.000000 0.000000 115 122 122
0.970000 -0.170000 -0.200000 0.000000 0.000000 -1.000000 1.000000 1.000000 115 122 122
2.970000 0.200000 0.170000 0.000000 1.000000 0.000000 0.000000 0.000000 115 122 122
2.970000 0.200000 -0.170000 0.000000 1.000000 0.000000 1.000000 0.000000 115 122 122
2.030000 0.200000 -0.170000 0.000000 1.000000 0.000000 1.000000 1.000000 115 122 122
2.970000 0.170000 0.200000 0.000000 0.000000 1.000000 0.000000 0.000000 115 122 122
2.030000 0.170000 0.200000 0.000000 0.000000 1.000000 1.000000 0.000000 115 122 122
2.030000 -0.170000 0.200000 0.000000 0.000000 1.000000 1.000000 1.000000 115 122 122
2.030000 0.170000 -0.200000 0.000000 0.000000 -1.000000 0.000000 0.000000 115 122 122
2.970000 0.170000 -0.200000 0.000000 0.000000 -1.000000 1.000000 0.000000 115 122 122
2.970000 -0.170000 -0.200000 0.000000 0.000000 -1.000000 1.000000 1.000000 115 122 122
1.970000 -0.170000 -0.200000 0.000000 -0.707107 -0.707107 0.000000 0.000000 115 122 122
1.970000 -0.200000 -0.170000 0.000000 -0.707107 -0.707107 1.000000 0.000000 115 122 122
1.030000 -0.200000 -0.170000 0.000000 -0.707107 -0.707107 1.000000 1.000000 115 122 122
1.030000 -0.170000 0.200000 0.000000 -0.707107 0.707107 0.000000 0.000000 115 122 122
1.030000 -0.200000 0.170000 0.000000 -0.707107 0.707107 1.000000 0.000000 115 122 122
1.970000 -0.200000 0.170000 0.000000 -0.707107 0.707107 1.000000 1.000000 115 122 122
1.030000 0.170000 -0.200000 0.000000 0.707107 -0.707107 0.000000 0.000000 115 122 122
1.030000 0.200000 -0.170000 0.000000 0.707107 -0.707107 1.000000 0.000000 115 122 122
1.970000 0.200000 -0.170000 0.000000 0.707107 -0.707107 1.000000 1.000000 115 122 122
1.970000 0.170000 0.200000 -0.000000 0.707107 0.707107 0.000000 0.000000 115 122 122
1.970000 0.200000 0.170000 -0.000000 0.707107 0.707107 1.000000 0.000000 115 122 122
1.030000 0.200000 0.170000 -0.000000 0.707107 0.707107 1.000000 1.000000 115 122 122
1.030000 0.200000 -0.170000 -0.707107 0.707106 0.000000 0.000000 0.000000 115 122 122
1.000000 0.170000 -0.170000 -0.707107 0.707106 0.000000 1.000000 0.000000 115 122 122
1.000000 0.170000 0.170000 -0.707107 0.707106 0.000000 1.000000 1.000000 115 122 122
2.000000 -0.170000 0.170000 0.577351 -0.577350 0.577350 0.000000 0.000000 115 122 122
1.970000 -0.170000 0.200000 0.577351 -0.577350 0.577350 1.000000 0.000000 115 122 122
1.970000 -0.200000 0.170000 0.577351 -0.577350 0.577350 1.000000 1.000000 115 122 122
1.000000 0.170000 0.170000 -0.577351 0.577350 0.577350 0.000000 0.000000 115 122 122
1.030000 0.170000 0.200000 -0.577351 0.577350 0.577350 1.000000 0.000000 115 122 122
1.030000 0.200000 0.170000 -0.577351 0.577350 0.577350 1.000000 1.000000 115 122 122
1.000000 0.170000 -0.170000 -0.577351 0.577350 -0.577350 0.000000 0.000000 115 122 122
1.030000 0.200000 -0.170000 -0.577351 0.577350 -0.577350 1.000000 0.000000 115 122 122
1.030000 0.170000 -0.200000 -0.577351 0.577350 -0.577350 1.000000 1.000000 115 122 122
1.030000 -0.200000 0.170000 0.000000 -1.000000 0.000000 0.000000 0.000000 115 122 122
1.030000 -0.200000 -0.170000 0.000000 -1.000000 0.000000 1.000000 0.000000 115 122 122
1.970000 -0.200000 -0.170000 0.000000 -1.000000 0.000000 1.000000 1.000000 115 122 122
1.970000 0.200000 0.170000 0.000000 1.000000 0.000000 0.000000 0.000000 115 122 122
1.970000 0.200000 -0.170000 0.000000 1.000000 0.000000 1.000000 0.000000 115 122 122
1.030000 0.200000 -0.170000 0.000000 1.000000 0.000000 1.000000 1.000000 115 122 122
1.970000 0.170000 0.200000 0.000000 0.000000 1.000000 0.000000 0.000000 115 122 122
1.030000 0.170000 0.200000 0.000000 0.000000 1.000000 1.000000 0.000000 115 122 122
1.030000 -0.170000 0.200000 0.000000 0.000000 1.000000 1.000000 1.000000 115 122 122
1.030000 0.170000 -0.200000 0.000000 0.000000 -1.000000 0.000000 0.000000 115 122 122
1.970000 0.170000 -0.200000 0.000000 0.000000 -1.000000 1.000000 0.000000 115 122 122
1.970000 -0.170000 -0.200000 0.000000 0.000000 -1.000000 1.000000 1.000000 115 122 122
0.000000 0.170000 0.170000 -1.000000 0.000000 0.000000 0.000000 0.000000 115 122 122
0.000000 0.170000 -0.170000 -1.000000 0.000000 0.000000 1.000000 0.000000 115 122 122
0.000000 -0.170000 -0.170000 -1.000000 0.000000 0.000000 1.000000 1.000000 115 122 122
0.030000 -0.170000 0.200000 0.000000 -0.707107 0.707107 0.000000 0.000000 115 122 122
0.030000 -0.200000 0.170000 0.000000 -0.707107 0.707107 1.000000 0.000000 115 122 122
0.970000 -0.200000 0.170000 0.000000 -0.707107 0.707107 1.000000 1.000000 115 122 122
0.970000 -0.200000 -0.170000 0.707107 -0.707106 0.000000 0.000000 0.000000 115 122 122
1.000000 -0.170000 -0.170000 0.707107 -0.707106 0.000000 1.000000 0.000000 115 122 122
1.000000 -0.170000 0.170000 0.707107 -0.707106 0.000000 1.000000 1.000000 115 122 122
0.030000 0.170000 -0.200000 0.000000 0.707107 -0.707107 0.000000 0.000000 115 122 122
0.030000 0.200000 -0.170000 0.000000 0.707107 -0.707107 1.000000 0.000000 115 122 122
0.970000 0.200000 -0.170000 0.000000 0.707107 -0.707107 1.000000 1.000000 115 122 122
0.970000 0.170000 0.200000 -0.000000 0.707107 0.707107 0.000000 0.000000 115 122 122
0.970000 0.200000 0.170000 -0.000000 0.707107 0.707107 1.000000 0.000000 115 122 122
0.030000 0.200000 0.170000 -0.000000 0.707107 0.707107 1.000000 1.000000 115 122 122
0.030000 -0.170000 -0.200000 -0.707107 -0.000000 -0.707107 0.000000 0.000000 115 122 122
0.000000 -0.170000 -0.170000 -0.707107 -0.000000 -0.707107 1.000000 0.000000 115 122 122
0.000000 0.170000 -0.170000 -0.707107 -0.000000 -0.707107 1.000000 1.000000 115 122 122
0.030000 0.200000 -0.170000 -0.707107 0.707107 0.000000 0.000000 0.000000 115 122 122
0.000000 0.170000 -0.170000 -0.707107 0.707107 0.000000 1.000000 0.000000 115 122 122
0.000000 0.170000 0.170000 -0.707107 0.707107 0.000000 1.000000 1.000000 115 122 122
0.030000 0.170000 0.200000 -0.707107 0.000000 0.707107 0.000000 0.000000 115 122 122
0.000000 0.170000 0.170000 -0.707107 0.000000 0.707107 1.000000 0.000000 115 122 122
0.000000 -0.170000 0.170000 -0.707107 0.000000 0.707107 1.000000 1.000000 115 122 122
0.030000 -0.200000 0.170000 -0.707107 -0.707107 0.000000 0.000000 0.000000 115 122 122
0.000000 -0.170000 0.170000 -0.707107 -0.707107 0.000000 1.000000 0.000000 115 122 122
0.000000 -0.170000 -0.170000 -0.707107 -0.707107 0.000000 1.000000 1.000000 115 122 122
1.000000 -0.170000 0.170000 0.577351 -0.577350 0.577350 0.000000 0.000000 115 122 122
0.970000 -0.170000 0.200000 0.577351 -0.577350 0.577350 1.000000 0.000000 115 122 122
0.970000 -0.200000 0.170000 0.577351 -0.577350 0.577350 1.000000 1.000000 115 122 122
3.970000 -0.200000 -0.170000 0.707107 -0.707106 0.000000 0.000000 0.000000 115 122 122
4.000000 -0.170000 -0.170000 0.707107 -0.707106 0.000000 1.000000 0.000000 115 122 122
4.000000 -0.170000 0.170000 0.707107 -0.707106 0.000000 1.000000 1.000000 115 122 122
0.030000 -0.200000 0.170000 0.000000 -1.000000 0.000000 0.000000 0.000000 115 122 122
0.030000 -0.200000 -0.170000 0.000000 -1.000000 0.000000 1.000000 0.000000 115 122 122
0.970000 -0.200000 -0.170000 0.000000 -1.000000 0.000000 1.000000 1.000000 115 122 122
3.970000 0.170000 0.200000 -0.000000 0.707107 0.707107 0.000000 0.000000 115 122 122
3.970000 0.200000 0.170000 -0.000000 0.707107 0.707107 1.000000 0.000000 115 122 122
3.030000 0.200000 0.170000 -0.000000 0.707107 0.707107 1.000000 1.000000 115 122 122
3.000000 0.170000 -0.170000 -0.577351 0.577350 -0.577350 0.000000 0.000000 115 122 122
3.030000 0.200000 -0.170000 -0.577351 0.577350 -0.577350 1.000000 0.000000 115 122 122
3.030000 0.170000 -0.200000 -0.577351 0.577350 -0.577350 1.000000 1.000000 115 122 122
0.970000 0.200000 -0.170000 0.577351 0.577350 -0.577350 0.000000 0.000000 115 122 122
1.000000 0.170000 -0.170000 0.577351 0.577350 -0.577350 1.000000 0.000000 115 122 122
0.970000 0.170000 -0.200000 0.577351 0.577350 -0.577350 1.000000 1.000000 115 122 122
0.970000 0.200000 0.170000 0.577351 0.577350 0.577350 0.000000 0.000000 115 122 122
0.970000 0.170000 0.200000 0.577351 0.577350 0.577350 1.000000 0.000000 115 122 122
1.000000 0.170000 0.170000 0.577351 0.577350 0.577350 1.000000 1.000000 115 122 122
1.000000 0.170000 -0.170000 0.707107 0.707106 0.000000 0.000000 0.000000 115 122 122
0.970000 0.200000 -0.170000 0.707107 0.707106 0.000000 1.000000 0.000000 115 122 122
0.970000 0.200000 0.170000 0.707107 0.707106 0.000000 1.000000 1.000000 115 122 122
0.970000 -0.170000 0.200000 0.707107 0.000000 0.707106 0.000000 0.000000 115 122 122
1.000000 -0.170000 0.170000 0.707107 0.000000 0.707106 1.000000 0.000000 115 122 122
1.000000 0.170000 0.170000 0.707107 0.000000 0.707106 1.000000 1.000000 115 122 122
0.970000 0.170000 -0.200000 0.707107 0.000000 -0.707106 0.000000 0.000000 115 122 122
1.000000 0.170000 -0.170000 0.707107 0.000000 -0.707106 1.000000 0.000000 115 122 122
1.000000 -0.170000 -0.170000 0.707107 0.000000 -0.707106 1.000000 1.000000 115 122 122
1.030000 -0.170000 -0.200000 -0.577351 -0.577350 -0.577350 0.000000 0.000000 115 122 122
1.030000 -0.200000 -0.170000 -0.577351 -0.577350 -0.577350 1.000000 0.000000 115 122 122
1.000000 -0.170000 -0.170000 -0.577351 -0.577350 -0.577350 1.000000 1.000000 115 122 122
1.000000 -0.170000 0.170000 -0.577351 -0.577350 0.577350 0.000000 0.000000 115 122 122
1.030000 -0.200000 0.170000 -0.577351 -0.577350 0.577350 1.000000 0.000000 115 122 122
1.030000 -0.170000 0.200000 -0.577351 -0.577350 0.577350 1.000000 1.000000 115 122 122
1.970000 0.200000 0.170000 0.577351 0.577350 0.577350 0.000000 0.000000 115 122 122
1.970000 0.170000 0.200000 0.577351 0.577350 0.577350 1.000000 0.000000 115 122 122
2.000000 0.170000 0.170000 0.577351 0.577350 0.577350 1.000000 1.000000 115 122 122
1.030000 -0.200000 0.170000 -0.707107 -0.707106 0.000000 0.000000 0.000000 115 122 122
1.000000 -0.170000 0.170000 -0.707107 -0.707106 0.000000 1.000000 0.000000 115 122 122
1.000000 -0.170000 -0.170000 -0.707107 -0.707106 0.000000 1.000000 1.000000 115 122 122
1.030000 0.170000 0.200000 -0.707107 0.000000 0.707106 0.000000 0.000000 115 122 122
1.000000 0.170000 0.170000 -0.707107 0.000000 0.707106 1.000000 0.000000 115 122 122
1.000000 -0.170000 0.170000 -0.707107 0.000000 0.707106 1.000000 1.000000 115 122 122
1.030000 -0.170000 -0.200000 -0.707107 -0.000000 -0.707106 0.000000 0.000000 115 122 122
1.000000 -0.170000 -0.170000 -0.707107 -0.000000 -0.707106 1.000000 0.000000 115 122 122
1.000000 0.170000 -0.170000 -0.707107 -0.000000 -0.707106 1.000000 1.000000 115 122 122
1.970000 -0.170000 0.200000 0.707107 0.000000 0.707106 0.000000 0.000000 115 122 122
2.000000 -0.170000 0.170000 0.707107 0.000000 0.707106 1.000000 0.000000 115 122 122
2.000000 0.170000 0.170000 0.707107 0.000000 0.707106 1.000000 1.000000 115 122 122
1.970000 -0.200000 -0.170000 0.707107 -0.707106 0.000000 0.000000 0.000000 115 122 122
2.000000 -0.170000 -0.170000 0.707107 -0.707106 0.000000 1.000000 0.000000 115 122 122
2.000000 -0.170000 0.170000 0.707107 -0.707106 0.000000 1.000000 1.000000 115 122 122
1.970000 0.170000 -0.200000 0.707107 0.000000 -0.707106 0.000000 0.000000 115 122 122
2.000000 0.170000 -0.170000 0.707107 0.000000 -0.707106 1.000000 0.000000 115 122 122
2.000000 -0.170000 -0.170000 0.707107 0.000000 -0.707106 1.000000 1.000000 115 122 122
3.000000 -0.170000 -0.170000 0.577351 -0.577350 -0.577350 0.000000 0.000000 115 122 122
2.970000 -0.200000 -0.170000 0.577351 -0.577350 -0.577350 1.000000 0.000000 115 122 122
2.970000 -0.170000 -0.200000 0.577351 -0.577350 -0.577350 1.000000 1.000000 115 122 122
2.000000 -0.170000 0.170000 -0.577351 -0.577350 0.577350 0.000000 0.000000 115 122 122
2.030000 -0.200000 0.170000 -0.577351 -0.577350 0.577350 1.000000 0.000000 115 122 122
2.030000 -0.170000 0.200000 -0.577351 -0.577350 0.577350 1.000000 1.000000 115 122 122
2.030000 -0.200000 0.170000 -0.707107 -0.707106 0.000000 0.000000 0.000000 115 122 122
2.000000 -0.170000 0.170000 -0.707107 -0.707106 0.000000 1.000000 0.000000 115 122 122
2.000000 -0.170000 -0.170000 -0.707107 -0.707106 0.000000 1.000000 1.000000 115 122 122
2.030000 0.170000 0.200000 -0.707107 0.000000 0.707106 0.000000 0.000000 115 122 122
2.000000 0.170000 0.170000 -0.707107 0.000000 0.707106 1.000000 0.000000 115 122 122
2.000000 -0.170000 0.170000 -0.707107 0.000000 0.707106 1.000000 1.000000 115 122 122
3.030000 0.200000 -0.170000 -0.707107 0.707106 0.000000 0.000000 0.000000 115 122 122
3.000000 0.170000 -0.170000 -0.707107 0.707106 0.000000 1.000000 0.000000 115 122 122
3.000000 0.170000 0.170000 -0.707107 0.707106 0.000000 1.000000 1.000000 115 122 122
3.030000 0.170000 0.200000 -0.707107 0.000000 0.707106 0.000000 0.000000 115 122 122
3.000000 0.170000 0.170000 -0.707107 0.000000 0.707106 1.000000 0.000000 115 122 122
3.000000 -0.170000 0.170000 -0.707107 0.000000 0.707106 1.000000 1.000000 115 122 122
3.030000 -0.170000 -0.200000 -0.577351 -0.577350 -0.577350 0.000000 0.000000 115 122 122
3.030000 -0.200000 -0.170000 -0.577351 -0.577350 -0.577350 1.000000 0.000000 115 122 122
3.000000 -0.170000 -0.170000 -0.577351 -0.577350 -0.577350 1.000000 1.000000 115 122 122
3.000000 0.170000 0.170000 -0.577351 0.577350 0.577350 0.000000 0.000000 115 122 122
3.030000 0.170000 0.200000 -0.577351 0.577350 0.577350 1.000000 0.000000 115 122 122
3.030000 0.200000 0.170000 -0.577351 0.577350 0.577350 1.000000 1.000000 115 122 122
3.000000 0.170000 -0.170000 0.707107 0.707106 0.000000 0.000000 0.000000 115 122 122
2.970000 0.200000 -0.170000 0.707107 0.707106 0.000000 1.000000 0.000000 115 122 122
2.970000 0.200000 0.170000 0.707107 0.707106 0.000000 1.000000 1.000000 115 122 122
3.970000 0.200000 -0.170000 0.577351 0.577350 -0.577350 0.000000 0.000000 115 122 122
4.000000 0.170000 -0.170000 0.577351 0.577350 -0.577350 1.000000 0.000000 115 122 122
3.970000 0.170000 -0.200000 0.577351 0.577350 -0.577350 1.000000 1.000000 115 122 122
3.030000 0.170000 -0.200000 0.000000 0.707107 -0.707107 0.000000 0.000000 115 122 122
3.030000 0.200000 -0.170000 0.000000 0.707107 -0.707107 1.000000 0.000000 115 122 122
3.970000 0.200000 -0.170000 0.000000 0.707107 -0.707107 1.000000 1.000000 115 122 122
2.970000 0.200000 -0.170000 0.577351 0.577350 -0.577350 0.000000 0.000000 115 122 122
3.000000 0.170000 -0.170000 0.577351 0.577350 -0.577350 1.000000 0.000000 115 122 122
2.970000 0.170000 -0.200000 0.577351 0.577350 -0.577350 1.000000 1.000000 115 122 122
3.970000 0.170000 -0.200000 0.707107 0.000000 -0.707106 0.000000 0.000000 115 122 122
4.000000 0.170000 -0.170000 0.707107 0.000000 -0.707106 1.000000 0.000000 115 122 122
4.000000 -0.170000 -0.170000 0.707107 0.000000 -0.707106 1.000000 1.000000 115 122 122
3.970000 0.170000 0.200000 0.000000 0.000000 1.000000 0.000000 0.000000 115 122 122
3.030000 0.170000 0.200000 0.000000 0.000000 1.000000 1.000000 0.000000 115 122 122
3.030000 -0.170000 0.200000 0.000000 0.000000 1.000000 1.000000 1.000000 115 122 122
4.000000 -0.170000 -0.170000 0.577351 -0.577350 -0.577350 0.000000 0.000000 115 122 122
3.970000 -0.200000 -0.170000 0.577351 -0.577350 -0.577350 1.000000 0.000000 115 122 122
3.970000 -0.170000 -0.200000 0.577351 -0.577350 -0.577350 1.000000 1.000000 115 122 122
3.970000 0.200000 0.170000 0.000000 1.000000 0.000000 0.000000 0.000000 115 122 122
3.970000 0.200000 -0.170000 0.000000 1.000000 0.000000 1.000000 0.000000 115 122 122
3.030000 0.200000 -0.170000 0.000000 1.000000 0.000000 1.000000 1.000000 115 122 122
2.970000 0.170000 -0.200000 0.707107 0.000000 -0.707106 0.000000 0.000000 115 122 122
3.000000 0.170000 -0.170000 0.707107 0.000000 -0.707106 1.000000 0.000000 115 122 122
3.000000 -0.170000 -0.170000 0.707107 0.000000 -0.707106 1.000000 1.000000 115 122 122
3.030000 -0.200000 0.170000 0.000000 -1.000000 0.000000 0.000000 0.000000 115 122 122
3.030000 -0.200000 -0.170000 0.000000 -1.000000 0.000000 1.000000 0.000000 115 122 122
3.970000 -0.200000 -0.170000 0.000000 -1.000000 0.000000 1.000000 1.000000 115 122 122
4.000000 0.170000 -0.170000 0.707107 0.707106 0.000000 0.000000 0.000000 115 122 122
3.970000 0.200000 -0.170000 0.707107 0.707106 0.000000 1.000000 0.000000 115 122 122
3.970000 0.200000 0.170000 0.707107 0.707106 0.000000 1.000000 1.000000 115 122 122
3.030000 0.170000 -0.200000 0.000000 0.000000 -1.000000 0.000000 0.000000 115 122 122
3.970000 0.170000 -0.200000 0.000000 0.000000 -1.000000 1.000000 0.000000 115 122 122
3.970000 -0.170000 -0.200000 0.000000 0.000000 -1.000000 1.000000 1.000000 115 122 122
3.030000 -0.200000 0.170000 -0.707107 -0.707106 0.000000 0.000000 0.000000 115 122 122
3.000000 -0.170000 0.170000 -0.707107 -0.707106 0.000000 1.000000 0.000000 115 122 122
3.000000 -0.170000 -0.170000 -0.707107 -0.707106 0.000000 1.000000 1.000000 115 122 122
4.000000 0.170000 0.170000 1.000000 0.000000 0.000000 0.000000 0.000000 115 122 122
4.000000 -0.170000 0.170000 1.000000 0.000000 0.000000 1.000000 0.000000 115 122 122
4.000000 -0.170000 -0.170000 1.000000 0.000000 0.000000 1.000000 1.000000 115 122 122
0.030000 -0.170000 -0.200000 -0.000000 -0.707107 -0.707107 0.000000 0.000000 115 122 122
0.970000 -0.170000 -0.200000 -0.000000 -0.707107 -0.707107 1.000000 0.000000 115 122 122
0.030000 0.200000 0.170000 0.000000 1.000000 -0.000000 0.000000 0.000000 115 122 122
0.970000 0.200000 0.170000 0.000000 1.000000 -0.000000 1.000000 0.000000 115 122 122
2.000000 0.170000 0.170000 0.707107 0.707106 -0.000000 0.000000 0.000000 115 122 122
2.000000 0.170000 -0.170000 0.707107 0.707106 -0.000000 1.000000 0.000000 115 122 122
0.970000 -0.170000 0.200000 -0.000000 0.000000 1.000000 0.000000 0.000000 115 122 122
0.970000 0.170000 0.200000 -0.000000 0.000000 1.000000 1.000000 0.000000 115 122 122
3.030000 0.170000 -0.200000 -0.707107 0.000000 -0.707106 0.000000 0.000000 115 122 122
3.030000 -0.170000 -0.200000 -0.707107 0.000000 -0.707106 1.000000 0.000000 115 122 122
2.030000 0.170000 0.200000 0.000000 0.707107 0.707107 0.000000 0.000000 115 122 122
2.970000 0.170000 0.200000 0.000000 0.707107 0.707107 1.000000 0.000000 115 122 122
2.970000 0.170000 0.200000 0.707107 -0.000000 0.707106 0.000000 0.000000 115 122 122
2.970000 -0.170000 0.200000 0.707107 -0.000000 0.707106 1.000000 0.000000 115 122 122
2.970000 -0.200000 0.170000 0.707107 -0.707106 0.000000 0.000000 0.000000 115 122 122
2.970000 -0.200000 -0.170000 0.707107 -0.707106 0.000000 1.000000 0.000000 115 122 122
3.970000 -0.170000 0.200000 0.000000 -0.707107 0.707107 0.000000 0.000000 115 122 122
3.030000 -0.170000 0.200000 0.000000 -0.707107 0.707107 1.000000 0.000000 115 122 122
3.030000 -0.170000 -0.200000 -0.000000 -0.707107 -0.707107 0.000000 0.000000 115 122 122
3.970000 -0.170000 -0.200000 -0.000000 -0.707107 -0.707107 1.000000 0.000000 115 122 122
3.970000 0.170000 0.200000 0.707107 -0.000000 0.707106 0.000000 0.000000 115 122 122
3.970000 -0.170000 0.200000 0.707107 -0.000000 0.707106 1.000000 0.000000 115 122 122
2.030000 -0.170000 -0.200000 -0.000000 -0.707107 -0.707107 0.000000 0.000000 115 122 122
2.970000 -0.170000 -0.200000 -0.000000 -0.707107 -0.707107 1.000000 0.000000 115 122 122
2.970000 -0.170000 0.200000 0.000000 -0.707107 0.707107 0.000000 0.000000 115 122 122
2.030000 -0.170000 0.200000 0.000000 -0.707107 0.707107 1.000000 0.000000 115 122 122
2.970000 0.170000 -0.200000 0.000000 0.707107 -0.707107 0.000000 0.000000 115 122 122
2.030000 0.170000 -0.200000 0.000000 0.707107 -0.707107 1.000000 0.000000 115 122 122
2.030000 0.170000 -0.200000 -0.707107 0.000000 -0.707106 0.000000 0.000000 115 122 122
2.030000 -0.170000 -0.200000 -0.707107 0.000000 -0.707106 1.000000 0.000000 115 122 122
2.030000 0.200000 0.170000 -0.707107 0.707106 0.000000 0.000000 0.000000 115 122 122
2.030000 0.200000 -0.170000 -0.707107 0.707106 0.000000 1.000000 0.000000 115 122 122
2.970000 -0.200000 0.170000 0.000000 -1.000000 0.000000 0.000000 0.000000 115 122 122
2.030000 -0.200000 0.170000 0.000000 -1.000000 0.000000 1.000000 0.000000 115 122 122
0.030000 -0.170000 -0.200000 -0.000000 -0.000000 -1.000000 0.000000 0.000000 115 122 122
0.030000 0.170000 -0.200000 -0.000000 -0.000000 -1.000000 1.000000 0.000000 115 122 122
2.030000 0.200000 0.170000 0.000000 1.000000 -0.000000 0.000000 0.000000 115 122 122
2.970000 0.200000 0.170000 0.000000 1.000000 -0.000000 1.000000 0.000000 115 122 122
2.970000 -0.170000 0.200000 -0.000000 0.000000 1.000000 0.000000 0.000000 115 122 122
2.970000 0.170000 0.200000 -0.000000 0.000000 1.000000 1.000000 0.000000 115 122 122
2.030000 -0.170000 -0.200000 -0.000000 -0.000000 -1.000000 0.000000 0.000000 115 122 122
2.030000 0.170000 -0.200000 -0.000000 -0.000000 -1.000000 1.000000 0.000000 115 122 122
1.030000 -0.170000 -0.200000 -0.000000 -0.707107 -0.707107 0.000000 0.000000 115 122 122
1.970000 -0.170000 -0.200000 -0.000000 -0.707107 -0.707107 1.000000 0.000000 115 122 122
1.970000 -0.170000 0.200000 0.000000 -0.707107 0.707107 0.000000 0.000000 115 122 122
1.030000 -0.170000 0.200000 0.000000 -0.707107 0.707107 1.000000 0.000000 115 122 122
1.970000 0.170000 -0.200000 0.000000 0.707107 -0.707107 0.000000 0.000000 115 122 122
1.030000 0.170000 -0.200000 0.000000 0.707107 -0.707107 1.000000 0.000000 115 122 122
1.030000 0.170000 0.200000 0.000000 0.707107 0.707107 0.000000 0.000000 115 122 122
1.970000 0.170000 0.200000 0.000000 0.707107 0.707107 1.000000 0.000000 115 122 122
1.030000 0.200000 0.170000 -0.707107 0.707106 0.000000 0.000000 0.000000 115 122 122
1.030000 0.200000 -0.170000 -0.707107 0.707106 0.000000 1.000000 0.000000 115 122 122
1.970000 -0.200000 0.170000 0.000000 -1.000000 0.000000 0.000000 0.000000 115 122 122
1.030000 -0.200000 0.170000 0.000000 -1.000000 0.000000 1.000000 0.000000 115 122 122
1.030000 0.200000 0.170000 0.000000 1.000000 -0.000000 0.000000 0.000000 115 122 122
1.970000 0.200000 0.170000 0.000000 1.000000 -0.000000 1.000000 0.000000 115 122 122
1.970000 -0.170000 0.200000 -0.000000 0.000000 1.000000 0.000000 0.000000 115 122 122
1.970000 0.170000 0.200000 -0.000000 0.000000 1.000000 1.000000 0.000000 115 122 122
1.030000 -0.170000 -0.200000 -0.000000 -0.000000 -1.000000 0.000000 0.000000 115 122 122
1.030000 0.170000 -0.200000 -0.000000 -0.000000 -1.000000 1.000000 0.000000 115 122 122
0.000000 -0.170000 0.170000 -1.000000 0.000000 0.000000 0.000000 0.000000 115 122 122
0.000000 0.170000 0.170000 -1.000000 0.000000 0.000000 1.000000 0.000000 115 122 122
0.970000 -0.170000 0.200000 0.000000 -0.707107 0.707107 0.000000 0.000000 115 122 122
0.030000 -0.170000 0.200000 0.000000 -0.707107 0.707107 1.000000 0.000000 115 122 122
0.970000 -0.200000 0.170000 0.707107 -0.707106 0.000000 0.000000 0.000000 115 122 122
0.970000 -0.200000 -0.170000 0.707107 -0.707106 0.000000 1.000000 0.000000 115 122 122
0.970000 0.170000 -0.200000 0.000000 0.707107 -0.707107 0.000000 0.000000 115 122 122
0.030000 0.170000 -0.200000 0.000000 0.707107 -0.707107 1.000000 0.000000 115 122 122
0.030000 0.170000 0.200000 0.000000 0.707107 0.707107 0.000000 0.000000 115 122 122
0.970000 0.170000 0.200000 0.000000 0.707107 0.707107 1.000000 0.000000 115 122 122
0.030000 0.170000 -0.200000 -0.707107 0.000000 -0.707107 0.000000 0.000000 115 122 122
0.030000 -0.170000 -0.200000 -0.707107 0.000000 -0.707107 1.000000 0.000000 115 122 122
0.030000 0.200000 0.170000 -0.707107 0.707107 0.000000 0.000000 0.000000 115 122 122
0.030000 0.200000 -0.170000 -0.707107 0.707107 0.000000 1.000000 0.000000 115 122 122
0.030000 -0.170000 0.200000 -0.707107 0.000000 0.707107 0.000000 0.000000 115 122 122
0.030000 0.170000 0.200000 -0.707107 0.000000 0.707107 1.000000 0.000000 115 122 122
0.030000 -0.200000 -0.170000 -0.707107 -0.707107 -0.000000 0.000000 0.000000 115 122 122
0.030000 -0.200000 0.170000 -0.707107 -0.707107 -0.000000 1.000000 0.000000 115 122 122
3.970000 -0.200000 0.170000 0.707107 -0.707106 0.000000 0.000000 0.000000 115 122 122
3.970000 -0.200000 -0.170000 0.707107 -0.707106 0.000000 1.000000 0.000000 115 122 122
0.970000 -0.200000 0.170000 0.000000 -1.000000 0.000000 0.000000 0.000000 115 122 122
0.030000 -0.200000 0.170000 0.000000 -1.000000 0.000000 1.000000 0.000000 115 122 122
3.030000 0.170000 0.200000 0.000000 0.707107 0.707107 0.000000 0.000000 115 122 122
3.970000 0.170000 0.200000 0.000000 0.707107 0.707107 1.000000 0.000000 115 122 122
1.000000 0.170000 0.170000 0.707107 0.707106 -0.000000 0.000000 0.000000 115 122 122
1.000000 0.170000 -0.170000 0.707107 0.707106 -0.000000 1.000000 0.000000 115 122 122
0.970000 0.170000 0.200000 0.707107 -0.000000 0.707106 0.000000 0.000000 115 122 122
0.970000 -0.170000 0.200000 0.707107 -0.000000 0.707106 1.000000 0.000000 115 122 122
0.970000 -0.170000 -0.200000 0.707107 0.000000 -0.707106 0.000000 0.000000 115 122 122
0.970000 0.170000 -0.200000 0.707107 0.000000 -0.707106 1.000000 0.000000 115 122 122
1.030000 -0.200000 -0.170000 -0.707107 -0.707106 -0.000000 0.000000 0.000000 115 122 122
1.030000 -0.200000 0.170000 -0.707107 -0.707106 -0.000000 1.000000 0.000000 115 122 122
1.030000 -0.170000 0.200000 -0.707107 0.000000 0.707106 0.000000 0.000000 115 122 122
1.030000 0.170000 0.200000 -0.707107 0.000000 0.707106 1.000000 0.000000 115 122 122
1.030000 0.170000 -0.200000 -0.707107 0.000000 -0.707106 0.000000 0.000000 115 122 122
1.030000 -0.170000 -0.200000 -0.707107 0.000000 -0.707106 1.000000 0.000000 115 122 122
1.970000 0.170000 0.200000 0.707107 -0.000000 0.707106 0.000000 0.000000 115 122 122
1.970000 -0.170000 0.200000 0.707107 -0.000000 0.707106 1.000000 0.000000 115 122 122
1.970000 -0.200000 0.170000 0.707107 -0.707106 0.000000 0.000000 0.000000 115 122 122
1.970000 -0.200000 -0.170000 0.707107 -0.707106 0.000000 1.000000 0.000000 115 122 122
1.970000 -0.170000 -0.200000 0.707107 0.000000 -0.707106 0.000000 0.000000 115 122 122
1.970000 0.170000 -0.200000 0.707107 0.000000 -0.707106 1.000000 0.000000 115 122 122
2.030000 -0.200000 -0.170000 -0.707107 -0.707106 -0.000000 0.000000 0.000000 115 122 122
2.030000 -0.200000 0.170000 -0.707107 -0.707106 -0.000000 1.000000 0.000000 115 122 122
2.030000 -0.170000 0.200000 -0.707107 0.000000 0.707106 0.000000 0.000000 115 122 122
2.030000 0.170000 0.200000 -0.707107 0.000000 0.707106 1.000000 0.000000 115 122 122
3.030000 0.200000 0.170000 -0.707107 0.707106 0.000000 0.000000 0.000000 115 122 122
3.030000 0.200000 -0.170000 -0.707107 0.707106 0.000000 1.000000 0.000000 115 122 122
3.030000 -0.170000 0.200000 -0.707107 0.000000 0.707106 0.000000 0.000000 115 122 122
3.030000 0.170000 0.200000 -0.707107 0.000000 0.707106 1.000000 0.000000 115 122 122
3.000000 0.170000 0.170000 0.707107 0.707106 -0.000000 0.000000 0.000000 115 122 122
3.000000 0.170000 -0.170000 0.707107 0.707106 -0.000000 1.000000 0.000000 115 122 122
3.970000 0.170000 -0.200000 0.000000 0.707107 -0.707107 0.000000 0.000000 115 122 122
3.030000 0.170000 -0.200000 0.000000 0.707107 -0.707107 1.000000 0.000000 115 122 122
3.970000 -0.170000 -0.200000 0.707107 0.000000 -0.707106 0.000000 0.000000 115 122 122
3.970000 0.170000 -0.200000 0.707107 0.000000 -0.707106 1.000000 0.000000 115 122 122
3.970000 -0.170000 0.200000 -0.000000 0.000000 1.000000 0.000000 0.000000 115 122 122
3.970000 0.170000 0.200000 -0.000000 0.000000 1.000000 1.000000 0.000000 115 122 122
3.030000 0.200000 0.170000 0.000000 1.000000 -0.000000 0.000000 0.000000 115 122 122
3.970000 0.200000 0.170000 0.000000 1.000000 -0.000000 1.000000 0.000000 115 122 122
2.970000 -0.170000 -0.200000 0.707107 0.000000 -0.707106 0.000000 0.000000 115 122 122
2.970000 0.170000 -0.200000 0.707107 0.000000 -0.707106 1.000000 0.000000 115 122 122
3.970000 -0.200000 0.170000 0.000000 -1.000000 0.000000 0.000000 0.000000 115 122 122
3.030000 -0.200000 0.170000 0.000000 -1.000000 0.000000 1.000000 0.000000 115 122 122
4.000000 0.170000 0.170000 0.707107 0.707106 -0.000000 0.000000 0.000000 115 122 122
4.000000 0.170000 -0.170000 0.707107 0.707106 -0.000000 1.000000 0.000000 115 122 122
3.030000 -0.170000 -0.200000 -0.000000 -0.000000 -1.000000 0.000000 0.000000 115 122 122
3.030000 0.170000 -0.200000 -0.000000 -0.000000 -1.000000 1.000000 0.000000 115 122 122
3.030000 -0.200000 -0.170000 -0.707107 -0.707106 -0.000000 0.000000 0.000000 115 122 122
3.030000 -0.200000 0.170000 -0.707107 -0.707106 -0.000000 1.000000 0.000000 115 122 122
4.000000 0.170000 -0.170000 1.000000 -0.000000 0.000000 0.000000 0.000000 115 122 122
4.000000 0.170000 0.170000 1.000000 -0.000000 0.000000 1.000000 0.000000 115 122 122
3 0 1 2
3 3 4 5
3 6 7 8
3 9 10 11
3 12 13 14
3 15 16 17
3 18 19 20
3 21 22 23
3 24 25 26
3 27 28 29
3 30 31 32
3 33 34 35
3 36 37 38
3 39 40 41
3 42 43 44
3 45 46 47
3 48 49 50
3 51 52 53
3 54 55 56
3 57 58 59
3 60 61 62
3 63 64 65
3 66 67 68
3 69 70 71
3 72 73 74
3 75 76 77
3 78 79 80
3 81 82 83
3 84 85 86
3 87 88 89
3 90 91 92
3 93 94 95
3 96 97 98
3 99 100 101
3 102 103 104
3 105 106 107
3 108 109 110
3 111 112 113
3 114 115 116
3 117 118 119
3 120 121 122
3 123 124 125
3 126 127 128
3 129 130 131
3 132 133 134
3 135 136 137
3 138 139 140
3 141 142 143
3 144 145 146
3 147 148 149
3 150 151 152
3 153 154 155
3 156 157 158
3 159 160 161
3 162 163 164
3 165 166 167
3 168 169 170
3 171 172 173
3 174 175 176
3 177 178 179
3 180 181 182
3 183 184 185
3 186 187 188
3 189 190 191
3 192 193 194
3 195 196 197
3 198 199 200
3 201 202 203
3 204 205 206
3 207 208 209
3 210 211 212
3 213 214 215
3 216 217 218
3 219 220 221
3 222 223 224
3 225 226 227
3 228 229 230
3 231 232 233
3 234 235 236
3 237 238 239
3 240 241 242
3 243 244 245
3 246 247 248
3 249 250 251
3 252 253 254
3 255 256 257
3 258 259 260
3 261 262 263
3 264 265 266
3 267 268 269
3 270 271 272
3 273 274 275
3 276 277 278
3 279 280 281
3 282 283 284
3 285 286 287
3 288 289 290
3 291 292 293
3 294 295 5
3 296 297 11
3 298 299 17
3 300 301 20
3 302 303 26
3 304 305 41
3 306 307 53
3 308 309 56
3 310 311 59
3 312 313 62
3 314 315 65
3 316 317 71
3 318 319 74
3 320 321 77
3 322 323 80
3 324 325 83
3 326 327 95
3 328 329 98
3 330 331 101
3 332 333 104
3 334 335 107
3 336 337 110
3 338 339 113
3 340 341 116
3 342 343 119
3 344 345 122
3 346 347 134
3 348 349 137
3 350 351 140
3 352 353 143
3 354 355 146
3 356 357 149
3 358 359 152
3 360 361 155
3 362 363 158
3 364 365 161
3 366 367 164
3 368 369 167
3 370 371 170
3 372 373 176
3 374 375 179
3 376 377 182
3 378 379 194
3 380 381 197
3 382 383 200
3 384 385 212
3 386 387 215
3 388 389 218
3 390 391 221
3 392 393 224
3 394 395 227
3 396 397 236
3 398 399 239
3 400 401 242
3 402 403 245
3 404 405 254
3 406 407 260
3 408 409 266
3 410 411 269
3 412 413 275
3 414 415 278
3 416 417 281
3 418 419 284
3 420 421 287
3 422 423 290
3 424 425 293
