# Blender v2.73 (sub 0) OBJ File: 'newWork2_THEROCK_GameExport.blend'
# www.blender.org
mtllib st_rock.mtl
o Rock.002_Icosphere.001
v -0.003987 0.030844 0.004795
v 0.473716 0.234102 0.387290
v -0.160759 0.282668 0.501886
v -0.580439 0.265114 -0.012588
v -0.197333 0.219385 -0.572092
v 0.449729 0.235147 -0.325950
v 0.138090 0.778221 0.532160
v -0.467260 0.777018 0.345796
v -0.394232 0.719130 -0.257166
v 0.113668 0.742581 -0.437646
v 0.501378 0.771299 0.022216
v -0.048029 0.973763 0.039126
vt 0.998999 0.748999
vt 0.998999 0.502002
vt 0.668669 0.748999
vt 0.332332 0.002002
vt 0.332332 0.248999
vt 0.002002 0.248999
vt 0.998999 0.248999
vt 0.668669 0.248999
vt 0.998999 0.002002
vt 0.998999 0.498999
vt 0.668669 0.498999
vt 0.998999 0.252002
vt 0.665666 0.748999
vt 0.665666 0.502002
vt 0.335335 0.748999
vt 0.001001 0.247998
vt 0.331331 0.001001
vt 0.001001 0.001001
vt 0.667668 0.501001
vt 0.667668 0.747998
vt 0.997998 0.501001
vt 0.665666 0.252002
vt 0.335335 0.498999
vt 0.665666 0.498999
vt 0.332332 0.502002
vt 0.002002 0.748999
vt 0.332332 0.748999
vt 0.664665 0.501001
vt 0.334334 0.747998
vt 0.334334 0.501001
vt 0.667668 0.497998
vt 0.667668 0.251001
vt 0.997998 0.251001
vt 0.667668 0.001001
vt 0.997998 0.001001
vt 0.667668 0.247998
vt 0.335335 0.248999
vt 0.665666 0.002002
vt 0.665666 0.248999
vt 0.001001 0.747998
vt 0.001001 0.501001
vt 0.331331 0.501001
vt 0.334334 0.497998
vt 0.334334 0.251001
vt 0.664665 0.251001
vt 0.002002 0.998999
vt 0.332332 0.752002
vt 0.332332 0.998999
vt 0.664665 0.001001
vt 0.334334 0.247998
vt 0.334334 0.001001
vt 0.002002 0.498999
vt 0.332332 0.252002
vt 0.332332 0.498999
vt 0.001001 0.497998
vt 0.001001 0.251001
vt 0.331331 0.251001
vt 0.001001 0.997998
vt 0.331331 0.751001
vt 0.001001 0.751001
vn 0.014100 -0.890200 0.455400
vn 0.401500 -0.915700 -0.014800
vn -0.364300 -0.872000 0.326900
vn -0.366100 -0.913800 -0.176000
vn 0.157100 -0.922000 -0.354000
vn 0.996700 -0.074200 -0.033600
vn 0.163800 -0.158200 0.973700
vn -0.742400 -0.266200 0.614700
vn -0.823400 0.032600 -0.566500
vn 0.354800 0.029300 -0.934500
vn 0.770800 0.330400 0.544600
vn -0.292400 0.118400 0.948900
vn -0.940400 0.308400 -0.143500
vn -0.322100 0.410600 -0.853000
vn 0.710300 0.334000 -0.619700
vn 0.342600 0.910400 0.231700
vn -0.127000 0.904700 0.406700
vn -0.504200 0.851700 -0.142800
vn -0.211000 0.849500 -0.483500
vn 0.318300 0.890900 -0.324000
usemtl Rock.001
s off
f 1/1/1 2/2/1 3/3/1
f 2/4/2 1/5/2 6/6/2
f 1/7/3 3/8/3 4/9/3
f 1/10/4 4/11/4 5/12/4
f 1/13/5 5/14/5 6/15/5
f 2/16/6 6/17/6 11/18/6
f 3/19/7 2/20/7 7/21/7
f 4/22/8 3/23/8 8/24/8
f 5/25/9 4/26/9 9/27/9
f 6/28/10 5/29/10 10/30/10
f 2/31/11 11/32/11 7/33/11
f 3/34/12 7/35/12 8/36/12
f 4/37/13 8/38/13 9/39/13
f 5/40/14 9/41/14 10/42/14
f 6/43/15 10/44/15 11/45/15
f 7/46/16 11/47/16 12/48/16
f 8/49/17 7/50/17 12/51/17
f 9/52/18 8/53/18 12/54/18
f 10/55/19 9/56/19 12/57/19
f 11/58/20 10/59/20 12/60/20
