# Blender v2.71 (sub 0) OBJ File: ''
# www.blender.org
mtllib teapot_test.mtl
o Cube
v 1.000000 -1.000000 1.000000
v -1.000000 -1.000000 1.000000
v -1.000000 -1.000000 -1.000000
v -1.000000 1.000000 -1.000000
v -1.000000 1.000000 1.000000
v 0.999999 1.000000 1.000001
v 1.000000 -1.000000 -1.000000
v 1.000000 1.000000 -0.999999
vt 0.000000 -1.000000
vt -1.000000 -1.000000
vt -1.000000 0.000000
vt 2.000000 -0.000000
vt 2.000000 -1.000000
vt 1.000000 -1.000000
vt 0.000000 0.000000
vt 1.000000 -0.000000
vt 0.000000 -2.000000
vt -1.000000 -2.000000
vt -2.000000 -1.000000
vt -2.000000 0.000000
vt -1.000000 1.000000
vt 0.000000 1.000000
vn 0.000000 -1.000000 -0.000000
vn -0.000000 1.000000 0.000000
vn 1.000000 0.000000 0.000000
vn -0.000000 -0.000000 1.000000
vn -1.000000 -0.000000 0.000000
vn 0.000000 0.000000 -1.000000
usemtl None
s off
f 1/1/1 2/2/1 3/3/1
f 4/4/2 5/5/2 6/6/2
f 7/7/3 8/8/3 6/6/3
f 1/1/4 6/9/4 5/10/4
f 5/11/5 4/12/5 3/3/5
f 7/7/6 3/3/6 4/13/6
f 7/7/1 1/1/1 3/3/1
f 8/8/2 4/4/2 6/6/2
f 1/1/3 7/7/3 6/6/3
f 2/2/4 1/1/4 5/10/4
f 2/2/5 5/11/5 3/3/5
f 8/14/6 7/7/6 4/13/6
