# Blender v2.73 (sub 0) OBJ File: '1x1_cube.blend'
# www.blender.org
mtllib treetop2.mtl
v -0.110402 0.486990 -0.127206
v 0.545714 -0.119085 0.572172
v -0.240223 -0.055826 0.805166
v -0.787908 -0.147014 -0.063814
v -0.385907 -0.247904 -0.738932
v 0.527074 -0.046248 -0.511396
v 0.183853 1.018280 0.765779
v -0.688905 0.867848 0.343189
v -0.541323 0.930676 -0.393271
v 0.156713 1.196609 -0.592848
v 0.720042 0.956770 0.000958
v -0.002634 1.790031 0.039544
v -0.213751 -0.217145 0.495073
v 0.411698 -0.298193 0.265381
v 0.243361 -0.208364 0.737960
v 0.713362 -0.173324 0.150146
v 0.356130 0.105946 -0.284718
v -0.496456 -0.302837 0.003919
v -0.681684 -0.271532 0.381290
v -0.406182 -0.100534 -0.561035
v -0.577185 -0.312375 -0.483530
v 0.140844 0.022165 -0.776820
v 0.747107 0.485152 0.269948
v 0.691067 0.522830 -0.323030
v 0.071757 0.406876 0.890447
v 0.440919 0.540238 0.711708
v -0.851489 0.486743 0.312353
v -0.423619 0.350694 0.579776
v -0.520165 0.406352 -0.635916
v -0.665690 0.343755 -0.151668
v 0.476240 0.743723 -0.686416
v -0.012829 0.586746 -0.751844
v 0.536445 1.271137 0.488258
v -0.302429 0.941610 0.735385
v -0.687435 1.048246 -0.029824
v -0.327262 1.165646 -0.683238
v 0.560186 1.145691 -0.347889
v 0.091212 1.559711 0.409100
v 0.480937 1.488675 0.082117
v -0.354760 1.427564 0.338320
v -0.379285 1.453526 -0.203832
v 0.165498 1.711083 -0.433151
vt 1.638344 1.570032
vt 1.406250 2.281250
vt 1.000000 1.562500
vt -1.031250 0.968750
vt -1.218750 0.593750
vt -0.881638 0.622241
vt 1.312500 1.062500
vt 2.000000 1.093750
vt 2.000000 1.843750
vt -0.453989 1.014577
vt 1.852637 -0.530393
vt 2.132685 -0.776123
vt 2.211191 -0.281595
vt 1.000000 -0.437500
vt 1.387729 -0.508327
vt 1.393093 0.006847
vt -0.244602 -0.541987
vt -0.222192 -0.829035
vt 0.228162 -0.484517
vt -0.577099 0.211981
vt -0.396833 -0.130709
vt -0.040171 0.308762
vt -0.531250 1.406250
vt 1.761308 -0.177971
vt 1.000000 0.062500
vt 0.069034 -0.075185
vt -0.303062 0.576828
vt 2.428557 0.168943
vt 2.781250 0.406250
vt 2.369677 0.694018
vt 1.641587 0.258678
vt 2.050636 0.180709
vt 1.965934 0.637940
vt 1.156250 0.656250
vt 1.453667 0.527342
vt 1.625000 0.937500
vt 0.368965 0.294726
vt 0.563933 -0.020942
vt 0.683264 0.499671
vt -0.011329 0.921742
vt 0.204841 0.645331
vt 0.500000 0.968750
vt 1.000000 0.656250
vt 1.000000 0.125000
vt 0.687500 -0.343750
vt 2.156250 1.062500
vt 2.781250 0.906250
vt 0.250000 1.343750
vt 2.562500 -0.312500
vt 0.375000 -0.875000
vt -0.062500 -1.187500
vt 2.406250 -0.875000
vt -0.843750 0.062500
vt -0.468750 -0.625000
vt -0.437500 -1.187500
vt 1.156250 -0.750000
vt 1.687500 -0.812500
vt 2.156250 -1.187500
vn -0.344200 -0.592900 -0.728000
vn 0.458500 -0.840000 0.290100
vn 0.803300 -0.456200 -0.382800
vn 0.897400 -0.441000 -0.014500
vn -0.156200 -0.534600 0.830500
vn 0.917900 -0.116100 0.379500
vn 0.064800 -0.223000 0.972700
vn -0.964200 -0.200100 0.174100
vn -0.790500 -0.066400 -0.608800
vn 0.542100 -0.148400 -0.827100
vn 0.822400 0.010400 0.568800
vn -0.536400 0.211100 0.817100
vn -0.900700 0.151400 -0.407300
vn -0.255000 0.099100 -0.961800
vn 0.841300 -0.064800 -0.536700
vn 0.223100 0.562600 0.796100
vn -0.685900 0.414700 0.597900
vn -0.793000 0.409300 -0.451200
vn 0.157700 0.290300 -0.943900
vn 0.887500 0.425800 -0.176100
vn 0.525500 0.849600 0.045000
vn 0.808300 0.523800 -0.268800
vn 0.525600 0.244000 -0.815000
vn -0.510800 0.799800 -0.315300
vn -0.531700 0.699400 -0.477700
vn -0.863500 0.385400 -0.325200
vn -0.688100 0.722600 0.065700
vn -0.780700 0.621500 0.065100
vn -0.833000 0.499400 0.238200
vn -0.315900 0.767100 0.558300
vn -0.293500 0.585700 0.755500
vn -0.135700 0.528700 0.837900
vn 0.464800 0.799600 0.380300
vn 0.458000 0.808200 0.370300
vn 0.913500 0.397200 0.087900
vn 0.927500 0.181900 -0.326500
vn 0.890100 0.170200 -0.422800
vn 0.495400 0.496700 -0.712700
vn 0.167000 0.205000 -0.964400
vn -0.221200 -0.004600 -0.975200
vn -0.856700 0.187700 -0.480400
vn -0.922900 0.037800 -0.383200
vn -0.923700 0.037500 -0.381400
vn -0.910300 0.374000 0.177300
vn -0.707900 -0.040500 0.705200
vn -0.518100 -0.116900 0.847300
vn -0.094700 0.215500 0.971900
vn 0.521700 0.186300 0.832600
vn 0.823900 0.064400 0.563000
vn 0.952900 0.189700 0.236700
vn 0.053300 0.238000 -0.969800
vn 0.109000 0.073500 -0.991300
vn -0.082700 0.021600 -0.996300
vn -0.957000 0.089100 -0.276100
vn -0.958100 0.015400 -0.285900
vn -0.865000 0.128600 -0.485000
vn -0.492200 0.140500 0.859000
vn -0.539600 -0.044400 0.840800
vn -0.708400 0.069800 0.702300
vn 0.399900 0.112200 0.909700
vn 0.460300 -0.090500 0.883100
vn 0.501300 -0.102200 0.859200
vn 0.995600 0.003600 -0.093900
vn 0.994800 -0.033500 -0.096100
vn 0.939100 -0.172100 -0.297500
vn -0.368500 -0.876300 0.310400
vn 0.240800 -0.968700 0.059600
vn 0.395100 -0.684800 0.612300
vn 0.765600 -0.449800 0.459900
vn 0.752800 -0.648700 -0.112000
vn -0.486800 -0.868100 0.097600
vn -0.440600 -0.886300 -0.142800
vn 0.084800 -0.988700 0.123700
vn -0.008900 -0.887400 0.460900
vn -0.640000 -0.767700 0.032800
vn 0.102300 -0.796700 -0.595600
vn -0.656800 -0.637800 -0.402300
vn -0.215000 -0.873800 0.436200
vn -0.067700 -0.984300 0.163000
vn 0.422500 -0.850900 0.312200
usemtl None
s off
f 1/1/1 14/2/1 13/3/1
f 2/4/2 14/5/2 16/6/2
f 1/1/3 13/3/3 18/7/3
f 1/1/4 18/7/4 20/8/4
f 1/1/5 20/8/5 17/9/5
f 2/4/6 16/6/6 23/10/6
f 3/11/7 15/12/7 25/13/7
f 4/14/8 19/15/8 27/16/8
f 5/17/9 21/18/9 29/19/9
f 6/20/10 22/21/10 31/22/10
f 2/4/11 23/10/11 26/23/11
f 3/11/12 25/13/12 28/24/12
f 4/14/13 27/16/13 30/25/13
f 5/17/14 29/19/14 32/26/14
f 6/20/15 31/22/15 24/27/15
f 7/28/16 33/29/16 38/30/16
f 8/31/17 34/32/17 40/33/17
f 9/34/18 35/35/18 41/36/18
f 10/37/19 36/38/19 42/39/19
f 11/40/20 37/41/20 39/42/20
f 39/42/21 42/39/21 12/43/21
f 39/42/22 37/41/22 42/39/22
f 37/41/23 10/37/23 42/39/23
f 42/39/24 41/44/24 12/43/24
f 42/39/25 36/38/25 41/44/25
f 36/38/26 9/45/26 41/44/26
f 41/36/27 40/33/27 12/46/27
f 41/36/28 35/35/28 40/33/28
f 35/35/29 8/31/29 40/33/29
f 40/33/30 38/30/30 12/46/30
f 40/33/31 34/32/31 38/30/31
f 34/32/32 7/28/32 38/30/32
f 38/30/33 39/47/33 12/46/33
f 38/30/34 33/29/34 39/47/34
f 33/48/35 11/40/35 39/42/35
f 24/27/36 37/41/36 11/40/36
f 24/27/37 31/22/37 37/41/37
f 31/22/38 10/37/38 37/41/38
f 32/26/39 36/38/39 10/37/39
f 32/26/40 29/19/40 36/38/40
f 29/19/41 9/45/41 36/38/41
f 30/25/42 35/35/42 9/34/42
f 30/25/43 27/16/43 35/35/43
f 27/16/44 8/31/44 35/35/44
f 28/24/45 34/32/45 8/31/45
f 28/24/46 25/13/46 34/32/46
f 25/13/47 7/28/47 34/32/47
f 26/49/48 33/29/48 7/28/48
f 26/23/49 23/10/49 33/48/49
f 23/10/50 11/40/50 33/48/50
f 31/22/51 32/26/51 10/37/51
f 31/22/52 22/21/52 32/26/52
f 22/21/53 5/17/53 32/26/53
f 29/19/54 30/50/54 9/45/54
f 29/19/55 21/18/55 30/50/55
f 21/18/56 4/51/56 30/50/56
f 27/16/57 28/24/57 8/31/57
f 27/16/58 19/15/58 28/24/58
f 19/15/59 3/11/59 28/24/59
f 25/13/60 26/49/60 7/28/60
f 25/13/61 15/12/61 26/49/61
f 15/12/62 2/52/62 26/49/62
f 23/10/63 24/27/63 11/40/63
f 23/10/64 16/6/64 24/27/64
f 16/6/65 6/20/65 24/27/65
f 17/53/66 22/21/66 6/20/66
f 17/53/67 20/54/67 22/21/67
f 20/54/68 5/17/68 22/21/68
f 20/54/69 21/18/69 5/17/69
f 20/54/70 18/55/70 21/18/70
f 18/55/71 4/51/71 21/18/71
f 18/56/72 19/15/72 4/14/72
f 18/56/73 13/57/73 19/15/73
f 13/57/74 3/11/74 19/15/74
f 16/6/75 17/53/75 6/20/75
f 16/6/76 14/5/76 17/53/76
f 14/2/77 1/1/77 17/9/77
f 13/57/78 15/12/78 3/11/78
f 13/57/79 14/58/79 15/12/79
f 14/58/80 2/52/80 15/12/80
