ply
format ascii 1.0
comment Created by Blender 2.73 (sub 0) - www.blender.org, source file: 'tiling.blend'
element vertex 422
property float x
property float y
property float z
property float nx
property float ny
property float nz
property float s
property float t
property uchar red
property uchar green
property uchar blue
element face 204
property list uchar uint vertex_indices
end_header
12.400001 5.450000 0.100000 0.000000 0.000000 -1.000000 0.502691 0.143032 102 68 27
12.500000 5.450000 0.100000 0.000000 0.000000 -1.000000 0.481919 0.142869 102 68 27
12.500000 5.400000 0.100000 0.000000 0.000000 -1.000000 0.480247 0.129810 102 68 27
13.200000 5.400000 0.800000 0.707107 0.000000 -0.707107 0.287611 0.235836 102 68 27
12.500000 5.400000 0.100000 0.707107 0.000000 -0.707107 0.480247 0.129810 102 68 27
12.500000 5.450000 0.100000 0.707107 0.000000 -0.707107 0.481919 0.142869 102 68 27
12.400001 5.450000 0.200000 -1.000000 0.000000 0.000000 0.504874 0.168305 102 68 27
12.400001 5.450000 0.100000 -1.000000 0.000000 0.000000 0.502691 0.143032 102 68 27
12.400001 5.400000 0.100000 -1.000000 0.000000 0.000000 0.519886 0.129810 102 68 27
12.500000 4.550000 0.900000 -0.000000 -1.000000 0.000000 0.040807 0.146295 102 68 27
12.400001 4.550000 0.800000 -0.000000 -1.000000 0.000000 0.019220 0.119546 102 68 27
13.200000 4.550000 0.200000 -0.000000 -1.000000 0.000000 0.233841 0.052999 102 68 27
13.250000 4.700000 0.900000 1.000000 0.000000 -0.000000 0.265477 0.818212 102 68 27
13.250000 4.600000 0.800000 1.000000 0.000000 -0.000000 0.235135 0.818037 102 68 27
13.250000 5.400000 0.200000 1.000000 0.000000 -0.000000 0.265371 0.606902 102 68 27
12.400001 5.400000 0.800000 0.000000 0.707107 -0.707107 0.524451 0.901370 102 68 27
12.400001 4.700000 0.100000 0.000000 0.707107 -0.707107 0.296348 0.901370 102 68 27
12.350000 4.700000 0.100000 0.000000 0.707107 -0.707107 0.306328 0.889005 102 68 27
12.350000 5.400000 0.900000 0.000000 -0.000000 1.000000 0.530156 0.873428 102 68 27
12.350000 5.300000 0.900000 0.000000 -0.000000 1.000000 0.517815 0.858557 102 68 27
12.400001 5.300000 0.900000 0.000000 -0.000000 1.000000 0.527795 0.846191 102 68 27
12.400001 5.400000 0.900000 0.000000 1.000000 0.000000 0.545633 0.876068 102 68 27
12.400001 5.400000 0.800000 0.000000 1.000000 0.000000 0.524451 0.901370 102 68 27
12.350000 5.400000 0.800000 0.000000 1.000000 0.000000 0.517640 0.888898 102 68 27
12.350000 5.300000 0.900000 0.000000 -0.707107 0.707107 0.517815 0.858557 102 68 27
12.350000 4.600000 0.200000 0.000000 -0.707107 0.707107 0.306503 0.858663 102 68 27
12.400001 4.600000 0.200000 0.000000 -0.707107 0.707107 0.299692 0.846190 102 68 27
12.350000 5.300000 0.900000 -1.000000 0.000000 0.000000 0.517815 0.858557 102 68 27
12.350000 5.400000 0.800000 -1.000000 0.000000 0.000000 0.517640 0.888898 102 68 27
12.350000 4.600000 0.200000 -1.000000 0.000000 0.000000 0.306503 0.858663 102 68 27
12.400001 4.600000 0.800000 -0.707107 0.000000 -0.707107 0.000333 0.111400 102 68 27
13.100000 4.600000 0.100000 -0.707107 0.000000 -0.707107 0.253903 0.000333 102 68 27
13.100000 4.550000 0.100000 -0.707107 0.000000 -0.707107 0.234243 0.023080 102 68 27
13.200000 4.600000 0.800000 -0.000000 -0.707107 -0.707107 0.222663 0.824848 102 68 27
13.200001 5.300000 0.100000 -0.000000 -0.707107 -0.707107 0.222663 0.596747 102 68 27
13.250000 5.300000 0.100000 -0.000000 -0.707107 -0.707107 0.235029 0.606727 102 68 27
13.250000 4.700000 0.900000 -0.000000 0.707107 0.707107 0.265477 0.818212 102 68 27
13.250000 5.400000 0.200000 -0.000000 0.707107 0.707107 0.265371 0.606902 102 68 27
13.200000 5.400000 0.200000 -0.000000 0.707107 0.707107 0.277843 0.600091 102 68 27
12.300000 5.500000 0.000000 -1.000000 0.000000 0.000000 0.798509 0.000333 102 68 27
12.300000 5.400000 0.100000 -1.000000 0.000000 0.000000 0.777594 0.020891 102 68 27
12.300000 5.400000 0.900000 -1.000000 0.000000 0.000000 0.575356 0.024817 102 68 27
13.300000 5.500000 0.000000 1.000000 -0.000000 0.000000 0.536823 0.585819 102 68 27
13.300000 5.500000 1.000000 1.000000 -0.000000 0.000000 0.536823 0.845524 102 68 27
13.300000 5.400000 0.900000 1.000000 -0.000000 0.000000 0.512434 0.821500 102 68 27
13.100000 5.400000 0.950000 0.000000 1.000000 -0.000000 0.257341 0.280609 102 68 27
13.200001 5.400000 0.950000 0.000000 1.000000 -0.000000 0.264285 0.256621 102 68 27
13.200001 5.400000 0.900000 0.000000 1.000000 -0.000000 0.274746 0.254195 102 68 27
12.500000 4.600000 0.900000 0.707106 -0.707107 0.000000 0.043278 0.159306 102 68 27
13.200001 5.300000 0.900000 0.707106 -0.707107 0.000000 0.258415 0.238244 102 68 27
13.200001 5.300000 0.950000 0.707106 -0.707107 0.000000 0.252058 0.247207 102 68 27
13.200001 5.400000 0.950000 1.000000 0.000000 0.000000 0.264285 0.256621 102 68 27
13.200001 5.300000 0.950000 1.000000 0.000000 0.000000 0.252058 0.247207 102 68 27
13.200001 5.300000 0.900000 1.000000 0.000000 0.000000 0.258415 0.238244 102 68 27
12.400001 4.700000 0.950000 -0.707107 0.707107 0.000000 0.022116 0.205185 102 68 27
13.100000 5.400000 0.950000 -0.707107 0.707107 0.000000 0.257341 0.280609 102 68 27
13.100000 5.400000 0.900000 -0.707107 0.707107 0.000000 0.274586 0.302147 102 68 27
13.200000 4.599999 1.000000 0.000001 1.000000 -0.000000 0.579138 0.606230 102 68 27
13.200000 4.599999 0.900000 0.000001 1.000000 -0.000000 0.606499 0.627086 102 68 27
12.400001 4.600000 0.900000 0.000001 1.000000 -0.000000 0.594389 0.791370 102 68 27
12.300000 4.500000 1.000000 -0.000000 -0.000001 1.000000 0.553435 0.832675 102 68 27
13.300000 4.500000 1.000000 -0.000000 -0.000001 1.000000 0.553435 0.580668 102 68 27
13.200000 4.599999 1.000000 -0.000000 -0.000001 1.000000 0.579138 0.606230 102 68 27
13.200000 4.600000 0.050000 1.000000 0.000000 0.000000 0.263326 0.042033 102 68 27
13.200000 4.700000 0.050000 1.000000 0.000000 0.000000 0.274965 0.051035 102 68 27
13.200000 4.700000 0.100000 1.000000 0.000000 0.000000 0.268923 0.059692 102 68 27
12.300000 4.500000 0.000000 -0.000000 -0.000000 -1.000000 0.558518 0.318798 102 68 27
12.300000 5.500000 0.000000 -0.000000 -0.000000 -1.000000 0.815099 0.302814 102 68 27
12.400000 5.400000 0.000000 -0.000000 -0.000000 -1.000000 0.791714 0.328789 102 68 27
13.200001 5.400000 0.900000 -0.000000 1.000000 0.000001 0.799176 0.180683 102 68 27
13.200001 5.400000 0.100000 -0.000000 1.000000 0.000001 0.799176 0.000333 102 68 27
12.400001 5.400000 0.100000 -0.000000 1.000000 0.000001 0.979526 0.000333 102 68 27
13.200001 5.500000 0.100000 0.000000 0.000000 1.000000 0.057270 0.328710 102 68 27
12.400001 5.500000 0.100000 0.000000 0.000000 1.000000 0.257665 0.341357 102 68 27
12.400001 5.400000 0.100000 0.000000 0.000000 1.000000 0.239433 0.358140 102 68 27
13.200000 4.700000 0.050000 -0.000000 -0.000000 -1.000000 0.274965 0.051035 102 68 27
13.100000 4.600000 0.050000 -0.000000 -0.000000 -1.000000 0.270182 0.018230 102 68 27
12.500000 5.400000 0.050000 -0.000000 -0.000000 -1.000000 0.481396 0.116653 102 68 27
13.300000 5.500000 0.000000 0.000000 1.000000 0.000000 0.036931 0.302814 102 68 27
13.200001 5.500000 0.100000 0.000000 1.000000 0.000000 0.057270 0.328710 102 68 27
13.200001 5.500000 0.900000 0.000000 1.000000 0.000000 0.031188 0.549839 102 68 27
12.300000 5.500000 0.000000 0.000000 1.000000 0.000000 0.277843 0.322781 102 68 27
12.300000 5.500000 1.000000 0.000000 1.000000 0.000000 0.277843 0.564520 102 68 27
12.400001 5.500000 0.900000 0.000000 1.000000 0.000000 0.253715 0.542111 102 68 27
13.200001 5.500000 0.900000 -1.000000 0.000000 0.000000 0.031188 0.549839 102 68 27
13.200001 5.500000 0.100000 -1.000000 0.000000 0.000000 0.057270 0.328710 102 68 27
13.200001 5.400000 0.100000 -1.000000 0.000000 0.000000 0.076684 0.357520 102 68 27
13.200001 5.500000 0.900000 0.000000 -0.000001 -1.000000 0.031188 0.549839 102 68 27
13.200001 5.400000 0.900000 0.000000 -0.000001 -1.000000 0.065924 0.517862 102 68 27
12.400001 5.400000 0.900000 0.000000 -0.000001 -1.000000 0.226608 0.520384 102 68 27
12.400001 5.500000 0.900000 1.000000 0.000000 0.000000 0.253715 0.542111 102 68 27
12.400001 5.400000 0.900000 1.000000 0.000000 0.000000 0.226608 0.520384 102 68 27
12.400001 5.400000 0.100000 1.000000 0.000000 0.000000 0.239433 0.358140 102 68 27
13.100000 5.450000 0.900000 -0.707107 0.000000 0.707107 0.295614 0.276855 102 68 27
12.400001 5.450000 0.200000 -0.707107 0.000000 0.707107 0.504874 0.168305 102 68 27
12.400001 5.400000 0.200000 -0.707107 0.000000 0.707107 0.522141 0.175869 102 68 27
13.200000 5.450000 0.900000 1.000000 0.000019 -0.000010 0.284057 0.256436 102 68 27
13.200001 5.400000 0.900000 1.000000 0.000019 -0.000010 0.274746 0.254195 102 68 27
13.200000 5.400000 0.800000 1.000000 0.000019 -0.000010 0.287611 0.235836 102 68 27
13.200000 5.450000 0.900000 -0.000000 0.000002 1.000000 0.284057 0.256436 102 68 27
13.100000 5.450000 0.900000 -0.000000 0.000002 1.000000 0.295614 0.276855 102 68 27
13.100000 5.400000 0.900000 -0.000000 0.000002 1.000000 0.274586 0.302147 102 68 27
12.350000 4.600000 0.200000 -0.000000 -1.000000 0.000000 0.306503 0.858663 102 68 27
12.350000 4.600000 0.100000 -0.000000 -1.000000 0.000000 0.293987 0.874133 102 68 27
12.400001 4.600000 0.100000 -0.000000 -1.000000 0.000000 0.278510 0.871493 102 68 27
12.350000 4.600000 0.100000 -0.000000 -0.000000 -1.000000 0.293987 0.874133 102 68 27
12.350000 4.700000 0.100000 -0.000000 -0.000000 -1.000000 0.306328 0.889005 102 68 27
12.400001 4.700000 0.100000 -0.000000 -0.000000 -1.000000 0.296348 0.901370 102 68 27
12.300000 4.600000 0.900000 0.000000 1.000000 -0.000000 0.551095 0.235743 102 68 27
12.400001 4.600000 0.900000 0.000000 1.000000 -0.000000 0.584814 0.204827 102 68 27
12.400001 4.600000 0.100000 0.000000 1.000000 -0.000000 0.744761 0.210252 102 68 27
12.300000 4.600000 0.900000 -0.000000 -0.000000 -1.000000 0.551095 0.235743 102 68 27
12.300000 5.400000 0.900000 -0.000000 -0.000000 -1.000000 0.575356 0.024817 102 68 27
12.400001 5.400000 0.900000 -0.000000 -0.000000 -1.000000 0.592678 0.043319 102 68 27
12.300000 5.400000 0.100000 -0.000000 -1.000000 -0.000000 0.777594 0.020891 102 68 27
12.400001 5.400000 0.100000 -0.000000 -1.000000 -0.000000 0.756097 0.048565 102 68 27
12.400001 5.400000 0.900000 -0.000000 -1.000000 -0.000000 0.592678 0.043319 102 68 27
12.300000 4.500000 1.000000 -1.000000 0.000000 0.000000 0.523447 0.259416 102 68 27
12.300000 4.600000 0.900000 -1.000000 0.000000 0.000000 0.551095 0.235743 102 68 27
12.300000 4.600000 0.100000 -1.000000 0.000000 0.000000 0.772165 0.232332 102 68 27
12.400001 4.700000 0.950000 0.000000 -0.000001 1.000000 0.022116 0.205185 102 68 27
13.200001 5.300000 0.950000 0.000000 -0.000001 1.000000 0.252058 0.247207 102 68 27
13.100000 5.400000 0.950000 0.000000 -0.000001 1.000000 0.257341 0.280609 102 68 27
12.300000 4.600000 0.100000 -0.000001 0.000000 1.000000 0.772165 0.232332 102 68 27
12.400001 4.600000 0.100000 -0.000001 0.000000 1.000000 0.744761 0.210252 102 68 27
12.400001 5.400000 0.100000 -0.000001 0.000000 1.000000 0.756097 0.048565 102 68 27
12.400001 5.400000 0.900000 -1.000000 0.000000 0.000000 0.996116 0.302814 102 68 27
12.400001 5.400000 0.100000 -1.000000 0.000000 0.000000 0.996116 0.483163 102 68 27
12.400001 4.600000 0.100000 -1.000000 0.000000 0.000000 0.815766 0.483163 102 68 27
13.200000 4.600000 0.200000 1.000000 0.000000 0.000000 0.240788 0.060815 102 68 27
13.200000 4.550000 0.200000 1.000000 0.000000 0.000000 0.233841 0.052999 102 68 27
13.200000 4.550000 0.100000 1.000000 0.000000 0.000000 0.244718 0.042270 102 68 27
13.200000 4.550000 0.100000 0.000000 0.000000 -1.000000 0.244718 0.042270 102 68 27
13.100000 4.550000 0.100000 0.000000 0.000000 -1.000000 0.234243 0.023080 102 68 27
13.100000 4.600000 0.100000 0.000000 0.000000 -1.000000 0.253903 0.000333 102 68 27
12.400001 4.600000 0.900000 0.000000 0.000002 1.000000 0.002426 0.164113 102 68 27
12.400001 4.550000 0.900000 0.000000 0.000002 1.000000 0.021670 0.144341 102 68 27
12.500000 4.550000 0.900000 0.000000 0.000002 1.000000 0.040807 0.146295 102 68 27
12.400001 4.600000 0.900000 -1.000000 0.000000 0.000000 0.002426 0.164113 102 68 27
12.400001 4.600000 0.800000 -1.000000 0.000000 0.000000 0.000333 0.111400 102 68 27
12.400001 4.550000 0.800000 -1.000000 0.000000 0.000000 0.019220 0.119546 102 68 27
12.500000 4.600000 0.900000 0.707107 0.000002 0.707107 0.043278 0.159306 102 68 27
12.500000 4.550000 0.900000 0.707107 0.000002 0.707107 0.040807 0.146295 102 68 27
13.200000 4.550000 0.200000 0.707107 0.000002 0.707107 0.233841 0.052999 102 68 27
13.200000 4.500000 0.100000 -1.000000 -0.000000 -0.000000 0.525958 0.544115 102 68 27
13.200000 4.500000 0.900000 -1.000000 -0.000000 -0.000000 0.305509 0.532700 102 68 27
13.200000 4.599999 0.900000 -1.000000 -0.000000 -0.000000 0.335528 0.512695 102 68 27
13.200000 4.500000 0.900000 0.000000 -0.000001 -1.000000 0.305509 0.532700 102 68 27
12.400000 4.500000 0.900000 0.000000 -0.000001 -1.000000 0.329126 0.330434 102 68 27
12.400001 4.600000 0.900000 0.000000 -0.000001 -1.000000 0.345875 0.348626 102 68 27
12.400000 4.500000 0.100000 1.000000 -0.000010 0.000000 0.531364 0.323932 102 68 27
12.400001 4.600000 0.100000 1.000000 -0.000010 0.000000 0.509198 0.351977 102 68 27
12.400001 4.600000 0.900000 1.000000 -0.000010 0.000000 0.345875 0.348626 102 68 27
12.300000 4.500000 0.000000 0.000000 -1.000000 -0.000000 0.552767 0.302814 102 68 27
12.400000 4.500000 0.100000 0.000000 -1.000000 -0.000000 0.531364 0.323932 102 68 27
12.400000 4.500000 0.900000 0.000000 -1.000000 -0.000000 0.329126 0.330434 102 68 27
13.200000 4.500000 0.100000 0.000000 0.000001 1.000000 0.525958 0.544115 102 68 27
13.200000 4.600000 0.100000 0.000000 0.000001 1.000000 0.496067 0.511825 102 68 27
12.400001 4.600000 0.100000 0.000000 0.000001 1.000000 0.509198 0.351977 102 68 27
12.400001 4.600000 0.900000 0.000000 -1.000000 0.000000 0.999666 0.935000 102 68 27
12.400001 4.600000 0.100000 0.000000 -1.000000 0.000000 0.819317 0.935000 102 68 27
13.200000 4.600000 0.100000 0.000000 -1.000000 0.000000 0.819317 0.754650 102 68 27
13.250000 5.400000 0.200000 0.000000 1.000000 0.000000 0.265371 0.606902 102 68 27
13.250000 5.400000 0.100000 0.000000 1.000000 0.000000 0.249901 0.594385 102 68 27
13.200001 5.400000 0.100000 0.000000 1.000000 0.000000 0.252541 0.578909 102 68 27
13.250000 5.400000 0.100000 0.000000 0.000000 -1.000000 0.249901 0.594385 102 68 27
13.250000 5.300000 0.100000 0.000000 0.000000 -1.000000 0.235029 0.606727 102 68 27
13.200001 5.300000 0.100000 0.000000 0.000000 -1.000000 0.222663 0.596747 102 68 27
13.250000 4.600000 0.900000 -0.000000 0.000000 1.000000 0.250605 0.830554 102 68 27
13.250000 4.700000 0.900000 -0.000000 0.000000 1.000000 0.265477 0.818212 102 68 27
13.200000 4.700000 0.900000 -0.000000 0.000000 1.000000 0.277843 0.828192 102 68 27
13.200000 4.599999 0.900000 -0.000000 -1.000000 -0.000005 0.247965 0.846030 102 68 27
13.200000 4.600000 0.800000 -0.000000 -1.000000 -0.000005 0.222663 0.824848 102 68 27
13.250000 4.600000 0.800000 -0.000000 -1.000000 -0.000005 0.235135 0.818037 102 68 27
13.300000 5.400000 0.900000 0.000005 -1.000000 -0.000001 0.512434 0.821500 102 68 27
13.200001 5.400000 0.900000 0.000005 -1.000000 -0.000001 0.484824 0.799206 102 68 27
13.200001 5.400000 0.100000 0.000005 -1.000000 -0.000001 0.491744 0.636173 102 68 27
13.300000 4.600000 0.900000 0.000001 0.000000 -1.000000 0.301687 0.809677 102 68 27
13.200000 4.599999 0.900000 0.000001 0.000000 -1.000000 0.323590 0.783035 102 68 27
13.200001 5.400000 0.900000 0.000001 0.000000 -1.000000 0.484824 0.799206 102 68 27
13.300000 4.600000 0.100000 -0.000000 1.000000 0.000001 0.302899 0.597707 102 68 27
13.200000 4.600000 0.100000 -0.000000 1.000000 0.000001 0.330509 0.620001 102 68 27
13.200000 4.599999 0.900000 -0.000000 1.000000 0.000001 0.323590 0.783035 102 68 27
13.300000 4.500000 1.000000 1.000000 0.000000 0.000000 0.278510 0.833388 102 68 27
13.300000 4.500000 0.000000 1.000000 0.000000 0.000000 0.278510 0.573684 102 68 27
13.300000 4.600000 0.100000 1.000000 0.000000 0.000000 0.302899 0.597707 102 68 27
13.300000 5.400000 0.100000 0.000000 -0.000000 1.000000 0.513646 0.609531 102 68 27
13.200001 5.400000 0.100000 0.000000 -0.000000 1.000000 0.491744 0.636173 102 68 27
13.200000 4.600000 0.100000 0.000000 -0.000000 1.000000 0.330509 0.620001 102 68 27
13.200001 5.400000 0.900000 1.000000 -0.000001 -0.000000 0.999667 0.753983 102 68 27
13.200000 4.599999 0.900000 1.000000 -0.000001 -0.000000 0.819317 0.753983 102 68 27
13.200000 4.600000 0.100000 1.000000 -0.000001 -0.000000 0.819317 0.573633 102 68 27
12.400001 4.600000 0.950000 -1.000000 0.000000 0.000000 0.018462 0.177343 102 68 27
12.400001 4.700000 0.950000 -1.000000 0.000000 0.000000 0.022116 0.205185 102 68 27
12.400001 4.700000 0.900000 -1.000000 0.000000 0.000000 0.000333 0.214140 102 68 27
12.400001 4.600000 0.950000 0.000000 -1.000000 0.000000 0.018462 0.177343 102 68 27
12.400001 4.600000 0.900000 0.000000 -1.000000 0.000000 0.002426 0.164113 102 68 27
12.500000 4.600000 0.900000 0.000000 -1.000000 0.000000 0.043278 0.159306 102 68 27
12.400001 5.400000 1.000000 -0.000001 -1.000000 0.000000 0.785672 0.817670 102 68 27
12.400001 5.400000 0.900000 -0.000001 -1.000000 0.000000 0.756152 0.786310 102 68 27
13.200001 5.400000 0.900000 -0.000001 -1.000000 0.000000 0.770221 0.626645 102 68 27
12.400001 5.400000 1.000000 1.000000 0.000000 0.000000 0.785672 0.817670 102 68 27
12.400001 4.600000 1.000000 1.000000 0.000000 0.000000 0.575980 0.809191 102 68 27
12.400001 4.600000 0.900000 1.000000 0.000000 0.000000 0.594389 0.791370 102 68 27
12.300000 5.500000 1.000000 0.000000 0.000002 1.000000 0.806303 0.839577 102 68 27
12.400001 5.400000 1.000000 0.000000 0.000002 1.000000 0.785672 0.817670 102 68 27
13.200001 5.400000 1.000000 0.000000 0.000002 1.000000 0.792592 0.597750 102 68 27
13.200000 4.500000 0.100000 -0.000005 -1.000000 0.000000 0.525958 0.544115 102 68 27
13.300000 4.500000 1.000000 -0.000005 -1.000000 0.000000 0.278510 0.554384 102 68 27
13.200000 4.500000 0.900000 -0.000005 -1.000000 0.000000 0.305509 0.532700 102 68 27
13.200001 5.400000 1.000000 -1.000000 0.000001 0.000000 0.792592 0.597750 102 68 27
13.200001 5.400000 0.900000 -1.000000 0.000001 0.000000 0.770221 0.626645 102 68 27
13.200000 4.599999 0.900000 -1.000000 0.000001 0.000000 0.606499 0.627086 102 68 27
12.400001 4.600000 0.900000 -0.000000 -0.000000 1.000000 0.000333 0.940275 102 68 27
13.200000 4.599999 0.900000 -0.000000 -0.000000 1.000000 0.000333 0.759925 102 68 27
13.200001 5.400000 0.900000 -0.000000 -0.000000 1.000000 0.180683 0.759925 102 68 27
12.500000 5.400000 0.050000 0.000000 1.000000 0.000000 0.481396 0.116653 102 68 27
12.400000 5.400000 0.050000 0.000000 1.000000 0.000000 0.503408 0.112074 102 68 27
12.400001 5.400000 0.100000 0.000000 1.000000 0.000000 0.519886 0.129810 102 68 27
13.100000 4.600000 0.050000 -0.707106 -0.707107 -0.000000 0.270182 0.018230 102 68 27
13.100000 4.600000 0.100000 -0.707106 -0.707107 -0.000000 0.253903 0.000333 102 68 27
12.400000 5.300000 0.100000 -0.707106 -0.707107 -0.000000 0.522780 0.075562 102 68 27
12.400000 5.400000 0.050000 -1.000000 0.000000 0.000000 0.503408 0.112074 102 68 27
12.400000 5.300000 0.050000 -1.000000 0.000000 0.000000 0.499924 0.085958 102 68 27
12.400000 5.300000 0.100000 -1.000000 0.000000 0.000000 0.522780 0.075562 102 68 27
13.200000 4.600000 0.100000 0.000000 -1.000000 0.000000 0.253326 0.044394 102 68 27
13.100000 4.600000 0.100000 0.000000 -1.000000 0.000000 0.253903 0.000333 102 68 27
13.100000 4.600000 0.050000 0.000000 -1.000000 0.000000 0.270182 0.018230 102 68 27
13.200000 4.700000 0.050000 0.707107 0.707107 0.000000 0.274965 0.051035 102 68 27
12.500000 5.400000 0.050000 0.707107 0.707107 0.000000 0.481396 0.116653 102 68 27
12.500000 5.400000 0.100000 0.707107 0.707107 0.000000 0.480247 0.129810 102 68 27
13.200000 5.400000 -0.000000 0.000000 -1.000000 -0.000000 0.789822 0.548880 102 68 27
13.200001 5.400000 0.100000 0.000000 -1.000000 -0.000000 0.759480 0.517476 102 68 27
12.400001 5.400000 0.100000 0.000000 -1.000000 -0.000000 0.770041 0.357637 102 68 27
13.200000 5.400000 -0.000000 -1.000000 0.000000 0.000000 0.789822 0.548880 102 68 27
13.200000 4.600000 -0.000000 -1.000000 0.000000 0.000000 0.579141 0.541390 102 68 27
13.200000 4.600000 0.100000 -1.000000 0.000000 0.000000 0.597241 0.523472 102 68 27
12.400000 4.600000 0.000000 0.000000 1.000000 0.000000 0.579139 0.338729 102 68 27
12.400001 4.600000 0.100000 0.000000 1.000000 0.000000 0.606840 0.359305 102 68 27
13.200000 4.600000 0.100000 0.000000 1.000000 0.000000 0.597241 0.523472 102 68 27
13.300000 5.500000 0.000000 0.000001 -0.000000 -1.000000 0.815099 0.572966 102 68 27
13.300000 4.500000 0.000000 0.000001 -0.000000 -1.000000 0.553435 0.566523 102 68 27
13.200000 4.600000 -0.000000 0.000001 -0.000000 -1.000000 0.579141 0.541390 102 68 27
12.400000 5.400000 0.000000 1.000000 -0.000000 -0.000010 0.791714 0.328789 102 68 27
12.400001 5.400000 0.100000 1.000000 -0.000000 -0.000010 0.770041 0.357637 102 68 27
12.400001 4.600000 0.100000 1.000000 -0.000000 -0.000010 0.606840 0.359305 102 68 27
13.200000 4.600000 0.100000 -0.000000 -0.000000 -1.000000 0.180683 0.759258 102 68 27
12.400001 4.600000 0.100000 -0.000000 -0.000000 -1.000000 0.000333 0.759258 102 68 27
12.400001 5.400000 0.100000 -0.000000 -0.000000 -1.000000 0.000333 0.578909 102 68 27
12.400001 5.450000 0.200000 0.000000 1.000000 0.000000 0.504874 0.168305 102 68 27
13.100000 5.450000 0.900000 0.000000 1.000000 0.000000 0.295614 0.276855 102 68 27
13.200000 5.450000 0.800000 0.000000 1.000000 0.000000 0.295721 0.244816 102 68 27
12.400001 5.400000 0.100000 -0.000000 -0.000000 -1.000000 0.519886 0.129810 102 68 27
13.200000 5.450000 0.800000 0.707107 0.000000 -0.707107 0.295721 0.244816 102 68 27
12.400001 5.400000 0.200000 -1.000000 0.000000 0.000000 0.522141 0.175869 102 68 27
12.400001 4.550000 0.900000 0.000000 -1.000000 -0.000000 0.021670 0.144341 102 68 27
13.100000 4.550000 0.100000 -0.000000 -1.000000 -0.000000 0.234243 0.023080 102 68 27
13.200000 4.550000 0.100000 -0.000000 -1.000000 -0.000000 0.244718 0.042270 102 68 27
13.250000 4.600000 0.900000 1.000000 -0.000000 0.000000 0.250605 0.830554 102 68 27
13.250000 5.300000 0.100000 1.000000 0.000000 0.000000 0.235029 0.606727 102 68 27
13.250000 5.400000 0.100000 1.000000 0.000000 0.000000 0.249901 0.594385 102 68 27
12.350000 5.400000 0.800000 0.000000 0.707107 -0.707107 0.517640 0.888898 102 68 27
12.400001 5.400000 0.900000 0.000000 -0.000000 1.000000 0.545633 0.876068 102 68 27
12.350000 5.400000 0.900000 0.000000 1.000000 -0.000000 0.530156 0.873428 102 68 27
12.400001 5.300000 0.900000 0.000000 -0.707107 0.707107 0.527795 0.846191 102 68 27
12.350000 5.400000 0.900000 -1.000000 -0.000000 -0.000000 0.530156 0.873428 102 68 27
12.350000 4.700000 0.100000 -1.000000 0.000000 0.000000 0.306328 0.889005 102 68 27
12.350000 4.600000 0.100000 -1.000000 0.000000 0.000000 0.293987 0.874133 102 68 27
12.400001 4.550000 0.800000 -0.707107 -0.000000 -0.707107 0.019220 0.119546 102 68 27
13.250000 4.600000 0.800000 0.000000 -0.707107 -0.707107 0.235135 0.818037 102 68 27
13.200000 4.700000 0.900000 0.000000 0.707107 0.707107 0.277843 0.828192 102 68 27
12.300000 5.500000 1.000000 -1.000000 0.000000 -0.000000 0.555202 0.000720 102 68 27
12.300000 4.500000 0.000000 -1.000000 0.000000 -0.000000 0.798509 0.259329 102 68 27
13.300000 5.400000 0.100000 1.000000 0.000000 0.000000 0.513646 0.609531 102 68 27
13.300000 4.600000 0.900000 1.000000 0.000000 -0.000000 0.301687 0.809677 102 68 27
13.100000 5.400000 0.900000 0.000000 1.000000 0.000000 0.274586 0.302147 102 68 27
12.500000 4.600000 0.950000 0.707106 -0.707107 0.000000 0.042828 0.174462 102 68 27
13.200001 5.400000 0.900000 1.000000 -0.000000 0.000000 0.274746 0.254195 102 68 27
12.400001 4.700000 0.900000 -0.707107 0.707107 0.000000 0.000333 0.214140 102 68 27
12.400001 4.600000 1.000000 0.000001 1.000000 0.000000 0.575980 0.809191 102 68 27
12.400001 4.600000 1.000000 -0.000003 -0.000000 1.000000 0.575980 0.809191 102 68 27
12.400001 5.400000 1.000000 -0.000003 -0.000000 1.000000 0.785672 0.817670 102 68 27
12.300000 5.500000 1.000000 -0.000003 -0.000000 1.000000 0.806303 0.839577 102 68 27
13.300000 5.500000 1.000000 0.000003 -0.000000 1.000000 0.818650 0.573633 102 68 27
13.200001 5.400000 1.000000 0.000003 -0.000000 1.000000 0.792592 0.597750 102 68 27
13.200000 4.599999 1.000000 0.000003 -0.000000 1.000000 0.579138 0.606230 102 68 27
12.400001 4.600000 1.000000 -0.000001 -0.000000 1.000000 0.575980 0.809191 102 68 27
12.300000 5.500000 1.000000 -0.000001 -0.000000 1.000000 0.806303 0.839577 102 68 27
12.300000 4.500000 1.000000 -0.000001 -0.000000 1.000000 0.553435 0.832675 102 68 27
13.300000 4.500000 1.000000 0.000001 -0.000000 1.000000 0.553435 0.580668 102 68 27
13.300000 5.500000 1.000000 0.000001 -0.000000 1.000000 0.818650 0.573633 102 68 27
13.200000 4.599999 1.000000 0.000001 -0.000000 1.000000 0.579138 0.606230 102 68 27
12.400001 4.600000 1.000000 -0.000000 -0.000001 1.000000 0.575980 0.809191 102 68 27
13.200000 4.600000 0.100000 1.000000 0.000000 -0.000000 0.253326 0.044394 102 68 27
13.200000 4.600000 -0.000000 -0.000000 -0.000001 -1.000000 0.579141 0.541390 102 68 27
13.300000 4.500000 0.000000 -0.000000 -0.000001 -1.000000 0.553435 0.566523 102 68 27
12.300000 4.500000 0.000000 -0.000000 -0.000001 -1.000000 0.558518 0.318798 102 68 27
13.200000 5.400000 -0.000000 -0.000000 -0.000000 -1.000000 0.789822 0.548880 102 68 27
12.400000 4.600000 0.000000 -0.000000 -0.000001 -1.000000 0.579139 0.338729 102 68 27
12.300000 5.500000 0.000000 0.000000 0.000002 -1.000000 0.815099 0.302814 102 68 27
13.300000 5.500000 0.000000 0.000000 0.000002 -1.000000 0.815099 0.572966 102 68 27
13.200000 5.400000 -0.000000 0.000000 0.000002 -1.000000 0.789822 0.548880 102 68 27
12.400000 5.400000 0.000000 -0.000001 -0.000000 -1.000000 0.791714 0.328789 102 68 27
12.400000 4.600000 0.000000 -0.000001 -0.000000 -1.000000 0.579139 0.338729 102 68 27
12.300000 4.500000 0.000000 -0.000001 -0.000000 -1.000000 0.558518 0.318798 102 68 27
12.400001 5.400000 0.900000 0.000001 1.000000 0.000000 0.979526 0.180683 102 68 27
13.200001 5.400000 0.900000 0.000001 1.000000 0.000000 0.799176 0.180683 102 68 27
12.400001 5.400000 0.100000 0.000001 1.000000 0.000000 0.979526 0.000333 102 68 27
13.200001 5.400000 0.100000 -0.000000 0.000000 1.000000 0.076684 0.357520 102 68 27
13.100000 4.600000 0.050000 0.000000 -0.000001 -1.000000 0.270182 0.018230 102 68 27
13.200000 4.700000 0.050000 0.000000 -0.000001 -1.000000 0.274965 0.051035 102 68 27
13.200000 4.600000 0.050000 0.000000 -0.000001 -1.000000 0.263326 0.042033 102 68 27
12.400000 5.300000 0.050000 -0.000001 -0.000001 -1.000000 0.499924 0.085958 102 68 27
12.400000 5.400000 0.050000 -0.000001 -0.000001 -1.000000 0.503408 0.112074 102 68 27
12.500000 5.400000 0.050000 -0.000001 -0.000001 -1.000000 0.481396 0.116653 102 68 27
13.100000 4.600000 0.050000 -0.000001 -0.000001 -1.000000 0.270182 0.018230 102 68 27
13.300000 5.500000 1.000000 -0.000000 1.000000 0.000000 0.000333 0.578242 102 68 27
12.400001 5.500000 0.100000 0.000000 1.000000 -0.000000 0.257665 0.341357 102 68 27
13.200001 5.400000 0.900000 -1.000000 0.000000 0.000000 0.065924 0.517862 102 68 27
12.400001 5.500000 0.900000 0.000000 0.000000 -1.000000 0.253715 0.542111 102 68 27
13.200001 5.500000 0.900000 0.000000 0.000000 -1.000000 0.031188 0.549839 102 68 27
12.400001 5.400000 0.900000 0.000000 0.000000 -1.000000 0.226608 0.520384 102 68 27
12.400001 5.500000 0.100000 1.000000 -0.000000 0.000000 0.257665 0.341357 102 68 27
13.100000 5.400000 0.900000 -0.707107 0.000002 0.707107 0.274586 0.302147 102 68 27
13.100000 5.450000 0.900000 -0.707107 0.000002 0.707107 0.295614 0.276855 102 68 27
12.400001 5.400000 0.200000 -0.707107 0.000002 0.707107 0.522141 0.175869 102 68 27
13.200000 5.450000 0.800000 1.000000 -0.000000 0.000000 0.295721 0.244816 102 68 27
13.200000 5.450000 0.900000 1.000000 -0.000000 0.000000 0.284057 0.256436 102 68 27
13.200000 5.400000 0.800000 1.000000 -0.000000 0.000000 0.287611 0.235836 102 68 27
13.200001 5.400000 0.900000 0.000000 0.000002 1.000000 0.274746 0.254195 102 68 27
12.400001 4.600000 0.200000 0.000000 -1.000000 0.000000 0.299692 0.846190 102 68 27
12.400001 4.600000 0.100000 0.000002 -0.000001 -1.000000 0.278510 0.871493 102 68 27
12.350000 4.600000 0.100000 0.000002 -0.000001 -1.000000 0.293987 0.874133 102 68 27
12.400001 4.700000 0.100000 0.000002 -0.000001 -1.000000 0.296348 0.901370 102 68 27
12.300000 4.600000 0.100000 0.000000 1.000000 0.000000 0.772165 0.232332 102 68 27
12.400001 4.600000 0.900000 -0.000001 0.000000 -1.000000 0.584814 0.204827 102 68 27
12.300000 4.600000 0.900000 -0.000001 0.000000 -1.000000 0.551095 0.235743 102 68 27
12.400001 5.400000 0.900000 -0.000001 0.000000 -1.000000 0.592678 0.043319 102 68 27
12.300000 5.400000 0.900000 -0.000000 -1.000000 0.000000 0.575356 0.024817 102 68 27
12.500000 4.600000 0.950000 -0.000000 0.000000 1.000000 0.042828 0.174462 102 68 27
12.400001 4.700000 0.950000 -0.000000 0.000000 1.000000 0.022116 0.205185 102 68 27
12.400001 4.600000 0.950000 -0.000000 0.000000 1.000000 0.018462 0.177343 102 68 27
13.200001 5.300000 0.950000 0.000001 0.000000 1.000000 0.252058 0.247207 102 68 27
13.200001 5.400000 0.950000 0.000001 0.000000 1.000000 0.264285 0.256621 102 68 27
13.100000 5.400000 0.950000 0.000001 0.000000 1.000000 0.257341 0.280609 102 68 27
13.200001 5.300000 0.950000 -0.000000 -0.000000 1.000000 0.252058 0.247207 102 68 27
12.300000 5.400000 0.100000 0.000000 -0.000000 1.000000 0.777594 0.020891 102 68 27
12.300000 4.600000 0.100000 0.000000 -0.000000 1.000000 0.772165 0.232332 102 68 27
12.400001 5.400000 0.100000 0.000000 -0.000000 1.000000 0.756097 0.048565 102 68 27
12.400001 4.600000 0.900000 -1.000000 -0.000000 0.000000 0.815766 0.302814 102 68 27
13.200000 4.600000 0.100000 -0.000001 -0.000001 -1.000000 0.253326 0.044394 102 68 27
13.200000 4.550000 0.100000 -0.000001 -0.000001 -1.000000 0.244718 0.042270 102 68 27
13.100000 4.600000 0.100000 -0.000001 -0.000001 -1.000000 0.253903 0.000333 102 68 27
12.500000 4.600000 0.900000 -0.000000 0.000002 1.000000 0.043278 0.159306 102 68 27
12.400001 4.550000 0.900000 -1.000000 0.000000 0.000000 0.021670 0.144341 102 68 27
13.200000 4.600000 0.200000 0.707107 0.000000 0.707107 0.240788 0.060815 102 68 27
12.500000 4.600000 0.900000 0.707107 0.000000 0.707107 0.043278 0.159306 102 68 27
13.200000 4.550000 0.200000 0.707107 0.000000 0.707107 0.233841 0.052999 102 68 27
13.200000 4.600000 0.100000 -1.000000 0.000000 -0.000000 0.496067 0.511825 102 68 27
13.200000 4.599999 0.900000 -0.000000 -0.000001 -1.000000 0.335528 0.512695 102 68 27
12.400000 4.500000 0.900000 1.000000 -0.000010 0.000000 0.329126 0.330434 102 68 27
12.300000 4.500000 1.000000 -0.000000 -1.000000 0.000000 0.309523 0.306929 102 68 27
12.400000 4.500000 0.100000 0.000000 -0.000001 1.000000 0.531364 0.323932 102 68 27
13.200000 4.500000 0.100000 0.000000 -0.000001 1.000000 0.525958 0.544115 102 68 27
12.400001 4.600000 0.100000 0.000000 -0.000001 1.000000 0.509198 0.351977 102 68 27
13.200000 4.599999 0.900000 -0.000001 -1.000000 -0.000001 0.999666 0.754650 102 68 27
12.400001 4.600000 0.900000 -0.000001 -1.000000 -0.000001 0.999666 0.935000 102 68 27
13.200000 4.600000 0.100000 -0.000001 -1.000000 -0.000001 0.819317 0.754650 102 68 27
13.200000 5.400000 0.200000 0.000000 1.000000 -0.000000 0.277843 0.600091 102 68 27
13.200001 5.400000 0.100000 0.000000 0.000000 -1.000000 0.252541 0.578909 102 68 27
13.200000 4.599999 0.900000 -0.000002 -0.000001 1.000000 0.247965 0.846030 102 68 27
13.250000 4.600000 0.900000 -0.000002 -0.000001 1.000000 0.250605 0.830554 102 68 27
13.200000 4.700000 0.900000 -0.000002 -0.000001 1.000000 0.277843 0.828192 102 68 27
13.250000 4.600000 0.900000 0.000010 -1.000000 0.000000 0.250605 0.830554 102 68 27
13.200000 4.599999 0.900000 0.000010 -1.000000 0.000000 0.247965 0.846030 102 68 27
13.250000 4.600000 0.800000 0.000010 -1.000000 0.000000 0.235135 0.818037 102 68 27
13.300000 5.400000 0.100000 0.000000 -1.000000 0.000000 0.513646 0.609531 102 68 27
13.300000 5.400000 0.900000 0.000000 -1.000000 0.000000 0.512434 0.821500 102 68 27
13.200001 5.400000 0.100000 0.000000 -1.000000 0.000000 0.491744 0.636173 102 68 27
13.300000 5.400000 0.900000 -0.000001 0.000000 -1.000000 0.512434 0.821500 102 68 27
13.300000 4.600000 0.900000 -0.000001 0.000000 -1.000000 0.301687 0.809677 102 68 27
13.200001 5.400000 0.900000 -0.000001 0.000000 -1.000000 0.484824 0.799206 102 68 27
13.300000 4.600000 0.900000 -0.000005 1.000000 0.000000 0.301687 0.809677 102 68 27
13.300000 4.600000 0.100000 -0.000005 1.000000 0.000000 0.302899 0.597707 102 68 27
13.200000 4.599999 0.900000 -0.000005 1.000000 0.000000 0.323590 0.783035 102 68 27
13.300000 4.600000 0.100000 -0.000001 0.000000 1.000000 0.302899 0.597707 102 68 27
13.300000 5.400000 0.100000 -0.000001 0.000000 1.000000 0.513646 0.609531 102 68 27
13.200000 4.600000 0.100000 -0.000001 0.000000 1.000000 0.330509 0.620001 102 68 27
13.200001 5.400000 0.100000 1.000000 -0.000001 -0.000000 0.999666 0.573633 102 68 27
12.500000 4.600000 0.950000 0.000000 -1.000000 0.000000 0.042828 0.174462 102 68 27
13.200001 5.400000 1.000000 -0.000001 -1.000000 0.000000 0.792592 0.597750 102 68 27
12.400001 5.400000 0.900000 1.000000 -0.000000 0.000000 0.756152 0.786310 102 68 27
13.300000 5.500000 1.000000 -0.000000 0.000002 1.000000 0.818650 0.573633 102 68 27
13.200000 4.500000 0.100000 0.000000 -1.000000 0.000000 0.525958 0.544115 102 68 27
13.200000 4.500000 0.900000 0.000000 -1.000000 0.000000 0.305509 0.532700 102 68 27
13.300000 4.500000 0.000000 0.000000 -1.000000 0.000000 0.552768 0.573017 102 68 27
13.300000 4.500000 1.000000 -0.000000 -1.000000 -0.000004 0.278510 0.554384 102 68 27
12.300000 4.500000 1.000000 -0.000000 -1.000000 -0.000004 0.309523 0.306929 102 68 27
13.200000 4.500000 0.900000 -0.000000 -1.000000 -0.000004 0.305509 0.532700 102 68 27
13.300000 4.500000 1.000000 -0.000000 -1.000000 -0.000000 0.278510 0.554384 102 68 27
13.200000 4.599999 1.000000 -1.000000 0.000001 0.000000 0.579138 0.606230 102 68 27
12.400001 5.400000 0.900000 -0.000000 -0.000000 1.000000 0.180683 0.940275 102 68 27
12.500000 5.400000 0.100000 -0.000000 1.000000 0.000000 0.480247 0.129810 102 68 27
12.400000 5.300000 0.050000 -0.707106 -0.707107 0.000000 0.499924 0.085958 102 68 27
12.400001 5.400000 0.100000 -1.000000 0.000010 0.000019 0.519886 0.129810 102 68 27
12.400000 5.400000 0.050000 -1.000000 0.000010 0.000019 0.503408 0.112074 102 68 27
12.400000 5.300000 0.100000 -1.000000 0.000010 0.000019 0.522780 0.075562 102 68 27
13.200000 4.600000 0.050000 0.000000 -1.000000 0.000000 0.263326 0.042033 102 68 27
13.200000 4.700000 0.100000 0.707107 0.707107 -0.000000 0.268923 0.059692 102 68 27
12.400000 5.400000 0.000000 -0.000000 -1.000000 -0.000000 0.791714 0.328789 102 68 27
13.200001 5.400000 0.100000 -1.000000 0.000001 0.000010 0.759480 0.517476 102 68 27
13.200000 5.400000 -0.000000 -1.000000 0.000001 0.000010 0.789822 0.548880 102 68 27
13.200000 4.600000 0.100000 -1.000000 0.000001 0.000010 0.597241 0.523472 102 68 27
13.200000 4.600000 -0.000000 0.000000 1.000000 0.000000 0.579141 0.541390 102 68 27
13.200000 5.400000 -0.000000 0.000002 -0.000000 -1.000000 0.789822 0.548880 102 68 27
13.300000 5.500000 0.000000 0.000002 -0.000000 -1.000000 0.815099 0.572966 102 68 27
13.200000 4.600000 -0.000000 0.000002 -0.000000 -1.000000 0.579141 0.541390 102 68 27
12.400000 4.600000 0.000000 1.000000 -0.000000 -0.000010 0.579139 0.338729 102 68 27
13.200001 5.400000 0.100000 0.000000 0.000000 -1.000000 0.180683 0.578909 102 68 27
12.500000 5.450000 0.100000 -0.000000 1.000000 0.000000 0.481919 0.142869 102 68 27
12.400001 5.450000 0.100000 -0.000000 1.000000 0.000000 0.502691 0.143032 102 68 27
13.200000 5.450000 0.900000 0.000000 1.000000 0.000000 0.284057 0.256436 102 68 27
3 0 1 2
3 3 4 5
3 6 7 8
3 9 10 11
3 12 13 14
3 15 16 17
3 18 19 20
3 21 22 23
3 24 25 26
3 27 28 29
3 30 31 32
3 33 34 35
3 36 37 38
3 39 40 41
3 42 43 44
3 45 46 47
3 48 49 50
3 51 52 53
3 54 55 56
3 57 58 59
3 60 61 62
3 63 64 65
3 66 67 68
3 69 70 71
3 72 73 74
3 75 76 77
3 78 79 80
3 81 82 83
3 84 85 86
3 87 88 89
3 90 91 92
3 93 94 95
3 96 97 98
3 99 100 101
3 102 103 104
3 105 106 107
3 108 109 110
3 111 112 113
3 114 115 116
3 117 118 119
3 120 121 122
3 123 124 125
3 126 127 128
3 129 130 131
3 132 133 134
3 135 136 137
3 138 139 140
3 141 142 143
3 144 145 146
3 147 148 149
3 150 151 152
3 153 154 155
3 156 157 158
3 159 160 161
3 162 163 164
3 165 166 167
3 168 169 170
3 171 172 173
3 174 175 176
3 177 178 179
3 180 181 182
3 183 184 185
3 186 187 188
3 189 190 191
3 192 193 194
3 195 196 197
3 198 199 200
3 201 202 203
3 204 205 206
3 207 208 209
3 210 211 212
3 213 214 215
3 216 217 218
3 219 220 221
3 222 223 224
3 225 226 227
3 228 229 230
3 231 232 233
3 234 235 236
3 237 238 239
3 240 241 242
3 243 244 245
3 246 247 248
3 249 250 251
3 252 0 2
3 253 3 5
3 254 6 8
3 10 9 255
3 256 257 11
3 11 10 256
3 13 12 258
3 259 260 14
3 14 13 259
3 261 15 17
3 262 18 20
3 263 21 23
3 264 24 26
3 28 27 265
3 266 267 29
3 29 28 266
3 268 30 32
3 269 33 35
3 270 36 38
3 118 117 271
3 39 272 119
3 41 118 271
3 39 119 40
3 41 271 39
3 273 185 184
3 43 274 44
3 273 184 42
3 43 183 274
3 44 273 42
3 275 45 47
3 276 48 50
3 277 51 53
3 278 54 56
3 279 57 59
3 280 281 282
3 283 284 285
3 286 287 288
3 289 290 291
3 62 292 60
3 293 63 65
3 294 295 296
3 67 297 68
3 298 294 296
3 299 300 301
3 302 303 304
3 305 306 307
3 308 72 74
3 309 310 311
3 312 313 314
3 314 315 312
3 316 78 80
3 79 78 81
3 82 80 83
3 317 79 81
3 82 316 80
3 83 317 81
3 318 84 86
3 319 320 321
3 322 90 92
3 323 324 325
3 326 327 328
3 329 99 101
3 330 102 104
3 331 332 333
3 334 108 110
3 335 336 337
3 338 114 116
3 272 117 119
3 339 340 341
3 342 343 344
3 340 339 345
3 346 347 348
3 349 126 128
3 293 129 131
3 350 351 352
3 353 135 137
3 354 138 140
3 355 356 357
3 358 144 146
3 359 147 149
3 360 150 152
3 361 153 155
3 362 363 364
3 365 366 367
3 368 162 164
3 369 165 167
3 370 371 372
3 373 374 375
3 376 377 378
3 379 380 381
3 382 383 384
3 274 183 185
3 385 386 387
3 388 189 191
3 138 192 194
3 389 195 197
3 390 198 200
3 391 201 203
3 392 204 206
3 393 154 153
3 361 155 394
3 393 153 395
3 396 397 398
3 399 393 395
3 400 210 212
3 401 213 215
3 402 216 218
3 403 219 221
3 404 405 406
3 407 225 227
3 408 228 230
3 409 231 233
3 410 411 412
3 413 237 239
3 414 415 416
3 417 243 245
3 418 246 248
3 419 420 249
3 249 251 419
3 251 250 421
