ply
format ascii 1.0
comment Created by Blender 2.73 (sub 0) - www.blender.org, source file: ''
element vertex 30
property float x
property float y
property float z
property float nx
property float ny
property float nz
property float s
property float t
property uchar red
property uchar green
property uchar blue
element face 12
property list uchar uint vertex_indices
end_header
-1.000000 2.000000 -1.000000 -1.000000 0.000000 0.000000 0.000000 0.000000 255 255 255
-1.000000 0.000000 -1.000000 -1.000000 0.000000 0.000000 1.000000 0.000000 0 255 20
-1.000000 0.000000 1.000000 -1.000000 0.000000 0.000000 1.000000 1.000000 28 228 17
1.000000 2.000000 -1.000000 0.000000 0.000000 -1.000000 0.000000 0.000000 255 255 255
1.000000 0.000000 -1.000000 0.000000 0.000000 -1.000000 1.000000 0.000000 255 5 0
-1.000000 0.000000 -1.000000 0.000000 0.000000 -1.000000 1.000000 1.000000 255 5 0
1.000000 2.000000 1.000000 1.000000 0.000000 0.000000 0.000000 0.000000 255 255 255
1.000000 0.000000 1.000000 1.000000 0.000000 0.000000 1.000000 0.000000 0 4 255
1.000000 0.000000 -1.000000 1.000000 0.000000 0.000000 1.000000 1.000000 0 4 255
-1.000000 2.000000 1.000000 0.000000 -0.000000 1.000000 0.000000 0.000000 255 255 255
-1.000000 0.000000 1.000000 0.000000 -0.000000 1.000000 1.000000 0.000000 253 2 242
1.000000 0.000000 1.000000 0.000000 -0.000000 1.000000 1.000000 1.000000 255 0 244
-1.000000 0.000000 -1.000000 -0.000000 -1.000000 -0.000000 0.000000 0.000000 255 255 255
1.000000 0.000000 -1.000000 -0.000000 -1.000000 -0.000000 1.000000 0.000000 255 255 255
1.000000 0.000000 1.000000 -0.000000 -1.000000 -0.000000 1.000000 1.000000 255 255 255
1.000000 2.000000 -1.000000 -0.000000 1.000000 0.000000 0.000000 0.000000 255 255 255
-1.000000 2.000000 -1.000000 -0.000000 1.000000 0.000000 1.000000 0.000000 255 255 255
-1.000000 2.000000 1.000000 -0.000000 1.000000 0.000000 1.000000 1.000000 255 255 255
-1.000000 2.000000 1.000000 -1.000000 0.000000 0.000000 0.000000 0.000000 255 255 255
-1.000000 2.000000 -1.000000 -1.000000 0.000000 0.000000 1.000000 0.000000 255 255 255
-1.000000 2.000000 -1.000000 0.000000 0.000000 -1.000000 0.000000 0.000000 255 255 255
1.000000 2.000000 -1.000000 0.000000 0.000000 -1.000000 1.000000 0.000000 255 255 255
1.000000 2.000000 -1.000000 1.000000 -0.000000 0.000000 0.000000 0.000000 255 255 255
1.000000 2.000000 1.000000 1.000000 -0.000000 0.000000 1.000000 0.000000 255 255 255
1.000000 2.000000 1.000000 0.000000 -0.000000 1.000000 0.000000 0.000000 255 255 255
-1.000000 2.000000 1.000000 0.000000 -0.000000 1.000000 1.000000 0.000000 255 255 255
-1.000000 0.000000 1.000000 -0.000000 -1.000000 0.000000 0.000000 0.000000 255 255 255
-1.000000 0.000000 -1.000000 -0.000000 -1.000000 0.000000 1.000000 0.000000 255 255 255
1.000000 2.000000 1.000000 -0.000000 1.000000 0.000000 0.000000 0.000000 255 255 255
1.000000 2.000000 -1.000000 -0.000000 1.000000 0.000000 1.000000 0.000000 255 255 255
3 0 1 2
3 3 4 5
3 6 7 8
3 9 10 11
3 12 13 14
3 15 16 17
3 18 19 2
3 20 21 5
3 22 23 8
3 24 25 11
3 26 27 14
3 28 29 17
