ply
format ascii 1.0
comment Created by Blender 2.73 (sub 0) - www.blender.org, source file: ''
element vertex 31
property float x
property float y
property float z
property float nx
property float ny
property float nz
property float s
property float t
property uchar red
property uchar green
property uchar blue
element face 12
property list uchar uint vertex_indices
end_header
1.000000 -1.000000 1.000000 0.000000 -1.000000 0.000000 0.000000 0.000000 0 236 255
-1.000000 -1.000000 1.000000 0.000000 -1.000000 0.000000 1.000000 0.000000 250 0 255
-1.000000 -1.000000 -1.000000 0.000000 -1.000000 0.000000 1.000000 1.000000 0 255 44
-1.000000 1.000000 -1.000000 0.000000 1.000000 0.000000 0.000000 0.000000 0 236 255
-1.000000 1.000000 1.000000 0.000000 1.000000 0.000000 1.000000 0.000000 255 240 0
0.999999 1.000000 1.000001 0.000000 1.000000 0.000000 1.000000 1.000000 0 255 44
1.000000 1.000000 -0.999999 1.000000 0.000000 0.000001 0.000000 0.000000 250 0 255
0.999999 1.000000 1.000001 1.000000 0.000000 0.000001 1.000000 0.000000 0 255 44
1.000000 -1.000000 1.000000 1.000000 0.000000 0.000001 1.000000 1.000000 0 236 255
0.999999 1.000000 1.000001 -0.000000 0.000000 1.000000 0.000000 0.000000 0 255 44
-1.000000 1.000000 1.000000 -0.000000 0.000000 1.000000 1.000000 0.000000 255 240 0
-1.000000 -1.000000 1.000000 -0.000000 0.000000 1.000000 1.000000 1.000000 250 0 255
-1.000000 -1.000000 1.000000 -1.000000 -0.000000 -0.000000 0.000000 0.000000 250 0 255
-1.000000 1.000000 1.000000 -1.000000 -0.000000 -0.000000 1.000000 0.000000 255 240 0
-1.000000 1.000000 -1.000000 -1.000000 -0.000000 -0.000000 1.000000 1.000000 0 236 255
1.000000 -1.000000 -1.000000 0.000000 0.000000 -1.000000 0.000000 0.000000 255 240 0
-1.000000 -1.000000 -1.000000 0.000000 0.000000 -1.000000 1.000000 0.000000 0 255 44
-1.000000 1.000000 -1.000000 0.000000 0.000000 -1.000000 1.000000 1.000000 0 236 255
1.000000 -1.000000 -1.000000 0.000000 -1.000000 0.000000 0.000000 0.000000 255 240 0
1.000000 -1.000000 1.000000 0.000000 -1.000000 0.000000 1.000000 0.000000 0 236 255
1.000000 1.000000 -0.999999 -0.000000 1.000000 0.000000 0.000000 0.000000 250 0 255
-1.000000 1.000000 -1.000000 -0.000000 1.000000 0.000000 1.000000 0.000000 0 236 255
1.000000 -1.000000 -1.000000 1.000000 -0.000000 0.000000 0.000000 0.000000 255 240 0
1.000000 1.000000 -0.999999 1.000000 -0.000000 0.000000 1.000000 0.000000 250 0 255
1.000000 -1.000000 1.000000 1.000000 -0.000000 0.000000 1.000000 1.000000 0 236 255
1.000000 -1.000000 1.000000 -0.000000 -0.000000 1.000000 0.000000 0.000000 0 236 255
0.999999 1.000000 1.000001 -0.000000 -0.000000 1.000000 1.000000 0.000000 0 255 44
-1.000000 -1.000000 -1.000000 -1.000000 -0.000000 -0.000000 0.000000 0.000000 0 255 44
-1.000000 -1.000000 1.000000 -1.000000 -0.000000 -0.000000 1.000000 0.000000 250 0 255
1.000000 1.000000 -0.999999 0.000000 0.000000 -1.000000 0.000000 0.000000 250 0 255
1.000000 -1.000000 -1.000000 0.000000 0.000000 -1.000000 1.000000 0.000000 255 240 0
3 0 1 2
3 3 4 5
3 6 7 8
3 9 10 11
3 12 13 14
3 15 16 17
3 18 19 2
3 20 21 5
3 22 23 24
3 25 26 11
3 27 28 14
3 29 30 17
