ply
format ascii 1.0
comment Created by Blender 2.73 (sub 0) - www.blender.org, source file: ''
element vertex 28
property float x
property float y
property float z
property float nx
property float ny
property float nz
property float s
property float t
property uchar red
property uchar green
property uchar blue
element face 12
property list uchar uint vertex_indices
end_header
0.012991 -0.484373 -0.708965 0.668719 0.000000 -0.743515 0.000000 0.000000 15 255 0
0.012991 0.484374 -0.708965 0.668719 0.000000 -0.743515 1.000000 0.000000 0 38 255
0.733268 0.484374 -0.061146 0.668719 0.000000 -0.743515 1.000000 1.000000 255 0 1
0.733269 -0.484373 -0.061145 0.743516 0.000001 0.668719 0.000000 0.000000 250 0 255
0.733268 0.484374 -0.061146 0.743516 0.000001 0.668719 1.000000 0.000000 255 0 1
0.085449 0.484374 0.659133 0.743516 0.000001 0.668719 1.000000 1.000000 15 255 0
0.733268 0.484374 -0.061146 -0.000000 1.000000 -0.000000 0.000000 0.000000 255 0 1
0.012991 0.484374 -0.708965 -0.000000 1.000000 -0.000000 1.000000 0.000000 0 38 255
-0.634829 0.484374 0.011313 -0.000000 1.000000 -0.000000 1.000000 1.000000 248 252 255
-0.634829 0.484374 0.011313 -0.743515 0.000000 -0.668719 0.000000 0.000000 248 252 255
0.012991 0.484374 -0.708965 -0.743515 0.000000 -0.668719 1.000000 0.000000 0 38 255
0.012991 -0.484373 -0.708965 -0.743515 0.000000 -0.668719 1.000000 1.000000 15 255 0
0.085449 -0.484373 0.659133 0.000000 -1.000000 0.000000 0.000000 0.000000 255 254 0
-0.634829 -0.484373 0.011313 0.000000 -1.000000 0.000000 1.000000 0.000000 255 1 1
0.012991 -0.484373 -0.708965 0.000000 -1.000000 0.000000 1.000000 1.000000 15 255 0
0.085449 0.484374 0.659133 -0.668719 0.000000 0.743515 0.000000 0.000000 15 255 0
-0.634829 0.484374 0.011313 -0.668719 0.000000 0.743515 1.000000 0.000000 248 252 255
-0.634829 -0.484373 0.011313 -0.668719 0.000000 0.743515 1.000000 1.000000 255 1 1
0.733269 -0.484373 -0.061145 0.668719 0.000000 -0.743515 0.000000 0.000000 250 0 255
0.085449 -0.484373 0.659133 0.743515 0.000000 0.668719 0.000000 0.000000 255 254 0
0.733269 -0.484373 -0.061145 0.743515 0.000000 0.668719 0.000000 0.000000 250 0 255
0.085449 0.484374 0.659133 0.743515 0.000000 0.668719 1.000000 1.000000 15 255 0
0.085449 0.484374 0.659133 -0.000000 1.000000 0.000000 0.000000 0.000000 15 255 0
-0.634829 -0.484373 0.011313 -0.743515 -0.000000 -0.668719 0.000000 0.000000 255 1 1
0.733269 -0.484373 -0.061145 0.000001 -1.000000 -0.000000 0.000000 0.000000 250 0 255
0.085449 -0.484373 0.659133 0.000001 -1.000000 -0.000000 0.000000 0.000000 255 254 0
0.012991 -0.484373 -0.708965 0.000001 -1.000000 -0.000000 1.000000 1.000000 15 255 0
0.085449 -0.484373 0.659133 -0.668719 0.000000 0.743515 0.000000 0.000000 255 254 0
3 0 1 2
3 3 4 5
3 6 7 8
3 9 10 11
3 12 13 14
3 15 16 17
3 18 0 2
3 19 20 21
3 22 6 8
3 23 9 11
3 24 25 26
3 27 15 17
