# Blender v2.73 (sub 0) OBJ File: '1x1_cube.blend'
# www.blender.org
mtllib 1x1_cube.mtl
o GrassCube_Cube.001
v 0.000000 0.000000 0.000000
v 0.000000 0.000000 -1.000000
v 1.000000 0.000000 -1.000000
v 1.000000 0.000000 0.000000
v 0.000000 1.000000 0.000000
v 0.000000 1.000000 -1.000000
v 1.000000 1.000000 -1.000000
v 1.000000 1.000000 0.000000
vt 1.000000 1.000000
vt 1.000000 0.000000
vt 0.000000 0.000000
vt 0.000000 1.000000
vn -1.000000 0.000000 0.000000
vn 0.000000 0.000000 -1.000000
vn 1.000000 0.000000 0.000000
vn 0.000000 0.000000 1.000000
vn 0.000000 -1.000000 0.000000
vn 0.000000 1.000000 0.000000
usemtl Material.001
s off
f 6/1/1 2/2/1 1/3/1
f 7/1/2 3/2/2 2/3/2
f 8/4/3 4/3/3 3/2/3
f 5/4/4 1/3/4 4/2/4
f 2/4/5 3/1/5 4/2/5
f 7/1/6 6/4/6 5/3/6
f 5/4/1 6/1/1 1/3/1
f 6/4/2 7/1/2 2/3/2
f 7/1/3 8/4/3 3/2/3
f 8/1/4 5/4/4 4/2/4
f 1/3/5 2/4/5 4/2/5
f 8/2/6 7/1/6 5/3/6
