# Blender v2.73 (sub 0) OBJ File: 'cube.blend'
# www.blender.org
mtllib insetcube.mtl
o Cube
v 0.800000 1.000000 0.800000
v 0.800000 -1.000000 0.800000
v 0.700000 -0.700000 0.800000
v 0.700000 0.700000 0.800000
v 0.800000 -0.700000 0.700000
v 0.800000 0.700000 0.700000
v 0.964645 -0.964645 1.000000
v 0.964645 -1.000000 0.964645
v 1.000000 -0.964645 0.964645
v 0.964644 1.000000 0.964645
v 0.964644 0.964645 1.000001
v 0.999999 0.964645 0.964645
v 0.964644 -0.800000 1.000000
v 1.000000 -0.800000 0.964645
v 1.000000 0.800000 0.964645
v 0.964644 0.800000 1.000000
v 1.000000 -0.964645 0.800000
v 0.964645 -1.000000 0.800000
v 0.964644 1.000000 0.800000
v 1.000000 0.964645 0.800001
v 0.800000 -0.964645 1.000000
v 0.800000 -1.000000 0.964645
v 0.799999 1.000000 0.964645
v 0.799999 0.964645 1.000000
v 1.000000 -0.829389 0.800000
v 0.973713 -0.786857 0.786857
v 1.000000 -0.800000 0.829390
v 0.973713 0.786857 0.786857
v 1.000000 0.829389 0.800000
v 1.000000 0.800000 0.829390
v 0.786856 -0.786857 0.973714
v 0.800000 -0.829389 1.000000
v 0.829389 -0.800000 1.000000
v 0.800000 0.829389 1.000000
v 0.786856 0.786857 0.973714
v 0.829389 0.800000 1.000000
v 0.000000 -1.000000 0.800000
v 0.000000 1.000000 0.800000
v -0.800000 1.000000 0.800000
v -0.800000 -1.000000 0.800000
v 0.000000 -0.700000 0.800000
v 0.000000 0.700000 0.800000
v -0.700000 -0.700000 0.800000
v -0.700000 0.700000 0.800000
v -0.800000 -0.700000 0.700000
v -0.800000 0.700000 0.700000
v -0.964645 -0.964645 1.000000
v -0.964645 -1.000000 0.964645
v -1.000000 -0.964645 0.964645
v 0.000000 -1.000000 0.964644
v 0.000000 -0.964645 1.000000
v -0.964644 1.000000 0.964645
v -0.964644 0.964645 1.000001
v -0.999999 0.964645 0.964645
v 0.000000 0.964645 1.000000
v 0.000000 1.000000 0.964644
v -0.964644 -0.800000 1.000000
v -1.000000 -0.800000 0.964645
v -1.000000 0.800000 0.964645
v -0.964644 0.800000 1.000000
v -1.000000 -0.964645 0.800000
v -0.964645 -1.000000 0.800000
v -0.964644 1.000000 0.800000
v -1.000000 0.964645 0.800001
v -0.800000 -0.964645 1.000000
v -0.800000 -1.000000 0.964645
v -0.799999 1.000000 0.964645
v -0.799999 0.964645 1.000000
v 0.000000 -0.829389 1.000000
v 0.000000 -0.786857 0.973713
v 0.000000 0.786857 0.973713
v 0.000000 0.829389 1.000000
v -1.000000 -0.829389 0.800000
v -0.973713 -0.786857 0.786857
v -1.000000 -0.800000 0.829390
v -0.973713 0.786857 0.786857
v -1.000000 0.829389 0.800000
v -1.000000 0.800000 0.829390
v -0.786856 -0.786857 0.973714
v -0.800000 -0.829389 1.000000
v -0.829389 -0.800000 1.000000
v -0.800000 0.829389 1.000000
v -0.786856 0.786857 0.973714
v -0.829389 0.800000 1.000000
v 0.800000 -1.000000 0.000000
v 0.800000 1.000000 0.000000
v 0.800000 1.000000 -0.800000
v 0.800000 -1.000000 -0.800000
v 0.700000 -0.700000 -0.800000
v 0.700000 0.700000 -0.800000
v 0.800000 -0.700000 0.000000
v 0.800000 0.700000 0.000000
v 0.800000 -0.700000 -0.700000
v 0.800000 0.700000 -0.700000
v 1.000000 -0.964645 0.000000
v 0.964645 -1.000000 0.000000
v 0.964645 -0.964645 -1.000000
v 0.964645 -1.000000 -0.964645
v 1.000000 -0.964645 -0.964645
v 0.964645 1.000000 0.000000
v 1.000000 0.964645 0.000000
v 0.964644 1.000000 -0.964645
v 0.964644 0.964645 -1.000001
v 0.999999 0.964645 -0.964645
v 0.964644 -0.800000 -1.000000
v 1.000000 -0.800000 -0.964645
v 1.000000 0.800000 -0.964645
v 0.964644 0.800000 -1.000000
v 1.000000 -0.964645 -0.800000
v 0.964645 -1.000000 -0.800000
v 0.964644 1.000000 -0.800000
v 1.000000 0.964645 -0.800001
v 0.800000 -0.964645 -1.000000
v 0.800000 -1.000000 -0.964645
v 0.799999 1.000000 -0.964645
v 0.799999 0.964645 -1.000000
v 0.973714 -0.786857 0.000000
v 1.000000 -0.829389 0.000000
v 1.000000 0.829389 0.000000
v 0.973714 0.786857 0.000000
v 1.000000 -0.829389 -0.800000
v 0.973713 -0.786857 -0.786857
v 1.000000 -0.800000 -0.829390
v 0.973713 0.786857 -0.786857
v 1.000000 0.829389 -0.800000
v 1.000000 0.800000 -0.829390
v 0.786856 -0.786857 -0.973714
v 0.800000 -0.829389 -1.000000
v 0.829389 -0.800000 -1.000000
v 0.800000 0.829389 -1.000000
v 0.786856 0.786857 -0.973714
v 0.829389 0.800000 -1.000000
v 0.000000 -1.000000 0.000000
v 0.000000 -1.000000 -0.800000
v 0.000000 1.000000 -0.800000
v -0.800000 -1.000000 0.000000
v -0.800000 1.000000 0.000000
v -0.800000 1.000000 -0.800000
v -0.800000 -1.000000 -0.800000
v 0.000000 -0.700000 -0.800000
v 0.000000 0.700000 -0.800000
v -0.700000 -0.700000 -0.800000
v -0.700000 0.700000 -0.800000
v -0.800000 -0.700000 0.000000
v -0.800000 0.700000 0.000000
v -0.800000 -0.700000 -0.700000
v -0.800000 0.700000 -0.700000
v -1.000000 -0.964645 0.000000
v -0.964645 -1.000000 0.000000
v -0.964645 -0.964645 -1.000000
v -0.964645 -1.000000 -0.964645
v -1.000000 -0.964645 -0.964645
v 0.000000 -1.000000 -0.964644
v 0.000000 -0.964645 -1.000000
v -0.964645 1.000000 0.000000
v -1.000000 0.964645 0.000000
v -0.964644 1.000000 -0.964645
v -0.964644 0.964645 -1.000001
v -0.999999 0.964645 -0.964645
v 0.000000 0.964645 -1.000000
v 0.000000 1.000000 -0.964644
v -0.964644 -0.800000 -1.000000
v -1.000000 -0.800000 -0.964645
v -1.000000 0.800000 -0.964645
v -0.964644 0.800000 -1.000000
v -1.000000 -0.964645 -0.800000
v -0.964645 -1.000000 -0.800000
v -0.964644 1.000000 -0.800000
v -1.000000 0.964645 -0.800001
v -0.800000 -0.964645 -1.000000
v -0.800000 -1.000000 -0.964645
v -0.799999 1.000000 -0.964645
v -0.799999 0.964645 -1.000000
v -0.973714 -0.786857 0.000000
v -1.000000 -0.829389 0.000000
v 0.000000 -0.829389 -1.000000
v 0.000000 -0.786857 -0.973713
v -1.000000 0.829389 0.000000
v -0.973714 0.786857 0.000000
v 0.000000 0.786857 -0.973713
v 0.000000 0.829389 -1.000000
v -1.000000 -0.829389 -0.800000
v -0.973713 -0.786857 -0.786857
v -1.000000 -0.800000 -0.829390
v -0.973713 0.786857 -0.786857
v -1.000000 0.829389 -0.800000
v -1.000000 0.800000 -0.829390
v -0.786856 -0.786857 -0.973714
v -0.800000 -0.829389 -1.000000
v -0.829389 -0.800000 -1.000000
v -0.800000 0.829389 -1.000000
v -0.786856 0.786857 -0.973714
v -0.829389 0.800000 -1.000000
v 0.000000 1.000000 0.000000
vt 0.604177 0.705240
vt 0.411869 0.705240
vt 0.411869 0.655798
vt 0.075609 0.640250
vt 0.075609 0.064989
vt 0.110298 0.096739
vt 0.986469 0.075968
vt 0.927975 0.075612
vt 0.927975 0.015605
vt 0.643755 0.073882
vt 0.643755 0.013875
vt 0.927975 0.719474
vt 0.643755 0.721204
vt 0.643755 0.661197
vt 0.611242 0.645055
vt 0.643755 0.705240
vt 0.604177 0.655798
vt 0.643755 0.645055
vt 0.611242 0.060185
vt 0.643755 0.000000
vt 0.643755 0.060185
vt 0.011802 0.000000
vt 0.070359 0.049442
vt 0.059907 0.060185
vt 0.986469 0.367540
vt 0.986469 0.659111
vt 0.927975 0.659467
vt 0.927975 0.367184
vt 0.643755 0.369625
vt 0.059907 0.645055
vt 0.070359 0.655798
vt 0.011802 0.705240
vt 0.594103 0.640250
vt 0.527531 0.608500
vt 0.527531 0.096739
vt 0.986469 0.719118
vt 0.010506 0.707295
vt 0.074606 0.705240
vt 0.074606 0.960365
vt 0.277412 0.707295
vt 0.277412 0.994076
vt 0.213312 0.960365
vt 0.359261 0.608500
vt 0.359261 0.096739
vt 0.011802 0.645055
vt 0.011802 0.060185
vt 0.604177 0.049442
vt 0.411869 0.049442
vt 0.411869 0.000000
vt 0.110298 0.608501
vt 0.354888 0.705240
vt 0.070359 0.705240
vt 0.138706 0.707295
vt 0.138706 0.994076
vt 0.987439 0.732993
vt 1.000000 0.720031
vt 0.986469 0.015961
vt 0.987439 0.002086
vt 1.000000 0.015048
vt 1.000000 0.660024
vt 0.928945 0.733349
vt 0.644726 0.735079
vt 0.000000 0.705240
vt 0.000000 0.645055
vt 1.000000 0.075055
vt 0.644726 0.000000
vt 0.928945 0.001730
vt 0.000000 0.060185
vt 0.000000 0.000000
vt 0.213312 0.992021
vt 0.149212 0.994076
vt 0.149212 0.738951
vt 0.594103 0.064989
vt 0.149212 0.708429
vt 0.000000 0.708429
vt 0.010506 0.994076
vt 0.354889 0.049442
vt 0.354888 0.655798
vt 0.070359 0.000000
vt 0.604177 0.000000
vt 0.927975 0.367896
vt 0.213312 0.705240
vt 1.000000 0.366626
vt 0.149212 1.000000
vt 0.355463 0.640250
vt 1.000000 0.368453
vt 0.000000 1.000000
vt 0.355463 0.064989
vt 0.354889 0.000000
vt 0.643755 0.365453
vn -0.000000 0.000000 1.000000
vn 0.447200 0.000000 -0.894400
vn 0.000000 1.000000 0.000000
vn 0.000000 -1.000000 0.000000
vn 1.000000 0.000000 0.000000
vn -0.894400 -0.000000 0.447200
vn -0.000000 -0.894400 0.447200
vn 0.447200 -0.894400 0.000000
vn -0.000000 0.894400 0.447200
vn 0.577400 -0.577400 0.577300
vn 0.577300 0.577300 0.577400
vn 0.707100 -0.707100 0.000000
vn -0.000000 -0.707100 0.707100
vn 0.707100 0.000000 0.707100
vn 0.707100 0.707100 0.000000
vn -0.000000 0.707100 0.707100
vn 0.447200 0.894400 0.000000
vn 0.831700 0.392700 -0.392700
vn 0.831700 -0.392700 -0.392700
vn -0.392700 0.392700 0.831700
vn -0.392700 -0.392700 0.831700
vn -0.000000 0.525700 0.850700
vn -0.000000 -0.525700 0.850700
vn 0.850700 0.525700 0.000000
vn 0.850700 -0.525700 0.000000
vn 0.850700 0.000000 -0.525700
vn -0.525700 -0.000000 0.850700
vn -0.447200 0.000000 -0.894400
vn -1.000000 0.000000 0.000000
vn 0.894400 -0.000000 0.447200
vn -0.447200 -0.894400 0.000000
vn -0.577400 -0.577400 0.577300
vn -0.577300 0.577300 0.577400
vn -0.707100 -0.707100 0.000000
vn -0.707100 0.000000 0.707100
vn -0.707100 0.707100 0.000000
vn -0.447200 0.894400 0.000000
vn -0.831700 0.392700 -0.392700
vn -0.831700 -0.392700 -0.392700
vn 0.392700 0.392700 0.831700
vn 0.392700 -0.392700 0.831700
vn -0.850700 0.525700 0.000000
vn -0.850700 -0.525700 0.000000
vn -0.850700 0.000000 -0.525700
vn 0.525700 -0.000000 0.850700
vn -0.000000 0.000000 -1.000000
vn 0.447200 0.000000 0.894400
vn -0.894400 -0.000000 -0.447200
vn -0.000000 -0.894400 -0.447200
vn -0.000000 0.894400 -0.447200
vn 0.577400 -0.577400 -0.577300
vn 0.577300 0.577300 -0.577400
vn -0.000000 -0.707100 -0.707100
vn 0.707100 0.000000 -0.707100
vn -0.000000 0.707100 -0.707100
vn 0.831700 0.392700 0.392700
vn 0.831700 -0.392700 0.392700
vn -0.392700 0.392700 -0.831700
vn -0.392700 -0.392700 -0.831700
vn -0.000000 0.525700 -0.850700
vn -0.000000 -0.525700 -0.850700
vn 0.850700 0.000000 0.525700
vn -0.525700 -0.000000 -0.850700
vn -0.447200 0.000000 0.894400
vn 0.894400 -0.000000 -0.447200
vn -0.577400 -0.577400 -0.577300
vn -0.577300 0.577300 -0.577400
vn -0.707100 0.000000 -0.707100
vn -0.831700 0.392700 0.392700
vn -0.831700 -0.392700 0.392700
vn 0.392700 0.392700 -0.831700
vn 0.392700 -0.392700 -0.831700
vn -0.850700 0.000000 0.525700
vn 0.525700 -0.000000 -0.850700
usemtl Material
s off
f 24/1/1 55/2/1 72/3/1
f 28/4/2 26/5/2 5/6/2
f 19/7/3 1/8/3 23/9/3
f 1/8/3 38/10/3 56/11/3
f 22/12/4 50/13/4 37/14/4
f 36/15/1 11/16/1 34/17/1
f 16/18/1 36/15/1 33/19/1
f 7/20/1 13/21/1 33/19/1
f 9/22/5 25/23/5 27/24/5
f 96/25/4 18/26/4 2/27/4
f 86/28/3 1/8/3 19/7/3
f 2/27/4 37/14/4 133/29/4
f 30/30/5 29/31/5 12/32/5
f 35/33/6 4/34/6 3/35/6
f 8/36/4 22/12/4 2/27/4
f 71/37/7 42/38/7 4/39/7
f 120/40/8 28/41/8 6/42/8
f 4/34/1 42/43/1 41/44/1
f 30/30/5 15/45/5 14/46/5
f 32/47/1 69/48/1 51/49/1
f 92/43/5 6/50/5 5/6/5
f 101/51/5 20/52/5 29/31/5
f 70/53/9 31/54/9 3/39/9
f 7/55/10 8/36/10 9/56/10
f 10/57/11 11/58/11 12/59/11
f 17/60/12 9/56/12 8/36/12
f 21/61/13 51/62/13 50/13/13
f 12/32/14 11/63/14 16/64/14
f 10/57/15 12/59/15 20/65/15
f 56/11/16 55/66/16 24/67/16
f 14/46/14 13/68/14 7/69/14
f 15/45/14 16/64/14 13/68/14
f 17/60/12 18/26/12 96/25/12
f 100/25/15 19/7/15 20/65/15
f 21/61/13 22/12/13 8/36/13
f 10/57/16 23/9/16 24/67/16
f 117/70/17 91/71/17 5/72/17
f 25/23/18 26/5/18 27/24/18
f 28/4/19 29/31/19 30/30/19
f 31/73/20 32/47/20 33/19/20
f 34/17/21 35/33/21 36/15/21
f 31/54/22 70/53/22 69/74/22
f 72/75/23 71/37/23 35/76/23
f 26/5/24 25/23/24 118/77/24
f 119/78/25 29/31/25 28/4/25
f 27/24/26 26/5/26 28/4/26
f 31/73/27 33/19/27 36/15/27
f 118/77/5 25/23/5 17/79/5
f 38/10/3 1/8/3 86/28/3
f 72/3/1 55/2/1 68/1/1
f 46/50/28 45/6/28 74/5/28
f 63/7/3 52/57/3 67/9/3
f 67/9/3 56/11/3 38/10/3
f 37/14/4 50/13/4 66/12/4
f 53/16/1 84/15/1 82/17/1
f 81/19/1 84/15/1 60/18/1
f 47/20/1 65/80/1 80/47/1
f 73/23/29 49/22/29 75/24/29
f 149/25/4 136/81/4 40/27/4
f 63/7/3 39/8/3 137/28/3
f 133/29/4 37/14/4 40/27/4
f 78/30/29 59/45/29 54/32/29
f 79/73/30 43/35/30 44/34/30
f 40/27/4 66/12/4 48/36/4
f 44/39/7 42/38/7 71/37/7
f 179/40/31 145/82/31 46/42/31
f 41/44/1 42/43/1 44/34/1
f 58/46/29 59/45/29 78/30/29
f 51/49/1 69/48/1 80/47/1
f 45/6/29 46/50/29 145/43/29
f 77/31/29 64/52/29 156/51/29
f 70/53/9 41/38/9 43/39/9
f 47/55/32 49/56/32 48/36/32
f 52/57/33 54/59/33 53/58/33
f 61/60/34 62/26/34 48/36/34
f 65/61/13 66/12/13 50/13/13
f 60/64/35 53/63/35 54/32/35
f 64/65/36 54/59/36 52/57/36
f 68/67/16 55/66/16 56/11/16
f 47/69/35 57/68/35 58/46/35
f 57/68/35 60/64/35 59/45/35
f 149/25/34 62/26/34 61/60/34
f 155/25/36 156/83/36 64/65/36
f 48/36/13 66/12/13 65/61/13
f 52/57/16 53/58/16 68/67/16
f 45/72/37 144/71/37 174/70/37
f 73/23/38 75/24/38 74/5/38
f 76/4/39 78/30/39 77/31/39
f 79/73/40 81/19/40 80/47/40
f 82/17/41 84/15/41 83/33/41
f 79/54/22 80/84/22 69/74/22
f 83/76/23 71/37/23 72/75/23
f 175/77/42 73/23/42 74/5/42
f 178/78/43 179/85/43 76/4/43
f 76/4/44 74/5/44 75/24/44
f 84/15/45 81/19/45 79/73/45
f 61/79/29 73/23/29 175/77/29
f 137/28/3 39/8/3 38/10/3
f 181/3/46 160/2/46 116/1/46
f 94/50/47 93/6/47 122/5/47
f 111/7/3 102/57/3 115/9/3
f 115/9/3 161/11/3 135/10/3
f 134/14/4 153/13/4 114/12/4
f 103/16/46 132/15/46 130/17/46
f 129/19/46 132/15/46 108/18/46
f 97/20/46 113/80/46 128/47/46
f 121/23/5 99/22/5 123/24/5
f 96/25/4 85/81/4 88/27/4
f 111/7/3 87/8/3 86/28/3
f 133/29/4 134/14/4 88/27/4
f 126/30/5 107/45/5 104/32/5
f 127/73/48 89/35/48 90/34/48
f 88/27/4 114/12/4 98/36/4
f 90/39/49 141/38/49 180/37/49
f 120/40/8 92/82/8 94/42/8
f 140/44/46 141/43/46 90/34/46
f 106/46/5 107/45/5 126/30/5
f 154/49/46 176/48/46 128/47/46
f 93/6/5 94/50/5 92/43/5
f 125/31/5 112/52/5 101/51/5
f 177/53/50 140/38/50 89/39/50
f 97/55/51 99/56/51 98/36/51
f 102/57/52 104/59/52 103/58/52
f 109/60/12 110/26/12 98/36/12
f 113/61/53 114/12/53 153/13/53
f 108/64/54 103/63/54 104/32/54
f 112/65/15 104/59/15 102/57/15
f 116/67/55 160/66/55 161/11/55
f 97/69/54 105/68/54 106/46/54
f 105/68/54 108/64/54 107/45/54
f 96/25/12 110/26/12 109/60/12
f 100/25/15 101/83/15 112/65/15
f 98/36/53 114/12/53 113/61/53
f 102/57/55 103/58/55 116/67/55
f 93/72/17 91/71/17 117/70/17
f 121/23/56 123/24/56 122/5/56
f 124/4/57 126/30/57 125/31/57
f 127/73/58 129/19/58 128/47/58
f 130/17/59 132/15/59 131/33/59
f 127/54/60 128/84/60 176/74/60
f 131/76/61 180/37/61 181/75/61
f 118/77/24 121/23/24 122/5/24
f 119/78/25 120/85/25 124/4/25
f 124/4/62 122/5/62 123/24/62
f 132/15/63 129/19/63 127/73/63
f 109/79/5 121/23/5 118/77/5
f 86/28/3 87/8/3 135/10/3
f 173/1/46 160/2/46 181/3/46
f 185/4/64 183/5/64 146/6/64
f 168/7/3 138/8/3 172/9/3
f 138/8/3 135/10/3 161/11/3
f 171/12/4 153/13/4 134/14/4
f 193/15/46 158/16/46 191/17/46
f 165/18/46 193/15/46 190/19/46
f 150/20/46 162/21/46 190/19/46
f 152/22/29 182/23/29 184/24/29
f 149/25/4 167/26/4 139/27/4
f 137/28/3 138/8/3 168/7/3
f 139/27/4 134/14/4 133/29/4
f 187/30/29 186/31/29 159/32/29
f 192/33/65 143/34/65 142/35/65
f 151/36/4 171/12/4 139/27/4
f 180/37/49 141/38/49 143/39/49
f 179/40/31 185/41/31 147/42/31
f 143/34/46 141/43/46 140/44/46
f 187/30/29 164/45/29 163/46/29
f 189/47/46 176/48/46 154/49/46
f 145/43/29 147/50/29 146/6/29
f 156/51/29 169/52/29 186/31/29
f 177/53/50 188/54/50 142/39/50
f 150/55/66 151/36/66 152/56/66
f 157/57/67 158/58/67 159/59/67
f 166/60/34 152/56/34 151/36/34
f 170/61/53 154/62/53 153/13/53
f 159/32/68 158/63/68 165/64/68
f 157/57/36 159/59/36 169/65/36
f 161/11/55 160/66/55 173/67/55
f 163/46/68 162/68/68 150/69/68
f 164/45/68 165/64/68 162/68/68
f 166/60/34 167/26/34 149/25/34
f 155/25/36 168/7/36 169/65/36
f 170/61/53 171/12/53 151/36/53
f 157/57/55 172/9/55 173/67/55
f 174/70/37 144/71/37 146/72/37
f 182/23/69 183/5/69 184/24/69
f 185/4/70 186/31/70 187/30/70
f 188/73/71 189/47/71 190/19/71
f 191/17/72 192/33/72 193/15/72
f 188/54/60 177/53/60 176/74/60
f 181/75/61 180/37/61 192/76/61
f 183/5/42 182/23/42 175/77/42
f 178/78/43 186/31/43 185/4/43
f 184/24/73 183/5/73 185/4/73
f 188/73/74 190/19/74 193/15/74
f 175/77/29 182/23/29 166/79/29
f 135/10/3 138/8/3 137/28/3
f 34/17/1 24/1/1 72/3/1
f 6/50/2 28/4/2 5/6/2
f 10/57/3 19/7/3 23/9/3
f 23/9/3 1/8/3 56/11/3
f 2/27/4 22/12/4 37/14/4
f 11/16/1 36/15/1 16/18/1
f 11/16/1 24/1/1 34/17/1
f 13/21/1 16/18/1 33/19/1
f 32/47/1 21/80/1 7/20/1
f 7/20/1 33/19/1 32/47/1
f 25/23/5 9/22/5 17/79/5
f 9/22/5 27/24/5 14/46/5
f 85/81/4 96/25/4 2/27/4
f 100/25/3 86/28/3 19/7/3
f 85/81/4 2/27/4 133/29/4
f 12/32/5 15/45/5 30/30/5
f 29/31/5 20/52/5 12/32/5
f 31/73/6 35/33/6 3/35/6
f 18/26/4 8/36/4 2/27/4
f 35/76/7 71/37/7 4/39/7
f 92/82/8 120/40/8 6/42/8
f 3/35/1 4/34/1 41/44/1
f 27/24/5 30/30/5 14/46/5
f 21/80/1 32/47/1 51/49/1
f 91/44/5 92/43/5 5/6/5
f 119/78/5 101/51/5 29/31/5
f 41/38/9 70/53/9 3/39/9
f 18/26/12 17/60/12 8/36/12
f 22/12/13 21/61/13 50/13/13
f 15/45/14 12/32/14 16/64/14
f 19/7/15 10/57/15 20/65/15
f 23/9/16 56/11/16 24/67/16
f 9/22/14 14/46/14 7/69/14
f 14/46/14 15/45/14 13/68/14
f 95/86/12 17/60/12 96/25/12
f 101/83/15 100/25/15 20/65/15
f 7/55/13 21/61/13 8/36/13
f 11/58/16 10/57/16 24/67/16
f 26/82/17 117/70/17 5/72/17
f 32/84/22 31/54/22 69/74/22
f 34/87/23 72/75/23 35/76/23
f 117/88/24 26/5/24 118/77/24
f 120/85/25 119/78/25 28/4/25
f 30/30/26 27/24/26 28/4/26
f 35/33/27 31/73/27 36/15/27
f 95/89/5 118/77/5 17/79/5
f 194/90/3 38/10/3 86/28/3
f 82/17/1 72/3/1 68/1/1
f 76/4/28 46/50/28 74/5/28
f 39/8/3 63/7/3 67/9/3
f 39/8/3 67/9/3 38/10/3
f 40/27/4 37/14/4 66/12/4
f 84/15/1 53/16/1 60/18/1
f 53/16/1 82/17/1 68/1/1
f 57/21/1 81/19/1 60/18/1
f 81/19/1 57/21/1 47/20/1
f 47/20/1 80/47/1 81/19/1
f 49/22/29 73/23/29 61/79/29
f 49/22/29 58/46/29 75/24/29
f 62/26/4 149/25/4 40/27/4
f 155/25/3 63/7/3 137/28/3
f 136/81/4 133/29/4 40/27/4
f 54/32/29 77/31/29 78/30/29
f 77/31/29 54/32/29 64/52/29
f 83/33/30 79/73/30 44/34/30
f 62/26/4 40/27/4 48/36/4
f 83/76/7 44/39/7 71/37/7
f 76/41/31 179/40/31 46/42/31
f 43/35/1 41/44/1 44/34/1
f 75/24/29 58/46/29 78/30/29
f 65/80/1 51/49/1 80/47/1
f 144/44/29 45/6/29 145/43/29
f 178/78/29 77/31/29 156/51/29
f 79/54/9 70/53/9 43/39/9
f 49/56/34 61/60/34 48/36/34
f 51/62/13 65/61/13 50/13/13
f 59/45/35 60/64/35 54/32/35
f 63/7/36 64/65/36 52/57/36
f 67/9/16 68/67/16 56/11/16
f 49/22/35 47/69/35 58/46/35
f 58/46/35 57/68/35 59/45/35
f 148/86/34 149/25/34 61/60/34
f 63/7/36 155/25/36 64/65/36
f 47/55/13 48/36/13 65/61/13
f 67/9/16 52/57/16 68/67/16
f 74/82/37 45/72/37 174/70/37
f 70/53/22 79/54/22 69/74/22
f 82/87/23 83/76/23 72/75/23
f 174/88/42 175/77/42 74/5/42
f 77/31/43 178/78/43 76/4/43
f 78/30/44 76/4/44 75/24/44
f 83/33/45 84/15/45 79/73/45
f 148/89/29 61/79/29 175/77/29
f 194/90/3 137/28/3 38/10/3
f 130/17/46 181/3/46 116/1/46
f 124/4/47 94/50/47 122/5/47
f 87/8/3 111/7/3 115/9/3
f 87/8/3 115/9/3 135/10/3
f 88/27/4 134/14/4 114/12/4
f 132/15/46 103/16/46 108/18/46
f 103/16/46 130/17/46 116/1/46
f 105/21/46 129/19/46 108/18/46
f 129/19/46 105/21/46 97/20/46
f 97/20/46 128/47/46 129/19/46
f 99/22/5 121/23/5 109/79/5
f 99/22/5 106/46/5 123/24/5
f 110/26/4 96/25/4 88/27/4
f 100/25/3 111/7/3 86/28/3
f 85/81/4 133/29/4 88/27/4
f 104/32/5 125/31/5 126/30/5
f 125/31/5 104/32/5 112/52/5
f 131/33/48 127/73/48 90/34/48
f 110/26/4 88/27/4 98/36/4
f 131/76/49 90/39/49 180/37/49
f 124/41/8 120/40/8 94/42/8
f 89/35/46 140/44/46 90/34/46
f 123/24/5 106/46/5 126/30/5
f 113/80/46 154/49/46 128/47/46
f 91/44/5 93/6/5 92/43/5
f 119/78/5 125/31/5 101/51/5
f 127/54/50 177/53/50 89/39/50
f 99/56/12 109/60/12 98/36/12
f 154/62/53 113/61/53 153/13/53
f 107/45/54 108/64/54 104/32/54
f 111/7/15 112/65/15 102/57/15
f 115/9/55 116/67/55 161/11/55
f 99/22/54 97/69/54 106/46/54
f 106/46/54 105/68/54 107/45/54
f 95/86/12 96/25/12 109/60/12
f 111/7/15 100/25/15 112/65/15
f 97/55/53 98/36/53 113/61/53
f 115/9/55 102/57/55 116/67/55
f 122/82/17 93/72/17 117/70/17
f 177/53/60 127/54/60 176/74/60
f 130/87/61 131/76/61 181/75/61
f 117/88/24 118/77/24 122/5/24
f 125/31/25 119/78/25 124/4/25
f 126/30/62 124/4/62 123/24/62
f 131/33/63 132/15/63 127/73/63
f 95/89/5 109/79/5 118/77/5
f 194/90/3 86/28/3 135/10/3
f 191/17/46 173/1/46 181/3/46
f 147/50/64 185/4/64 146/6/64
f 157/57/3 168/7/3 172/9/3
f 172/9/3 138/8/3 161/11/3
f 139/27/4 171/12/4 134/14/4
f 158/16/46 193/15/46 165/18/46
f 158/16/46 173/1/46 191/17/46
f 162/21/46 165/18/46 190/19/46
f 189/47/46 170/80/46 150/20/46
f 150/20/46 190/19/46 189/47/46
f 182/23/29 152/22/29 166/79/29
f 152/22/29 184/24/29 163/46/29
f 136/81/4 149/25/4 139/27/4
f 155/25/3 137/28/3 168/7/3
f 136/81/4 139/27/4 133/29/4
f 159/32/29 164/45/29 187/30/29
f 186/31/29 169/52/29 159/32/29
f 188/73/65 192/33/65 142/35/65
f 167/26/4 151/36/4 139/27/4
f 192/76/49 180/37/49 143/39/49
f 145/82/31 179/40/31 147/42/31
f 142/35/46 143/34/46 140/44/46
f 184/24/29 187/30/29 163/46/29
f 170/80/46 189/47/46 154/49/46
f 144/44/29 145/43/29 146/6/29
f 178/78/29 156/51/29 186/31/29
f 140/38/50 177/53/50 142/39/50
f 167/26/34 166/60/34 151/36/34
f 171/12/53 170/61/53 153/13/53
f 164/45/68 159/32/68 165/64/68
f 168/7/36 157/57/36 169/65/36
f 172/9/55 161/11/55 173/67/55
f 152/22/68 163/46/68 150/69/68
f 163/46/68 164/45/68 162/68/68
f 148/86/34 166/60/34 149/25/34
f 156/83/36 155/25/36 169/65/36
f 150/55/53 170/61/53 151/36/53
f 158/58/55 157/57/55 173/67/55
f 183/82/37 174/70/37 146/72/37
f 189/84/60 188/54/60 176/74/60
f 191/87/61 181/75/61 192/76/61
f 174/88/42 183/5/42 175/77/42
f 179/85/43 178/78/43 185/4/43
f 187/30/73 184/24/73 185/4/73
f 192/33/74 188/73/74 193/15/74
f 148/89/29 175/77/29 166/79/29
f 194/90/3 135/10/3 137/28/3
