# Blender v2.73 (sub 0) OBJ File: ''
# www.blender.org
mtllib st_fire_flame.mtl
o Plane.006_Plane.021
v 0.557267 0.200000 -0.011732
v -0.030251 0.200000 -0.011733
v 0.258692 0.970515 -0.011732
v -0.023195 0.200000 0.008267
v -0.475131 0.200000 0.008267
v -0.252867 0.792704 0.008268
v 0.387476 0.200000 0.028268
v -0.258147 0.200000 0.028267
v 0.059373 1.046720 0.028268
v -0.017197 0.200000 -0.049373
v -0.619779 0.200000 -0.049373
v -0.323427 0.990272 -0.049372
v 0.696164 0.200000 -0.029372
v -0.164667 0.200000 -0.029373
v 0.258692 1.328960 -0.029372
v 0.576212 0.200000 -0.069373
v -0.499827 0.200000 -0.069373
v 0.029373 1.611200 -0.069372
vt 1.000000 0.875000
vt 1.000000 0.000000
vt 0.125000 0.000000
vt 0.000000 1.000000
vt 0.871094 1.000000
vt 0.000000 0.070312
vn -0.000000 -0.000000 1.000000
usemtl Fire1.001
s off
f 1/1/1 3/2/1 2/3/1
f 4/1/1 6/2/1 5/3/1
f 7/1/1 9/2/1 8/3/1
usemtl Fire1
f 10/4/1 12/5/1 11/6/1
f 13/4/1 15/5/1 14/6/1
f 16/4/1 18/5/1 17/6/1
