# Blender v2.73 (sub 0) OBJ File: 'newWork2_THEROCK_GameExport.blend'
# www.blender.org
mtllib st_tree_top_2.mtl
o TreeTop2_Icosphere.002
v 0.949955 1.756760 0.697752
v -0.395805 1.749714 1.203052
v -1.340191 1.724152 0.016226
v -0.363941 1.804609 -1.088786
v 0.939795 1.777099 -0.682126
v 0.354924 4.183074 1.099534
v -1.063571 4.228926 0.780153
v -1.105156 4.188351 -0.725324
v 0.325244 4.108739 -1.047924
v 1.176850 4.229809 0.003093
v -0.017212 6.458292 0.002255
v -0.219683 1.085519 0.663763
v 0.556184 1.085520 0.411664
v 0.341416 1.593159 1.070781
v 1.117613 1.591479 0.003769
v 0.556184 1.085520 -0.404126
v -0.699205 1.085524 0.003769
v -0.913663 1.591475 0.663773
v -0.219683 1.085519 -0.656225
v -0.913652 1.591478 -0.656227
v 0.341745 1.591475 -1.064126
v 1.236953 2.885462 0.410152
v 1.208434 2.924529 -0.389859
v -0.012878 2.889270 1.416711
v 0.699046 2.940029 0.969651
v -1.431680 2.910535 0.490724
v -0.856529 2.924597 1.170086
v -0.851433 2.899961 -1.128822
v -1.359745 2.929848 -0.399033
v 0.706436 2.921288 -0.970122
v -0.021173 2.929953 -1.183014
v 0.959687 4.456680 0.694444
v -0.407841 4.554029 1.234064
v -1.229941 4.372491 0.040594
v -0.363720 4.485742 -1.045975
v 0.842289 4.325280 -0.595778
v 0.219788 5.657832 0.746257
v 0.793704 5.690668 0.023068
v -0.651079 5.769060 0.526749
v -0.714740 5.486489 -0.441063
v 0.173100 5.453501 -0.639238
v -0.005241 0.885520 0.003769
vt 0.141856 0.570428
vt 0.141856 0.430573
vt 0.002002 0.570428
vt 0.284713 0.713285
vt 0.144859 0.713285
vt 0.284713 0.573431
vt 0.998999 0.141856
vt 0.859145 0.141856
vt 0.998999 0.002002
vt 0.570428 0.570428
vt 0.430573 0.570428
vt 0.570428 0.430573
vt 0.570428 0.141856
vt 0.430573 0.141856
vt 0.570428 0.002002
vt 0.570428 0.284713
vt 0.430573 0.284713
vt 0.570428 0.144859
vt 0.427570 0.573431
vt 0.427570 0.713285
vt 0.287716 0.713285
vt 0.141856 0.002002
vt 0.141856 0.141856
vt 0.002002 0.141856
vt 0.001001 0.140855
vt 0.140855 0.001001
vt 0.001001 0.001001
vt 0.998999 0.144859
vt 0.859145 0.284713
vt 0.998999 0.284713
vt 0.858144 0.283712
vt 0.858144 0.143858
vt 0.997998 0.143858
vt 0.573431 0.856142
vt 0.713285 0.856142
vt 0.713285 0.716288
vt 0.716288 0.284713
vt 0.856142 0.284713
vt 0.856142 0.144859
vt 0.430573 0.427570
vt 0.570428 0.427570
vt 0.570428 0.287716
vt 0.716288 0.427570
vt 0.856142 0.427570
vt 0.856142 0.287716
vt 0.430573 0.856142
vt 0.570428 0.856142
vt 0.570428 0.716288
vt 0.856142 0.856142
vt 0.716288 0.856142
vt 0.856142 0.716288
vt 0.716288 0.570428
vt 0.856142 0.430573
vt 0.856142 0.570428
vt 0.713285 0.427570
vt 0.573431 0.427570
vt 0.713285 0.287716
vt 0.141856 0.998999
vt 0.002002 0.998999
vt 0.141856 0.859145
vt 0.001001 0.858144
vt 0.001001 0.997998
vt 0.140855 0.858144
vt 0.858144 0.001001
vt 0.997998 0.001001
vt 0.858144 0.140855
vt 0.855141 0.715287
vt 0.715287 0.715287
vt 0.715287 0.855141
vt 0.572430 0.715287
vt 0.572430 0.855141
vt 0.712284 0.715287
vt 0.570428 0.713285
vt 0.430573 0.713285
vt 0.570428 0.573431
vt 0.856142 0.713285
vt 0.716288 0.713285
vt 0.856142 0.573431
vt 0.573431 0.284713
vt 0.713285 0.144859
vt 0.713285 0.284713
vt 0.284713 0.856142
vt 0.144859 0.856142
vt 0.284713 0.716288
vt 0.855141 0.572430
vt 0.715287 0.572430
vt 0.715287 0.712284
vt 0.715287 0.429572
vt 0.715287 0.569427
vt 0.855141 0.429572
vt 0.427570 0.856142
vt 0.287716 0.856142
vt 0.427570 0.716288
vt 0.429572 0.855141
vt 0.569427 0.715287
vt 0.429572 0.715287
vt 0.426569 0.715287
vt 0.286715 0.715287
vt 0.286715 0.855141
vt 0.713285 0.002002
vt 0.713285 0.141856
vt 0.573431 0.141856
vt 0.715287 0.426569
vt 0.855141 0.286715
vt 0.715287 0.286715
vt 0.141856 0.856142
vt 0.002002 0.856142
vt 0.141856 0.716288
vt 0.143858 0.855141
vt 0.143858 0.715287
vt 0.283712 0.715287
vt 0.713285 0.573431
vt 0.573431 0.713285
vt 0.713285 0.713285
vt 0.715287 0.143858
vt 0.855141 0.143858
vt 0.715287 0.283712
vt 0.713285 0.430573
vt 0.713285 0.570428
vt 0.573431 0.570428
vt 0.856142 0.002002
vt 0.716288 0.141856
vt 0.856142 0.141856
vt 0.001001 0.715287
vt 0.140855 0.715287
vt 0.001001 0.855141
vt 0.715287 0.140855
vt 0.715287 0.001001
vt 0.855141 0.001001
vt 0.572430 0.712284
vt 0.712284 0.572430
vt 0.572430 0.572430
vt 0.429572 0.572430
vt 0.569427 0.572430
vt 0.429572 0.712284
vt 0.572430 0.569427
vt 0.572430 0.429572
vt 0.712284 0.429572
vt 0.426569 0.572430
vt 0.286715 0.572430
vt 0.286715 0.712284
vt 0.572430 0.286715
vt 0.572430 0.426569
vt 0.712284 0.286715
vt 0.283712 0.572430
vt 0.143858 0.572430
vt 0.143858 0.712284
vt 0.712284 0.143858
vt 0.572430 0.143858
vt 0.572430 0.283712
vt 0.141856 0.713285
vt 0.141856 0.573431
vt 0.002002 0.713285
vt 0.712284 0.001001
vt 0.572430 0.001001
vt 0.572430 0.140855
vt 0.287716 0.570428
vt 0.427570 0.570428
vt 0.427570 0.430573
vt 0.140855 0.572430
vt 0.001001 0.712284
vt 0.001001 0.572430
vt 0.569427 0.429572
vt 0.429572 0.429572
vt 0.429572 0.569427
vt 0.569427 0.286715
vt 0.429572 0.286715
vt 0.429572 0.426569
vt 0.286715 0.429572
vt 0.286715 0.569427
vt 0.426569 0.429572
vt 0.569427 0.143858
vt 0.429572 0.143858
vt 0.429572 0.283712
vt 0.144859 0.570428
vt 0.284713 0.570428
vt 0.284713 0.430573
vt 0.143858 0.429572
vt 0.143858 0.569427
vt 0.283712 0.429572
vt 0.569427 0.001001
vt 0.429572 0.001001
vt 0.429572 0.140855
vt 0.427570 0.144859
vt 0.287716 0.284713
vt 0.427570 0.284713
vt 0.427570 0.141856
vt 0.287716 0.141856
vt 0.427570 0.002002
vt 0.427570 0.287716
vt 0.427570 0.427570
vt 0.287716 0.427570
vt 0.001001 0.569427
vt 0.140855 0.429572
vt 0.001001 0.429572
vt 0.426569 0.286715
vt 0.286715 0.286715
vt 0.286715 0.426569
vt 0.284713 0.287716
vt 0.144859 0.427570
vt 0.284713 0.427570
vt 0.143858 0.426569
vt 0.143858 0.286715
vt 0.283712 0.286715
vt 0.284713 0.284713
vt 0.144859 0.284713
vt 0.284713 0.144859
vt 0.141856 0.287716
vt 0.002002 0.427570
vt 0.141856 0.427570
vt 0.426569 0.143858
vt 0.286715 0.283712
vt 0.286715 0.143858
vt 0.286715 0.140855
vt 0.426569 0.001001
vt 0.286715 0.001001
vt 0.001001 0.426569
vt 0.001001 0.286715
vt 0.140855 0.286715
vt 0.143858 0.143858
vt 0.283712 0.143858
vt 0.143858 0.283712
vt 0.284713 0.002002
vt 0.284713 0.141856
vt 0.144859 0.141856
vt 0.144859 0.998999
vt 0.284713 0.859145
vt 0.284713 0.998999
vt 0.143858 0.140855
vt 0.283712 0.001001
vt 0.143858 0.001001
vt 0.002002 0.284713
vt 0.141856 0.144859
vt 0.141856 0.284713
vt 0.001001 0.283712
vt 0.140855 0.143858
vt 0.001001 0.143858
vt 0.143858 0.997998
vt 0.283712 0.858144
vt 0.143858 0.858144
vn 0.751800 -0.577000 0.319100
vn 0.947400 -0.172100 0.269900
vn 0.125900 -0.223500 0.966500
vn -0.829800 -0.261200 0.493100
vn -0.530500 -0.265500 -0.805000
vn 0.556500 -0.094300 -0.825500
vn 0.720500 -0.006500 0.693400
vn -0.282800 -0.084100 0.955500
vn -0.995700 -0.044200 -0.081500
vn -0.062700 -0.064300 -0.996000
vn 0.756300 -0.010400 -0.654200
vn 0.459900 0.246500 0.853100
vn -0.637500 0.288300 0.714500
vn -0.917600 0.325800 -0.227800
vn 0.163600 0.303800 -0.938600
vn 0.864400 0.232800 -0.445800
vn 0.517100 0.528000 -0.673600
vn 0.621700 0.341600 -0.704900
vn 0.554200 0.298800 -0.776900
vn -0.169700 0.507300 -0.844900
vn -0.176700 0.463000 -0.868600
vn -0.481900 0.323300 -0.814400
vn -0.776800 0.616400 -0.128900
vn -0.915200 0.398900 -0.056300
vn -0.920200 0.289800 0.263300
vn -0.103100 0.660600 0.743600
vn -0.158100 0.472900 0.866800
vn 0.283900 0.247900 0.926200
vn 0.589800 0.636500 0.497000
vn 0.705400 0.409600 0.578400
vn 0.945100 0.244900 0.216500
vn 0.872400 0.160100 -0.461800
vn 0.752100 0.100900 -0.651200
vn 0.615600 0.146900 -0.774300
vn 0.051300 0.098800 -0.993800
vn -0.067600 0.072800 -0.995100
vn -0.451500 0.184500 -0.873000
vn -0.970200 0.146200 -0.193200
vn -0.990600 0.112800 -0.077600
vn -0.944800 0.208300 0.253000
vn -0.608800 0.137000 0.781400
vn -0.278900 0.039100 0.959500
vn 0.248000 0.163600 0.954900
vn 0.536400 0.060600 0.841800
vn 0.721000 0.001800 0.693000
vn 0.957700 0.121800 0.260800
vn 0.281000 0.027400 -0.959300
vn 0.280700 -0.009100 -0.959800
vn 0.008800 -0.086100 -0.996200
vn -0.820100 0.017600 -0.571900
vn -0.812700 -0.163400 -0.559300
vn -0.845900 -0.185900 -0.499900
vn -0.762000 0.071500 0.643600
vn -0.744200 -0.209000 0.634400
vn -0.663900 -0.240500 0.708100
vn 0.528000 0.057600 0.847300
vn 0.534200 -0.078600 0.841700
vn 0.536400 -0.079300 0.840200
vn 0.998800 0.034400 -0.033900
vn 0.996100 -0.079500 -0.039400
vn 0.946700 -0.148900 -0.285700
vn 0.562800 -0.557500 -0.610300
vn 0.206900 -0.742900 -0.636700
vn -0.130900 -0.530200 -0.837700
vn -0.387200 -0.531100 -0.753700
vn -0.541600 -0.742900 -0.393500
vn -0.677000 -0.673700 -0.296500
vn -0.669800 -0.678200 0.302300
vn -0.541600 -0.742900 0.393500
vn -0.459400 -0.630100 0.626000
vn 0.754300 -0.557700 -0.346500
vn 0.669500 -0.742900 0.000000
vn 0.005800 -0.629400 0.777100
vn 0.207400 -0.741200 0.638400
vn 0.534000 -0.576800 0.618200
vn 0.103700 -0.942000 0.319200
vn 0.335600 -0.942000 0.000000
vn -0.271500 -0.942000 0.197200
vn -0.271500 -0.942000 -0.197200
vn 0.103700 -0.942000 -0.319200
usemtl Leaf.002
s off
f 1/1/1 13/2/1 15/3/1
f 1/4/2 15/5/2 22/6/2
f 2/7/3 14/8/3 24/9/3
f 3/10/4 18/11/4 26/12/4
f 4/13/5 20/14/5 28/15/5
f 5/16/6 21/17/6 30/18/6
f 1/19/7 22/20/7 25/21/7
f 2/22/8 24/23/8 27/24/8
f 3/25/9 26/26/9 29/27/9
f 4/28/10 28/29/10 31/30/10
f 5/31/11 30/32/11 23/33/11
f 6/34/12 32/35/12 37/36/12
f 7/37/13 33/38/13 39/39/13
f 8/40/14 34/41/14 40/42/14
f 9/43/15 35/44/15 41/45/15
f 10/46/16 36/47/16 38/48/16
f 38/49/17 41/50/17 11/51/17
f 38/52/18 36/53/18 41/54/18
f 36/55/19 9/56/19 41/57/19
f 41/58/20 40/59/20 11/60/20
f 41/61/21 35/62/21 40/63/21
f 35/64/22 8/65/22 40/66/22
f 40/67/23 39/68/23 11/69/23
f 40/70/24 34/71/24 39/72/24
f 34/73/25 7/74/25 39/75/25
f 39/76/26 37/77/26 11/78/26
f 39/79/27 33/80/27 37/81/27
f 33/82/28 6/83/28 37/84/28
f 37/85/29 38/86/29 11/87/29
f 37/88/30 32/89/30 38/90/30
f 32/91/31 10/92/31 38/93/31
f 23/94/32 36/95/32 10/96/32
f 23/97/33 30/98/33 36/99/33
f 30/100/34 9/101/34 36/102/34
f 31/103/35 35/104/35 9/105/35
f 31/106/36 28/107/36 35/108/36
f 28/109/37 8/110/37 35/111/37
f 29/112/38 34/113/38 8/114/38
f 29/115/39 26/116/39 34/117/39
f 26/118/40 7/119/40 34/120/40
f 27/121/41 33/122/41 7/123/41
f 27/124/42 24/125/42 33/126/42
f 24/127/43 6/128/43 33/129/43
f 25/130/44 32/131/44 6/132/44
f 25/133/45 22/134/45 32/135/45
f 22/136/46 10/137/46 32/138/46
f 30/139/47 31/140/47 9/141/47
f 30/142/48 21/143/48 31/144/48
f 21/145/49 4/146/49 31/147/49
f 28/148/50 29/149/50 8/150/50
f 28/151/51 20/152/51 29/153/51
f 20/154/52 3/155/52 29/156/52
f 26/157/53 27/158/53 7/159/53
f 26/160/54 18/161/54 27/162/54
f 18/163/55 2/164/55 27/165/55
f 24/166/56 25/167/56 6/168/56
f 24/169/57 14/170/57 25/171/57
f 14/172/58 1/173/58 25/174/58
f 22/175/59 23/176/59 10/177/59
f 22/178/60 15/179/60 23/180/60
f 15/181/61 5/182/61 23/183/61
f 16/184/62 21/185/62 5/186/62
f 16/187/63 19/188/63 21/189/63
f 19/190/64 4/191/64 21/192/64
f 19/193/65 20/194/65 4/195/65
f 19/196/66 17/197/66 20/198/66
f 17/199/67 3/200/67 20/201/67
f 17/202/68 18/203/68 3/204/68
f 17/205/69 12/206/69 18/207/69
f 12/208/70 2/209/70 18/210/70
f 15/211/71 16/212/71 5/213/71
f 15/214/72 13/215/72 16/216/72
f 12/217/73 14/218/73 2/219/73
f 12/220/74 13/221/74 14/222/74
f 13/223/75 1/224/75 14/225/75
f 13/226/76 12/227/76 42/228/76
f 16/229/77 13/230/77 42/231/77
f 12/232/78 17/233/78 42/234/78
f 17/235/79 19/236/79 42/237/79
f 19/238/80 16/239/80 42/240/80
