# Blender v2.73 (sub 0) OBJ File: '1x1_cube.blend'
# www.blender.org
mtllib treetop.mtl
v -0.110402 0.486990 -0.127206
v 0.545714 -0.119085 0.572172
v -0.243529 -0.091582 0.831751
v -0.802855 -0.160821 -0.063118
v -0.385920 -0.248921 -0.739613
v 0.527309 -0.046879 -0.511717
v 0.205993 1.090894 0.920218
v -0.832378 0.915616 0.470395
v -0.868913 1.043328 -0.546756
v 0.200134 1.278862 -0.734821
v 0.971090 1.045792 -0.012340
v -0.002634 1.790031 0.039544
v -0.203081 -0.470776 0.500829
v 0.411844 -0.299807 0.265047
v 0.243361 -0.208364 0.737960
v 0.713362 -0.173324 0.150146
v 0.335360 0.037986 -0.282210
v -0.485110 -0.350356 -0.003029
v -0.681770 -0.271658 0.381326
v -0.376962 -0.141392 -0.542306
v -0.589194 -0.345391 -0.495451
v 0.148872 -0.006280 -0.794778
v 0.980818 0.468141 0.329846
v 0.924175 0.511279 -0.401078
v 0.056634 0.367291 1.183419
v 0.678251 0.534687 1.025668
v -1.059529 0.493463 0.354686
v -0.785729 0.229130 1.112407
v -0.592594 0.401001 -0.680536
v -1.073894 0.294228 -0.285058
v 0.622260 0.786842 -0.894456
v -0.022255 0.604281 -0.922946
v 0.472757 1.213218 0.441070
v -0.421157 1.065460 0.997124
v -0.887165 1.157252 -0.050648
v -0.317541 1.149310 -0.660196
v 0.659091 1.220576 -0.406612
v 0.091212 1.559711 0.409100
v 0.480937 1.488675 0.082117
v -0.354777 1.427590 0.338331
v -0.444168 1.554172 -0.225808
v 0.165498 1.711083 -0.433151
vt -0.918865 1.555096
vt -0.406250 1.562500
vt -0.781250 2.093750
vt -0.324771 -0.946618
vt -0.562500 -1.187500
vt -0.250000 -1.281250
vt -1.250000 1.875000
vt -1.312231 1.377941
vt -0.783281 1.223817
vt 0.281250 -0.843750
vt -0.802637 -0.512638
vt -0.584274 -0.803162
vt -0.407452 -0.376664
vt -1.531250 -0.156250
vt -1.225423 -0.345291
vt -1.070174 0.239342
vt 1.218750 -0.593750
vt 1.281250 -0.843750
vt 1.723954 -0.527631
vt 1.031250 0.218750
vt 1.187500 -0.125000
vt 1.533554 0.310509
vt -0.046015 -0.536683
vt -0.791799 -0.125618
vt -1.468750 0.375000
vt 1.603234 -0.116358
vt 1.290495 0.631357
vt -0.053654 -0.090316
vt 0.323144 -0.108848
vt 0.125966 0.325009
vt -0.703512 0.369717
vt -0.385248 0.110653
vt -0.215806 0.542561
vt 2.189704 -0.413100
vt 2.531250 -0.468750
vt 2.500000 0.031250
vt 1.915925 0.233231
vt 2.056592 -0.091534
vt 2.222993 0.378655
vt 1.687500 0.937500
vt 1.827360 0.613619
vt 2.218750 0.812500
vt 2.531250 0.500000
vt -0.218750 0.968750
vt 0.250000 0.656250
vt -0.750000 0.750000
vt 0.531250 0.187500
vt 0.718750 -0.406250
vt 1.968750 -0.906250
vt 1.593750 -1.156250
vt 1.156250 1.093750
vt 0.718750 0.718750
vt -1.125000 0.968750
vt -0.750000 0.968750
vt -1.500000 1.250000
vt -1.531250 1.531250
vt 1.281250 -1.281250
vt -1.531250 -0.500000
vt -1.062500 -0.781250
vt -0.312500 1.312500
vn -0.171800 -0.528500 -0.831400
vn 0.462300 -0.837500 0.291300
vn 0.749500 -0.412200 -0.518000
vn 0.913900 -0.405100 0.026300
vn -0.190100 -0.483700 0.854300
vn 0.811400 -0.444600 0.379500
vn 0.006000 -0.610800 0.791800
vn -0.890400 -0.434900 0.134100
vn -0.723500 -0.169200 -0.669200
vn 0.519500 -0.404700 -0.752600
vn 0.808900 -0.436900 0.393500
vn 0.036200 -0.622700 0.781600
vn -0.880400 -0.446900 0.158900
vn -0.379800 -0.036700 -0.924300
vn 0.688900 -0.365800 -0.625800
vn 0.565300 0.667200 0.485100
vn -0.652700 0.689700 0.313400
vn -0.695400 0.694400 -0.185000
vn -0.251000 0.540400 -0.803100
vn 0.641000 0.747000 -0.176100
vn 0.525500 0.849600 0.045000
vn 0.702500 0.700000 -0.127900
vn 0.542400 0.509600 -0.667900
vn -0.324300 0.907500 -0.266900
vn -0.391200 0.613600 -0.685900
vn -0.271000 0.663500 -0.697400
vn -0.573300 0.775300 0.264800
vn -0.583300 0.767900 0.264700
vn -0.624700 0.681200 0.381600
vn -0.315900 0.767100 0.558300
vn -0.318500 0.843900 0.431800
vn 0.051900 0.741700 0.668700
vn 0.464800 0.799600 0.380300
vn 0.552000 0.655400 0.515500
vn 0.637800 0.603900 0.478000
vn 0.808400 0.298200 -0.507500
vn 0.876600 0.324800 -0.355000
vn 0.504700 0.625900 -0.594600
vn -0.214600 0.327400 -0.920200
vn -0.439600 0.185500 -0.878800
vn -0.220100 0.107300 -0.969600
vn -0.968200 0.233700 -0.089300
vn -0.973500 0.223600 -0.047800
vn -0.876000 0.395800 0.275700
vn -0.773200 0.404400 0.488600
vn -0.112400 0.183600 0.976500
vn 0.102400 0.321300 0.941400
vn 0.612300 0.614300 0.497700
vn 0.807800 0.505600 0.302900
vn 0.689300 0.377800 0.618100
vn -0.036800 0.279700 -0.959400
vn 0.094100 -0.179200 -0.979300
vn -0.006900 -0.207300 -0.978300
vn -0.617700 -0.103300 -0.779600
vn -0.596300 -0.195800 -0.778500
vn -0.811400 -0.561900 -0.161100
vn -0.841600 0.337300 0.421800
vn -0.886000 -0.431500 0.169600
vn -0.209800 -0.820300 0.532100
vn 0.154800 0.309300 0.938300
vn 0.337600 -0.505100 0.794300
vn 0.519900 -0.555500 0.648900
vn 0.996400 -0.030000 -0.079000
vn 0.928000 -0.360800 -0.093200
vn 0.800600 -0.505500 -0.321600
vn -0.226700 -0.959800 0.165400
vn 0.246200 -0.969200 -0.005900
vn 0.410300 -0.808400 0.422000
vn 0.692200 -0.646400 0.320900
vn 0.668100 -0.729100 -0.148600
vn -0.523800 -0.845700 0.102200
vn -0.499600 -0.862600 -0.079000
vn -0.382600 -0.923900 -0.006600
vn -0.423000 -0.621000 0.659900
vn -0.448100 -0.892900 -0.044600
vn 0.145700 -0.832600 -0.534300
vn -0.727700 -0.624500 -0.283800
vn -0.012900 -0.658200 0.752700
vn 0.360400 -0.883500 0.299200
vn 0.423600 -0.849300 0.315100
usemtl None
s off
f 1/1/1 14/2/1 13/3/1
f 2/4/2 14/5/2 16/6/2
f 1/1/3 13/3/3 18/7/3
f 1/1/4 18/7/4 20/8/4
f 1/1/5 20/8/5 17/9/5
f 2/4/6 16/6/6 23/10/6
f 3/11/7 15/12/7 25/13/7
f 4/14/8 19/15/8 27/16/8
f 5/17/9 21/18/9 29/19/9
f 6/20/10 22/21/10 31/22/10
f 2/4/11 23/10/11 26/23/11
f 3/11/12 25/13/12 28/24/12
f 4/14/13 27/16/13 30/25/13
f 5/17/14 29/19/14 32/26/14
f 6/20/15 31/22/15 24/27/15
f 7/28/16 33/29/16 38/30/16
f 8/31/17 34/32/17 40/33/17
f 9/34/18 35/35/18 41/36/18
f 10/37/19 36/38/19 42/39/19
f 11/40/20 37/41/20 39/42/20
f 39/42/21 42/39/21 12/43/21
f 39/42/22 37/41/22 42/39/22
f 37/41/23 10/37/23 42/39/23
f 42/39/24 41/36/24 12/43/24
f 42/39/25 36/38/25 41/36/25
f 36/38/26 9/34/26 41/36/26
f 41/44/27 40/33/27 12/45/27
f 41/44/28 35/46/28 40/33/28
f 35/46/29 8/31/29 40/33/29
f 40/33/30 38/30/30 12/45/30
f 40/33/31 34/32/31 38/30/31
f 34/32/32 7/28/32 38/30/32
f 38/30/33 39/47/33 12/45/33
f 38/30/34 33/29/34 39/47/34
f 33/29/35 11/48/35 39/47/35
f 24/27/36 37/41/36 11/40/36
f 24/27/37 31/22/37 37/41/37
f 31/22/38 10/37/38 37/41/38
f 32/26/39 36/38/39 10/37/39
f 32/26/40 29/19/40 36/38/40
f 29/19/41 9/34/41 36/38/41
f 30/49/42 35/35/42 9/34/42
f 30/25/43 27/16/43 35/46/43
f 27/16/44 8/31/44 35/46/44
f 28/24/45 34/32/45 8/31/45
f 28/24/46 25/13/46 34/32/46
f 25/13/47 7/28/47 34/32/47
f 26/23/48 33/29/48 7/28/48
f 26/23/49 23/10/49 33/29/49
f 23/10/50 11/48/50 33/29/50
f 31/22/51 32/26/51 10/37/51
f 31/22/52 22/21/52 32/26/52
f 22/21/53 5/17/53 32/26/53
f 29/19/54 30/49/54 9/34/54
f 29/19/55 21/18/55 30/49/55
f 21/18/56 4/50/56 30/49/56
f 27/16/57 28/24/57 8/31/57
f 27/16/58 19/15/58 28/24/58
f 19/15/59 3/11/59 28/24/59
f 25/13/60 26/23/60 7/28/60
f 25/13/61 15/12/61 26/23/61
f 15/12/62 2/4/62 26/23/62
f 23/51/63 24/27/63 11/40/63
f 23/51/64 16/52/64 24/27/64
f 16/52/65 6/20/65 24/27/65
f 17/9/66 22/53/66 6/54/66
f 17/9/67 20/8/67 22/53/67
f 20/8/68 5/55/68 22/53/68
f 20/8/69 21/56/69 5/55/69
f 20/8/70 18/7/70 21/56/70
f 18/57/71 4/50/71 21/18/71
f 18/58/72 19/15/72 4/14/72
f 18/58/73 13/59/73 19/15/73
f 13/59/74 3/11/74 19/15/74
f 16/60/75 17/9/75 6/54/75
f 16/60/76 14/2/76 17/9/76
f 14/2/77 1/1/77 17/9/77
f 13/59/78 15/12/78 3/11/78
f 13/59/79 14/5/79 15/12/79
f 14/5/80 2/4/80 15/12/80
