ply
format ascii 1.0
comment Created by Blender 2.73 (sub 0) - www.blender.org, source file: ''
element vertex 271
property float x
property float y
property float z
property float nx
property float ny
property float nz
property uchar red
property uchar green
property uchar blue
element face 240
property list uchar uint vertex_indices
end_header
-0.900000 -1.000000 -1.000000 0.000000 -0.000000 -1.000000 130 85 53
-1.000000 -1.000000 -1.000000 0.000000 -0.000000 -1.000000 130 85 53
-1.000000 -0.900000 -1.000000 0.000000 -0.000000 -1.000000 130 85 53
-0.900000 -0.900000 1.000000 -0.000000 0.000000 1.000000 130 85 53
-1.000000 -0.900000 1.000000 -0.000000 0.000000 1.000000 130 85 53
-1.000000 -1.000000 1.000000 -0.000000 0.000000 1.000000 0 255 225
1.000000 -0.900001 1.000000 1.000000 -0.000003 0.000000 130 85 53
0.999999 -1.000001 1.000000 1.000000 -0.000003 0.000000 0 255 225
1.000000 -1.000000 0.500000 1.000000 -0.000003 0.000000 130 85 53
-0.900000 -1.000000 1.000000 -0.000002 -1.000000 0.000000 130 85 53
-1.000000 -1.000000 1.000000 -0.000002 -1.000000 0.000000 0 255 225
-1.000000 -1.000000 0.500000 -0.000002 -1.000000 0.000000 130 85 53
-1.000000 0.900000 1.000000 -1.000000 0.000001 -0.000000 130 85 53
-1.000000 1.000000 1.000000 -1.000000 0.000001 -0.000000 0 255 225
-1.000000 1.000000 0.500000 -1.000000 0.000001 -0.000000 130 85 53
-0.900000 1.000000 -1.000000 0.000001 1.000000 0.000000 130 85 53
-1.000000 1.000000 -1.000000 0.000001 1.000000 0.000000 130 85 53
-1.000000 1.000000 -0.500000 0.000001 1.000000 0.000000 130 85 53
-0.900000 1.000000 0.500000 0.000001 1.000000 0.000000 130 85 53
-0.900000 1.000000 0.000000 0.000001 1.000000 0.000000 130 85 53
-1.000000 1.000000 0.000000 0.000001 1.000000 0.000000 130 85 53
0.900000 1.000000 0.000000 0.000000 1.000000 0.000000 130 85 53
0.000000 1.000000 0.000000 0.000000 1.000000 0.000000 255 33 0
0.000000 1.000000 0.500000 0.000000 1.000000 0.000000 255 33 0
0.900000 1.000000 -1.000000 0.000000 1.000000 0.000000 130 85 53
0.000000 1.000000 -1.000000 0.000000 1.000000 0.000000 157 73 41
0.000000 1.000000 -0.500000 0.000000 1.000000 0.000000 255 33 0
-1.000000 0.900000 0.000000 -1.000000 0.000001 -0.000000 130 85 53
-1.000000 1.000000 0.000000 -1.000000 0.000001 -0.000000 130 85 53
-1.000000 1.000000 -0.500000 -1.000000 0.000001 -0.000000 130 85 53
-1.000000 -0.900000 0.000000 -1.000000 0.000000 -0.000000 130 85 53
-1.000000 0.000000 0.000000 -1.000000 0.000000 -0.000000 0 255 21
-1.000000 0.000000 -0.500000 -1.000000 0.000000 -0.000000 32 213 29
-1.000000 -0.900000 1.000000 -1.000000 0.000000 -0.000000 130 85 53
-1.000000 0.000000 1.000000 -1.000000 0.000000 -0.000000 130 85 53
-1.000000 0.000000 0.500000 -1.000000 0.000000 -0.000000 9 243 23
-0.900000 -1.000000 0.000000 -0.000001 -1.000000 0.000000 130 85 53
-1.000000 -1.000000 0.000000 -0.000001 -1.000000 0.000000 130 85 53
-1.000000 -1.000000 -0.500000 -0.000001 -1.000000 0.000000 130 85 53
0.900000 -1.000000 0.000000 -0.000000 -1.000000 -0.000000 130 85 53
-0.000000 -1.000000 0.000000 -0.000000 -1.000000 -0.000000 0 11 255
-0.000000 -1.000000 -0.500000 -0.000000 -1.000000 -0.000000 43 35 187
0.899999 -1.000000 1.000000 -0.000000 -1.000000 -0.000000 130 85 53
-0.000001 -1.000000 1.000000 -0.000000 -1.000000 -0.000000 130 85 53
-0.000000 -1.000000 0.500000 -0.000000 -1.000000 -0.000000 0 11 255
1.000000 -0.900000 0.000000 1.000000 -0.000001 0.000000 130 85 53
1.000000 -1.000000 0.000000 1.000000 -0.000001 0.000000 130 85 53
1.000000 -1.000000 -0.500000 1.000000 -0.000001 0.000000 130 85 53
1.000000 0.900000 0.000000 1.000000 -0.000000 0.000000 130 85 53
1.000000 -0.000000 0.000000 1.000000 -0.000000 0.000000 233 14 204
1.000000 -0.000000 -0.500000 1.000000 -0.000000 0.000000 255 0 235
1.000000 0.899999 1.000000 1.000000 -0.000000 -0.000000 130 85 53
1.000000 -0.000001 1.000000 1.000000 -0.000000 -0.000000 130 85 53
1.000000 -0.000000 0.500000 1.000000 -0.000000 -0.000000 254 1 233
-0.000000 -0.900000 1.000000 0.000000 -0.000000 1.000000 130 85 53
-0.000001 -1.000000 1.000000 0.000000 -0.000000 1.000000 130 85 53
0.899999 -1.000000 1.000000 0.000000 -0.000000 1.000000 130 85 53
0.900000 -0.900000 1.000000 -1.000000 0.000000 -0.000000 130 85 53
0.900000 -0.000000 1.000000 -1.000000 0.000000 -0.000000 130 85 53
0.900000 -0.750000 0.800000 -1.000000 0.000000 -0.000000 0 0 0
-0.900000 0.900000 1.000000 -0.000000 0.000000 1.000000 130 85 53
-1.000000 0.900000 1.000000 -0.000000 0.000000 1.000000 130 85 53
-1.000000 0.000000 1.000000 -0.000000 0.000000 1.000000 130 85 53
-0.900000 0.900000 -1.000000 0.000000 0.000000 -1.000000 130 85 53
-0.900000 0.000000 -1.000000 0.000000 0.000000 -1.000000 130 85 53
-1.000000 0.000000 -1.000000 0.000000 0.000000 -1.000000 130 85 53
0.900000 0.000000 -1.000000 0.000000 -0.000000 -1.000000 130 85 53
0.000000 0.000000 -1.000000 0.000000 -0.000000 -1.000000 211 141 19
0.000000 0.900000 -1.000000 0.000000 -0.000000 -1.000000 130 85 53
0.900000 -1.000000 -1.000000 0.000000 -0.000000 -1.000000 130 85 53
0.000000 -1.000000 -1.000000 0.000000 -0.000000 -1.000000 130 85 53
0.000000 -0.900000 -1.000000 0.000000 -0.000000 -1.000000 130 85 53
0.900000 -0.900000 -1.000000 0.000000 -0.000000 -1.000000 130 85 53
1.000000 -0.900000 -1.000000 0.000000 0.000000 -1.000000 130 85 53
1.000000 -1.000000 -1.000000 0.000000 0.000000 -1.000000 130 85 53
0.900000 0.900000 -1.000000 0.000000 -0.000000 -1.000000 130 85 53
0.000000 1.000000 -1.000000 0.000000 -0.000000 -1.000000 130 85 53
1.000000 1.000000 -1.000000 0.000000 0.000000 -1.000000 130 85 53
1.000000 0.900000 -1.000000 0.000000 0.000000 -1.000000 130 85 53
1.000000 -0.000000 -1.000000 0.000000 0.000000 -1.000000 130 85 53
-1.000000 0.900000 -1.000000 0.000000 -0.000000 -1.000000 130 85 53
-1.000000 1.000000 -1.000000 0.000000 -0.000000 -1.000000 130 85 53
-0.900000 1.000000 -1.000000 0.000000 -0.000000 -1.000000 130 85 53
-0.000000 -0.900000 1.000000 0.000000 1.000000 0.000000 130 85 53
0.900000 -0.900000 1.000000 0.000000 1.000000 0.000000 130 85 53
0.750000 -0.900000 0.800000 0.000000 1.000000 0.000000 0 0 0
-0.900000 1.000000 1.000000 0.000000 -0.000000 1.000000 130 85 53
0.000000 0.900000 1.000000 0.000000 -0.000000 1.000000 130 85 53
-1.000000 1.000000 1.000000 -0.000000 0.000000 1.000000 0 255 225
1.000000 0.899999 1.000000 -0.000000 0.000000 1.000000 130 85 53
0.900000 0.900000 1.000000 -0.000000 0.000000 1.000000 130 85 53
0.900000 -0.000000 1.000000 -0.000000 0.000000 1.000000 130 85 53
0.900000 1.000000 1.000000 0.000000 -0.000000 1.000000 130 85 53
0.000000 1.000000 1.000000 0.000000 -0.000000 1.000000 130 85 53
0.900000 -0.900000 1.000000 0.000000 -0.000000 1.000000 130 85 53
0.999999 -1.000001 1.000000 0.000000 -0.000000 1.000000 0 255 225
1.000000 -0.000001 1.000000 -0.000000 0.000000 1.000000 130 85 53
-0.900000 0.000000 1.000000 1.000000 -0.000000 0.000000 130 85 53
-0.900000 -0.900000 1.000000 1.000000 -0.000000 0.000000 130 85 53
-0.900000 -0.750000 0.800000 1.000000 -0.000000 0.000000 0 0 0
1.000000 0.900000 0.500000 1.000000 -0.000000 0.000000 130 85 53
1.000000 1.000000 0.500000 1.000000 -0.000002 -0.000000 130 85 53
1.000000 0.900000 0.500000 1.000000 -0.000002 -0.000000 130 85 53
1.000000 0.900000 0.000000 1.000000 -0.000002 -0.000000 130 85 53
1.000000 0.999999 1.000000 1.000000 -0.000002 -0.000000 0 255 225
1.000000 0.899999 1.000000 1.000000 -0.000002 -0.000000 130 85 53
1.000000 0.900000 -0.500000 1.000000 0.000000 -0.000000 130 85 53
1.000000 -0.000000 -1.000000 1.000000 0.000000 -0.000000 190 44 142
1.000000 1.000000 -0.500000 1.000000 -0.000001 -0.000000 130 85 53
1.000000 0.900000 -0.500000 1.000000 -0.000001 -0.000000 130 85 53
1.000000 0.900000 -1.000000 1.000000 -0.000001 -0.000000 130 85 53
1.000000 1.000000 0.000000 1.000000 -0.000001 -0.000000 130 85 53
1.000000 0.900000 0.000000 1.000000 -0.000001 -0.000000 130 85 53
1.000000 -0.900000 -0.500000 1.000000 -0.000001 0.000000 130 85 53
1.000000 -1.000000 -1.000000 1.000000 -0.000001 0.000000 130 85 53
1.000000 -0.900000 -0.500000 1.000000 -0.000000 0.000000 130 85 53
1.000000 -0.900000 -1.000000 1.000000 -0.000000 0.000000 130 85 53
1.000000 -0.900000 0.000000 1.000000 -0.000000 0.000000 130 85 53
0.900000 -1.000000 0.500000 -0.000000 -1.000000 -0.000000 130 85 53
1.000000 -1.000000 0.500000 -0.000002 -1.000000 -0.000000 130 85 53
0.900000 -1.000000 0.500000 -0.000002 -1.000000 -0.000000 130 85 53
0.900000 -1.000000 0.000000 -0.000002 -1.000000 -0.000000 130 85 53
0.999999 -1.000001 1.000000 -0.000002 -1.000000 -0.000000 0 255 225
0.899999 -1.000000 1.000000 -0.000002 -1.000000 -0.000000 130 85 53
0.900000 -1.000000 -0.500000 -0.000000 -1.000000 -0.000000 130 85 53
0.000000 -1.000000 -1.000000 -0.000000 -1.000000 -0.000000 130 85 53
1.000000 -1.000000 -0.500000 -0.000001 -1.000000 -0.000000 130 85 53
0.900000 -1.000000 -0.500000 -0.000001 -1.000000 -0.000000 130 85 53
0.900000 -1.000000 -1.000000 -0.000001 -1.000000 -0.000000 130 85 53
1.000000 -1.000000 0.000000 -0.000001 -1.000000 -0.000000 130 85 53
0.900000 -1.000000 0.000000 -0.000001 -1.000000 -0.000000 130 85 53
-0.900000 -1.000000 -0.500000 -0.000001 -1.000000 0.000000 130 85 53
-1.000000 -1.000000 -1.000000 -0.000001 -1.000000 0.000000 130 85 53
-0.900000 -1.000000 -0.500000 -0.000000 -1.000000 -0.000000 130 85 53
-0.900000 -1.000000 -1.000000 -0.000000 -1.000000 -0.000000 130 85 53
-0.900000 -1.000000 0.000000 -0.000000 -1.000000 0.000000 130 85 53
-1.000000 -0.900000 0.500000 -1.000000 0.000000 0.000000 130 85 53
-1.000000 -1.000000 0.500000 -1.000000 0.000001 0.000000 130 85 53
-1.000000 -0.900000 0.500000 -1.000000 0.000001 0.000000 130 85 53
-1.000000 -0.900000 0.000000 -1.000000 0.000001 0.000000 130 85 53
-1.000000 -1.000000 1.000000 -1.000000 0.000001 -0.000000 0 255 225
-1.000000 -0.900000 1.000000 -1.000000 0.000001 -0.000000 130 85 53
-1.000000 -0.900000 -0.500000 -1.000000 0.000000 -0.000000 130 85 53
-1.000000 0.000000 -1.000000 -1.000000 0.000000 -0.000000 126 90 53
-1.000000 -1.000000 -0.500000 -1.000000 0.000001 -0.000000 130 85 53
-1.000000 -0.900000 -0.500000 -1.000000 0.000001 -0.000000 130 85 53
-1.000000 -0.900000 -1.000000 -1.000000 0.000001 -0.000000 130 85 53
-1.000000 -1.000000 0.000000 -1.000000 0.000001 0.000000 130 85 53
-1.000000 0.900000 -1.000000 -1.000000 0.000001 -0.000000 130 85 53
-1.000000 0.900000 -0.500000 -1.000000 0.000001 -0.000000 130 85 53
-1.000000 0.900000 -0.500000 -1.000000 0.000000 -0.000000 130 85 53
-1.000000 0.900000 -1.000000 -1.000000 0.000000 -0.000000 130 85 53
-1.000000 0.900000 0.000000 -1.000000 0.000000 -0.000000 130 85 53
0.900000 1.000000 -0.500000 0.000000 1.000000 -0.000000 130 85 53
1.000000 1.000000 -0.500000 0.000001 1.000000 0.000000 130 85 53
0.900000 1.000000 -0.500000 0.000001 1.000000 0.000000 130 85 53
0.900000 1.000000 0.000000 0.000001 1.000000 0.000000 130 85 53
1.000000 1.000000 -1.000000 0.000001 1.000000 0.000000 130 85 53
0.900000 1.000000 -1.000000 0.000001 1.000000 0.000000 130 85 53
0.900000 1.000000 0.500000 0.000000 1.000000 0.000000 130 85 53
0.000000 1.000000 1.000000 0.000000 1.000000 0.000000 130 85 53
1.000000 1.000000 0.500000 0.000002 1.000000 0.000000 130 85 53
0.900000 1.000000 0.500000 0.000002 1.000000 0.000000 130 85 53
0.900000 1.000000 1.000000 0.000002 1.000000 0.000000 130 85 53
1.000000 1.000000 0.000000 0.000002 1.000000 0.000000 130 85 53
0.900000 1.000000 0.000000 0.000002 1.000000 0.000000 130 85 53
-1.000000 1.000000 0.500000 0.000001 1.000000 0.000000 130 85 53
-1.000000 1.000000 1.000000 0.000001 1.000000 0.000000 0 255 225
-0.900000 1.000000 0.500000 0.000000 1.000000 0.000000 130 85 53
-0.900000 1.000000 1.000000 0.000000 1.000000 0.000000 130 85 53
-0.900000 1.000000 0.000000 0.000000 1.000000 0.000000 130 85 53
-0.900000 1.000000 -0.500000 0.000001 1.000000 0.000000 130 85 53
-0.900000 1.000000 -0.500000 0.000000 1.000000 0.000000 130 85 53
-0.900000 1.000000 -1.000000 0.000000 1.000000 0.000000 130 85 53
-1.000000 0.900000 0.500000 -1.000000 0.000001 -0.000000 130 85 53
-1.000000 0.900000 0.500000 -1.000000 0.000000 0.000000 130 85 53
-1.000000 0.900000 1.000000 -1.000000 0.000000 -0.000000 130 85 53
-0.900000 -1.000000 0.500000 -0.000002 -1.000000 0.000000 130 85 53
-1.000000 -1.000000 0.000000 -0.000002 -1.000000 0.000000 130 85 53
-0.900000 -1.000000 0.500000 -0.000000 -1.000000 -0.000000 130 85 53
-0.900000 -1.000000 1.000000 -0.000000 -1.000000 -0.000000 130 85 53
1.000000 -0.900000 0.500000 1.000000 -0.000002 0.000000 130 85 53
1.000000 -1.000000 0.500000 1.000000 -0.000002 0.000000 130 85 53
1.000000 -1.000000 0.000000 1.000000 -0.000002 0.000000 130 85 53
1.000000 -0.900000 0.500000 1.000000 -0.000000 0.000000 130 85 53
1.000000 -0.900001 1.000000 1.000000 -0.000000 0.000000 130 85 53
-0.900000 -1.000000 1.000000 0.000000 -0.000000 1.000000 130 85 53
-0.900000 -0.900000 1.000000 0.000000 1.000000 -0.000000 130 85 53
-0.750000 -0.900000 0.800000 0.000000 1.000000 -0.000000 0 0 0
-0.900000 0.000000 1.000000 -0.000000 0.000000 1.000000 130 85 53
-0.900000 -0.900000 -1.000000 0.000000 0.000000 -1.000000 130 85 53
-0.000000 0.750000 0.800000 0.000000 -0.000000 1.000000 2 1 1
-0.000000 -0.000000 0.800000 0.000000 -0.000000 1.000000 130 85 53
0.750000 -0.000000 0.800000 0.000000 -0.000000 1.000000 14 9 6
-0.900000 0.750000 0.800000 0.000000 -0.000000 1.000000 0 0 0
-0.900000 0.000000 0.800000 0.000000 -0.000000 1.000000 0 0 0
-0.750000 -0.000000 0.800000 0.000000 -0.000000 1.000000 0 0 0
-0.000000 -0.750000 0.800000 0.000000 -0.000000 1.000000 1 0 0
-0.000000 -0.900000 0.800000 0.000000 -0.000000 1.000000 0 0 0
0.750000 -0.900000 0.800000 0.000000 -0.000000 1.000000 0 0 0
-0.900000 -0.750000 0.800000 0.000000 -0.000000 1.000000 0 0 0
-0.900000 -0.900000 0.800000 0.000000 -0.000000 1.000000 0 0 0
-0.750000 -0.900000 0.800000 0.000000 -0.000000 1.000000 0 0 0
0.900000 0.900000 1.000000 -0.000000 -1.000000 -0.000000 130 85 53
0.000000 0.900000 1.000000 -0.000000 -1.000000 -0.000000 130 85 53
0.750000 0.900000 0.800000 -0.000000 -1.000000 -0.000000 0 0 0
0.900000 0.900000 1.000000 -1.000000 0.000000 0.000000 130 85 53
0.900000 0.750000 0.800000 -1.000000 0.000000 0.000000 0 0 0
-0.900000 0.900000 1.000000 -0.000000 -1.000000 0.000000 130 85 53
-0.750000 0.900000 0.800000 -0.000000 -1.000000 0.000000 0 0 0
-0.900000 0.900000 1.000000 1.000000 -0.000000 0.000000 130 85 53
-0.900000 0.750000 0.800000 1.000000 -0.000000 0.000000 0 0 0
-0.750000 -0.750000 0.800000 0.000000 -0.000000 1.000000 0 0 0
0.750000 -0.750000 0.800000 0.000000 -0.000000 1.000000 0 0 0
0.900000 -0.900000 0.800000 0.000000 -0.000000 1.000000 0 0 0
0.900000 -0.750000 0.800000 0.000000 -0.000000 1.000000 0 0 0
-0.750000 0.750000 0.800000 -0.000000 0.000000 1.000000 14 9 6
-0.750000 0.900000 0.800000 0.000000 -0.000000 1.000000 0 0 0
-0.900000 0.900000 0.800000 -0.000000 0.000000 1.000000 1 1 1
0.900000 0.750000 0.800000 -0.000000 0.000000 1.000000 0 0 0
0.750000 0.750000 0.800000 -0.000000 0.000000 1.000000 16 11 7
0.750000 0.900000 0.800000 0.000000 -0.000000 1.000000 0 0 0
0.000000 0.900000 0.800000 0.000000 -0.000000 1.000000 0 0 0
1.000000 -0.900001 1.000000 1.000000 -0.000002 0.000000 130 85 53
0.900000 -0.750000 0.800000 -1.000000 0.000001 0.000000 0 0 0
0.900000 -0.900000 0.800000 -1.000000 0.000001 0.000000 0 0 0
0.900000 -0.900000 1.000000 -1.000000 0.000001 0.000000 130 85 53
0.900000 -0.000000 0.800000 -1.000000 0.000000 0.000000 0 0 0
0.900000 1.000000 -1.000000 0.000000 0.000000 -1.000000 130 85 53
-0.000000 -0.900000 0.800000 0.000000 1.000000 0.000000 0 0 0
0.900000 -0.900000 1.000000 0.000001 1.000000 -0.000000 130 85 53
0.900000 -0.900000 0.800000 0.000001 1.000000 -0.000000 0 0 0
0.750000 -0.900000 0.800000 0.000001 1.000000 -0.000000 0 0 0
1.000000 0.999999 1.000000 -0.000000 -0.000000 1.000000 0 255 225
1.000000 -0.900001 1.000000 -0.000000 -0.000000 1.000000 130 85 53
-0.900000 0.000000 0.800000 1.000000 -0.000000 0.000000 0 0 0
-0.900000 -0.900000 1.000000 1.000000 -0.000001 0.000000 130 85 53
-0.900000 -0.900000 0.800000 1.000000 -0.000001 0.000000 0 0 0
-0.900000 -0.750000 0.800000 1.000000 -0.000001 0.000000 0 0 0
1.000000 1.000000 0.500000 1.000000 -0.000001 -0.000000 130 85 53
1.000000 0.900000 -1.000000 1.000000 -0.000000 0.000000 130 85 53
1.000000 1.000000 -1.000000 1.000000 0.000000 -0.000000 130 85 53
1.000000 1.000000 -0.500000 1.000000 0.000000 -0.000000 130 85 53
1.000000 -1.000000 -1.000000 1.000000 0.000000 0.000000 130 85 53
1.000000 -1.000000 0.500000 -0.000001 -1.000000 -0.000000 130 85 53
0.900000 -1.000000 -1.000000 -0.000000 -1.000000 -0.000000 130 85 53
1.000000 -1.000000 -1.000000 -0.000001 -1.000000 -0.000000 130 85 53
-0.900000 -1.000000 -1.000000 -0.000001 -1.000000 -0.000000 130 85 53
-1.000000 -0.900000 -1.000000 -1.000000 0.000000 -0.000000 130 85 53
-1.000000 -1.000000 -1.000000 -1.000000 0.000001 -0.000000 130 85 53
-1.000000 1.000000 -1.000000 -1.000000 0.000001 -0.000000 130 85 53
1.000000 1.000000 -0.500000 0.000002 1.000000 0.000000 130 85 53
0.900000 1.000000 1.000000 0.000000 1.000000 0.000000 130 85 53
1.000000 0.999999 1.000000 0.000002 1.000000 0.000000 0 255 225
-0.900000 1.000000 1.000000 0.000001 1.000000 0.000000 130 85 53
-0.900000 -1.000000 0.500000 -0.000001 -1.000000 -0.000000 130 85 53
1.000000 -0.900000 0.500000 1.000000 -0.000001 0.000000 130 85 53
-0.900000 -0.900000 0.800000 0.000000 1.000000 0.000000 0 0 0
0.750000 0.900000 0.800000 -0.000001 -1.000000 -0.000000 0 0 0
0.900000 0.900000 0.800000 -0.000001 -1.000000 -0.000000 0 0 0
0.900000 0.900000 1.000000 -0.000001 -1.000000 -0.000000 130 85 53
0.000000 0.900000 0.800000 -0.000000 -1.000000 0.000000 0 0 0
0.900000 0.900000 1.000000 -1.000000 0.000001 0.000000 130 85 53
0.900000 0.900000 0.800000 -1.000000 0.000001 0.000000 0 0 0
0.900000 0.750000 0.800000 -1.000000 0.000001 0.000000 0 0 0
-0.900000 0.900000 1.000000 -0.000001 -1.000000 0.000000 130 85 53
-0.900000 0.900000 0.800000 -0.000001 -1.000000 0.000000 1 1 1
-0.750000 0.900000 0.800000 -0.000001 -1.000000 0.000000 0 0 0
-0.900000 0.900000 0.800000 1.000000 0.000000 0.000000 1 1 1
0.900000 -0.000000 0.800000 -0.000000 -0.000000 1.000000 0 0 0
0.900000 0.900000 0.800000 -0.000000 -0.000000 1.000000 0 0 0
3 0 1 2
3 3 4 5
3 6 7 8
3 9 10 11
3 12 13 14
3 15 16 17
3 18 19 20
3 21 22 23
3 24 25 26
3 27 28 29
3 30 31 32
3 33 34 35
3 36 37 38
3 39 40 41
3 42 43 44
3 45 46 47
3 48 49 50
3 51 52 53
3 54 55 56
3 57 58 59
3 60 61 62
3 63 64 65
3 66 67 68
3 69 70 71
3 72 71 67
3 73 72 66
3 73 74 69
3 75 68 76
3 77 78 75
3 78 79 66
3 63 80 81
3 68 63 82
3 67 64 63
3 83 84 85
3 86 60 87
3 86 88 61
3 89 90 91
3 92 90 89
3 93 87 90
3 94 56 95
3 96 91 94
3 97 98 99
3 100 53 49
3 101 102 103
3 104 105 102
3 106 50 107
3 108 109 110
3 111 112 109
3 113 47 114
3 50 115 116
3 49 117 115
3 118 44 40
3 119 120 121
3 122 123 120
3 124 41 125
3 126 127 128
3 129 130 127
3 131 38 132
3 41 133 134
3 40 135 133
3 136 35 31
3 137 138 139
3 140 141 138
3 142 32 143
3 144 145 146
3 147 139 145
3 148 149 29
3 32 150 151
3 31 152 150
3 153 26 22
3 154 155 156
3 157 158 155
3 159 23 160
3 161 162 163
3 164 165 162
3 18 166 167
3 23 168 169
3 22 170 168
3 171 17 20
3 26 172 170
3 25 173 172
3 27 174 14
3 31 35 175
3 35 34 176
3 177 11 178
3 44 179 135
3 43 180 179
3 181 182 183
3 53 184 117
3 52 185 184
3 3 186 55
3 187 83 188
3 189 62 4
3 64 190 2
3 71 190 64
3 70 0 190
3 191 192 193
3 194 195 196
3 197 198 199
3 200 201 202
3 203 204 205
3 58 206 207
3 204 208 209
3 210 97 211
3 212 202 198
3 196 212 197
3 195 200 212
3 213 199 214
3 193 213 215
3 192 197 213
3 191 216 196
3 217 216 191
3 217 218 194
3 219 220 193
3 221 220 219
3 222 191 220
3 190 0 2
3 186 3 5
3 181 223 182
3 177 9 11
3 174 12 14
3 171 15 17
3 166 18 20
3 159 21 23
3 153 24 26
3 149 27 29
3 142 30 32
3 136 33 35
3 131 36 38
3 124 39 41
3 118 42 44
3 113 45 47
3 106 48 50
3 100 51 53
3 94 54 56
3 224 225 226
3 58 227 59
3 189 60 62
3 80 63 65
3 75 66 68
3 72 69 71
3 66 72 67
3 79 73 66
3 72 73 69
3 228 75 76
3 228 77 75
3 75 78 66
3 82 63 81
3 76 68 82
3 68 67 63
3 85 229 83
3 230 231 232
3 93 86 87
3 60 86 61
3 96 89 91
3 233 92 89
3 92 93 90
3 234 94 95
3 234 96 94
3 99 235 97
3 236 237 238
3 48 100 49
3 111 239 112
3 101 104 102
3 240 106 107
3 241 242 240
3 108 111 109
3 116 115 243
3 107 50 116
3 50 49 115
3 39 118 40
3 129 244 130
3 119 122 120
3 245 124 125
3 246 126 128
3 126 129 127
3 247 131 132
3 125 41 134
3 41 40 133
3 30 136 31
3 147 137 139
3 137 140 138
3 248 142 143
3 249 144 146
3 144 147 145
3 250 148 29
3 143 32 151
3 32 31 150
3 21 153 22
3 164 251 165
3 154 157 155
3 252 159 160
3 253 161 163
3 161 164 162
3 254 18 167
3 160 23 169
3 23 22 168
3 19 171 20
3 22 26 170
3 26 25 172
3 28 27 14
3 152 31 175
3 175 35 176
3 36 255 37
3 40 44 135
3 44 43 179
3 45 256 46
3 49 53 117
3 53 52 184
3 54 3 55
3 188 257 187
3 83 229 188
3 3 189 4
3 65 64 2
3 67 71 64
3 71 70 190
3 220 191 193
3 216 194 196
3 213 197 199
3 212 200 202
3 258 259 260
3 204 261 205
3 207 227 58
3 262 263 264
3 209 261 204
3 265 266 267
3 211 268 210
3 97 235 211
3 197 212 198
3 192 196 197
3 196 195 212
3 215 213 214
3 269 193 215
3 193 192 213
3 192 191 196
3 222 217 191
3 216 217 194
3 269 219 193
3 270 221 219
3 221 222 220
