# Blender v2.73 (sub 0) OBJ File: 'newWork2_THEROCK_GameExport.blend'
# www.blender.org
mtllib st_tree_top_1.mtl
o TreeTop_Icosphere.003
v 0.050800 2.018518 0.090379
v 1.815098 2.599439 -0.955020
v 1.295859 2.810469 1.483764
v -1.005403 2.472328 2.195222
v -2.066354 2.500778 -0.584656
v -0.334582 2.510834 -2.218341
v 1.676987 4.426511 0.286718
v 0.307470 4.582211 1.823049
v -1.514105 4.492806 0.698557
v -1.268337 4.421481 -1.421110
v 0.914609 4.373372 -1.631072
v -0.018108 5.289262 -0.091089
v 0.889540 1.901370 1.041325
v 1.071257 1.885383 -0.555744
v 1.633050 2.698086 0.361207
v 1.078222 2.286678 -2.087494
v -0.027824 2.036202 -1.306482
v -0.466261 2.007566 0.919327
v 0.441279 2.474998 2.338208
v -0.997312 2.001018 -0.227053
v -1.987527 2.323103 0.971042
v -1.407292 2.472731 -1.503709
v 1.538637 3.582964 -1.493249
v 0.486641 3.647758 -2.436012
v 1.886562 3.712039 1.076990
v 1.999988 3.624609 -0.236158
v -0.411943 3.543442 2.326053
v 1.001845 3.734388 2.027962
v -2.134172 3.569876 0.212409
v -1.760696 3.539003 1.628585
v -1.095098 3.599472 -2.229745
v -1.888827 3.552734 -1.143289
v 1.600582 4.564586 -0.760272
v 1.152894 4.644819 1.199787
v -0.774742 4.449568 1.339614
v -1.624858 4.574101 -0.445770
v -0.187309 4.433694 -1.690882
v 0.909334 5.013188 0.110712
v 0.467059 4.882311 -0.868817
v 0.138053 5.085237 0.862618
v -0.793461 4.967748 0.271713
v -0.606993 4.889299 -0.748499
vt 0.141856 0.141856
vt 0.002002 0.141856
vt 0.141856 0.002002
vt 0.001001 0.001001
vt 0.140855 0.001001
vt 0.001001 0.140855
vt 0.856142 0.284713
vt 0.856142 0.144859
vt 0.716288 0.284713
vt 0.570428 0.570428
vt 0.430573 0.570428
vt 0.570428 0.430573
vt 0.427570 0.141856
vt 0.287716 0.141856
vt 0.427570 0.002002
vt 0.713285 0.141856
vt 0.713285 0.002002
vt 0.573431 0.141856
vt 0.856142 0.141856
vt 0.856142 0.002002
vt 0.716288 0.141856
vt 0.573431 0.284713
vt 0.713285 0.144859
vt 0.713285 0.284713
vt 0.859145 0.284713
vt 0.998999 0.144859
vt 0.998999 0.284713
vt 0.284713 0.856142
vt 0.144859 0.856142
vt 0.284713 0.716288
vt 0.284713 0.998999
vt 0.144859 0.998999
vt 0.284713 0.859145
vt 0.856142 0.427570
vt 0.856142 0.287716
vt 0.716288 0.427570
vt 0.858144 0.143858
vt 0.997998 0.143858
vt 0.858144 0.283712
vt 0.284713 0.284713
vt 0.284713 0.144859
vt 0.144859 0.284713
vt 0.141856 0.427570
vt 0.002002 0.427570
vt 0.141856 0.287716
vt 0.856142 0.570428
vt 0.856142 0.430573
vt 0.716288 0.570428
vt 0.713285 0.713285
vt 0.573431 0.713285
vt 0.713285 0.573431
vt 0.141856 0.998999
vt 0.141856 0.859145
vt 0.002002 0.998999
vt 0.998999 0.141856
vt 0.859145 0.141856
vt 0.998999 0.002002
vt 0.570428 0.713285
vt 0.570428 0.573431
vt 0.430573 0.713285
vt 0.001001 0.997998
vt 0.140855 0.858144
vt 0.001001 0.858144
vt 0.716288 0.713285
vt 0.856142 0.573431
vt 0.856142 0.713285
vt 0.858144 0.140855
vt 0.858144 0.001001
vt 0.997998 0.001001
vt 0.713285 0.716288
vt 0.573431 0.856142
vt 0.713285 0.856142
vt 0.856142 0.856142
vt 0.856142 0.716288
vt 0.716288 0.856142
vt 0.715287 0.855141
vt 0.715287 0.715287
vt 0.855141 0.715287
vt 0.712284 0.715287
vt 0.572430 0.855141
vt 0.572430 0.715287
vt 0.284713 0.713285
vt 0.284713 0.573431
vt 0.144859 0.713285
vt 0.427570 0.716288
vt 0.427570 0.856142
vt 0.287716 0.856142
vt 0.430573 0.856142
vt 0.570428 0.716288
vt 0.570428 0.856142
vt 0.715287 0.572430
vt 0.715287 0.712284
vt 0.855141 0.572430
vt 0.715287 0.569427
vt 0.715287 0.429572
vt 0.855141 0.429572
vt 0.569427 0.715287
vt 0.429572 0.855141
vt 0.429572 0.715287
vt 0.426569 0.715287
vt 0.286715 0.855141
vt 0.286715 0.715287
vt 0.427570 0.573431
vt 0.427570 0.713285
vt 0.287716 0.713285
vt 0.284713 0.002002
vt 0.144859 0.141856
vt 0.284713 0.141856
vt 0.002002 0.284713
vt 0.141856 0.144859
vt 0.141856 0.284713
vt 0.715287 0.426569
vt 0.715287 0.286715
vt 0.855141 0.286715
vt 0.141856 0.716288
vt 0.002002 0.856142
vt 0.141856 0.856142
vt 0.283712 0.715287
vt 0.143858 0.855141
vt 0.143858 0.715287
vt 0.713285 0.430573
vt 0.713285 0.570428
vt 0.573431 0.570428
vt 0.715287 0.283712
vt 0.855141 0.143858
vt 0.715287 0.143858
vt 0.002002 0.713285
vt 0.141856 0.573431
vt 0.141856 0.713285
vt 0.713285 0.287716
vt 0.713285 0.427570
vt 0.573431 0.427570
vt 0.001001 0.855141
vt 0.140855 0.715287
vt 0.001001 0.715287
vt 0.715287 0.140855
vt 0.855141 0.001001
vt 0.715287 0.001001
vt 0.572430 0.712284
vt 0.572430 0.572430
vt 0.712284 0.572430
vt 0.569427 0.572430
vt 0.429572 0.712284
vt 0.429572 0.572430
vt 0.712284 0.429572
vt 0.572430 0.569427
vt 0.572430 0.429572
vt 0.426569 0.572430
vt 0.286715 0.572430
vt 0.286715 0.712284
vt 0.427570 0.430573
vt 0.287716 0.570428
vt 0.427570 0.570428
vt 0.572430 0.426569
vt 0.712284 0.286715
vt 0.572430 0.286715
vt 0.283712 0.572430
vt 0.143858 0.572430
vt 0.143858 0.712284
vt 0.712284 0.143858
vt 0.572430 0.283712
vt 0.572430 0.143858
vt 0.284713 0.430573
vt 0.144859 0.570428
vt 0.284713 0.570428
vt 0.430573 0.284713
vt 0.570428 0.144859
vt 0.570428 0.284713
vt 0.572430 0.140855
vt 0.712284 0.001001
vt 0.572430 0.001001
vt 0.140855 0.572430
vt 0.001001 0.572430
vt 0.001001 0.712284
vt 0.570428 0.002002
vt 0.570428 0.141856
vt 0.430573 0.141856
vt 0.429572 0.569427
vt 0.569427 0.429572
vt 0.429572 0.429572
vt 0.570428 0.287716
vt 0.570428 0.427570
vt 0.430573 0.427570
vt 0.569427 0.286715
vt 0.429572 0.426569
vt 0.429572 0.286715
vt 0.426569 0.429572
vt 0.286715 0.569427
vt 0.286715 0.429572
vt 0.427570 0.427570
vt 0.427570 0.287716
vt 0.287716 0.427570
vt 0.429572 0.283712
vt 0.429572 0.143858
vt 0.569427 0.143858
vt 0.287716 0.284713
vt 0.427570 0.144859
vt 0.427570 0.284713
vt 0.143858 0.569427
vt 0.143858 0.429572
vt 0.283712 0.429572
vt 0.429572 0.140855
vt 0.429572 0.001001
vt 0.569427 0.001001
vt 0.002002 0.570428
vt 0.141856 0.430573
vt 0.141856 0.570428
vt 0.140855 0.429572
vt 0.001001 0.429572
vt 0.001001 0.569427
vt 0.286715 0.286715
vt 0.426569 0.286715
vt 0.286715 0.426569
vt 0.284713 0.287716
vt 0.144859 0.427570
vt 0.284713 0.427570
vt 0.283712 0.286715
vt 0.143858 0.286715
vt 0.143858 0.426569
vt 0.426569 0.143858
vt 0.286715 0.143858
vt 0.286715 0.283712
vt 0.286715 0.140855
vt 0.286715 0.001001
vt 0.426569 0.001001
vt 0.001001 0.426569
vt 0.140855 0.286715
vt 0.001001 0.286715
vt 0.143858 0.143858
vt 0.283712 0.143858
vt 0.143858 0.283712
vt 0.283712 0.001001
vt 0.143858 0.140855
vt 0.143858 0.001001
vt 0.140855 0.143858
vt 0.001001 0.283712
vt 0.001001 0.143858
vt 0.283712 0.858144
vt 0.143858 0.858144
vt 0.143858 0.997998
vn -0.132600 -0.991200 -0.005200
vn 0.622400 -0.757800 -0.195700
vn -0.072700 -0.995600 -0.058500
vn 0.017400 -0.999800 -0.002400
vn 0.020900 -0.999700 -0.013800
vn 0.843800 -0.055000 -0.533900
vn 0.854400 -0.424800 0.299200
vn -0.098000 -0.067000 0.992900
vn -0.994900 -0.092800 0.039800
vn -0.507700 -0.362800 -0.781400
vn 0.935400 0.073700 -0.345700
vn 0.719800 -0.167700 0.673600
vn -0.454900 0.144700 0.878700
vn -0.981400 0.070800 -0.178500
vn -0.125700 -0.098200 -0.987200
vn 0.597100 0.799800 0.061900
vn 0.242000 0.876400 0.416300
vn -0.313400 0.852200 0.419000
vn -0.357300 0.894000 -0.270500
vn 0.074900 0.849100 -0.522900
vn -0.048900 0.872100 -0.486800
vn -0.044700 0.891500 -0.450900
vn -0.129000 0.869100 -0.477600
vn -0.437200 0.887100 -0.148100
vn -0.328800 0.935100 -0.132000
vn -0.501000 0.858500 0.109500
vn -0.272000 0.930900 0.243700
vn -0.366200 0.834600 0.411400
vn -0.316000 0.816400 0.483300
vn 0.248600 0.954700 0.163500
vn 0.318700 0.917200 0.239000
vn 0.580400 0.801900 0.141400
vn 0.328100 0.905500 -0.269100
vn 0.283500 0.925400 -0.251600
vn 0.282300 0.866100 -0.412500
vn 0.076900 0.719900 -0.689800
vn -0.119500 0.627200 -0.769600
vn -0.187200 0.668600 -0.719700
vn -0.808400 0.459900 -0.367500
vn -0.919400 0.354300 -0.170900
vn -0.852000 0.509900 0.118700
vn -0.458200 0.678400 0.574300
vn -0.363600 0.615600 0.699200
vn -0.385500 0.604500 0.697100
vn 0.468500 0.550700 0.690800
vn 0.662200 0.441100 0.605700
vn 0.767500 0.563400 0.305800
vn 0.923600 0.383000 -0.016900
vn 0.917900 0.198500 -0.343500
vn 0.666500 0.418600 -0.616900
vn -0.757900 0.369300 -0.537800
vn -0.794100 -0.158200 -0.586900
vn -0.803600 -0.167700 -0.571100
vn -0.859600 0.452900 0.236600
vn -0.965900 0.041900 0.255600
vn -0.752400 -0.199200 0.627900
vn 0.148700 0.345700 0.926500
vn 0.183300 0.157400 0.970400
vn 0.728700 -0.160300 0.665800
vn 0.938600 0.340000 0.058400
vn 0.945700 -0.308600 0.102200
vn 0.948600 -0.277700 0.152000
vn 0.630300 0.379500 -0.677300
vn 0.667400 0.101200 -0.737800
vn 0.054300 -0.225500 -0.972700
vn -0.227100 -0.893100 -0.388500
vn -0.257100 -0.930400 -0.261200
vn -0.350400 -0.909500 -0.223500
vn -0.398800 -0.913200 -0.084100
vn -0.198900 -0.975100 0.097700
vn -0.187100 -0.945800 0.265400
vn -0.030900 -0.943300 0.330500
vn -0.105700 -0.922400 0.371500
vn 0.691100 -0.541700 0.478500
vn -0.102200 -0.896100 -0.432000
vn 0.040200 -0.966600 -0.253100
vn -0.132500 -0.991200 -0.005100
vn 0.811000 -0.505700 0.294200
vn 0.766500 -0.635400 0.093600
vn 0.725500 -0.671500 0.150700
usemtl Leaf.001
s off
f 1/1/1 14/2/1 13/3/1
f 2/4/2 14/5/2 16/6/2
f 1/7/3 13/8/3 18/9/3
f 1/10/4 18/11/4 20/12/4
f 1/13/5 20/14/5 17/15/5
f 2/16/6 16/17/6 23/18/6
f 3/19/7 15/20/7 25/21/7
f 4/22/8 19/23/8 27/24/8
f 5/25/9 21/26/9 29/27/9
f 6/28/10 22/29/10 31/30/10
f 2/31/11 23/32/11 26/33/11
f 3/34/12 25/35/12 28/36/12
f 4/37/13 27/38/13 30/39/13
f 5/40/14 29/41/14 32/42/14
f 6/43/15 31/44/15 24/45/15
f 7/46/16 33/47/16 38/48/16
f 8/49/17 34/50/17 40/51/17
f 9/52/18 35/53/18 41/54/18
f 10/55/19 36/56/19 42/57/19
f 11/58/20 37/59/20 39/60/20
f 39/61/21 42/62/21 12/63/21
f 39/64/22 37/65/22 42/66/22
f 37/67/23 10/68/23 42/69/23
f 42/70/24 41/71/24 12/72/24
f 42/73/25 36/74/25 41/75/25
f 36/76/26 9/77/26 41/78/26
f 41/79/27 40/80/27 12/81/27
f 41/82/28 35/83/28 40/84/28
f 35/85/29 8/86/29 40/87/29
f 40/88/30 38/89/30 12/90/30
f 40/91/31 34/92/31 38/93/31
f 34/94/32 7/95/32 38/96/32
f 38/97/33 39/98/33 12/99/33
f 38/100/34 33/101/34 39/102/34
f 33/103/35 11/104/35 39/105/35
f 24/106/36 37/107/36 11/108/36
f 24/109/37 31/110/37 37/111/37
f 31/112/38 10/113/38 37/114/38
f 32/115/39 36/116/39 10/117/39
f 32/118/40 29/119/40 36/120/40
f 29/121/41 9/122/41 36/123/41
f 30/124/42 35/125/42 9/126/42
f 30/127/43 27/128/43 35/129/43
f 27/130/44 8/131/44 35/132/44
f 28/133/45 34/134/45 8/135/45
f 28/136/46 25/137/46 34/138/46
f 25/139/47 7/140/47 34/141/47
f 26/142/48 33/143/48 7/144/48
f 26/145/49 23/146/49 33/147/49
f 23/148/50 11/149/50 33/150/50
f 31/151/51 32/152/51 10/153/51
f 31/154/52 22/155/52 32/156/52
f 22/157/53 5/158/53 32/159/53
f 29/160/54 30/161/54 9/162/54
f 29/163/55 21/164/55 30/165/55
f 21/166/56 4/167/56 30/168/56
f 27/169/57 28/170/57 8/171/57
f 27/172/58 19/173/58 28/174/58
f 19/175/59 3/176/59 28/177/59
f 25/178/60 26/179/60 7/180/60
f 25/181/61 15/182/61 26/183/61
f 15/184/62 2/185/62 26/186/62
f 23/187/63 24/188/63 11/189/63
f 23/190/64 16/191/64 24/192/64
f 16/193/65 6/194/65 24/195/65
f 17/196/66 22/197/66 6/198/66
f 17/199/67 20/200/67 22/201/67
f 20/202/68 5/203/68 22/204/68
f 20/205/69 21/206/69 5/207/69
f 20/208/70 18/209/70 21/210/70
f 18/211/71 4/212/71 21/213/71
f 18/214/72 19/215/72 4/216/72
f 18/217/73 13/218/73 19/219/73
f 13/220/74 3/221/74 19/222/74
f 16/223/75 17/224/75 6/225/75
f 16/226/76 14/227/76 17/228/76
f 14/229/77 1/230/77 17/231/77
f 13/232/78 15/233/78 3/234/78
f 13/235/79 14/236/79 15/237/79
f 14/238/80 2/239/80 15/240/80
